solid
 facet normal -1.000000e+00 -0.000000e+00 -0.000000e+00
   outer loop
     vertex -5.250000e+00  4.100000e+00  5.930000e+00
     vertex -5.250000e+00  4.100000e+00 -5.930000e+00
     vertex -5.250000e+00 -4.100000e+00  5.930000e+00
   endloop
 endfacet
 facet normal -1.000000e+00  0.000000e+00  0.000000e+00
   outer loop
     vertex -5.250000e+00  4.100000e+00 -5.930000e+00
     vertex -5.250000e+00 -4.100000e+00 -5.930000e+00
     vertex -5.250000e+00 -4.100000e+00  5.930000e+00
   endloop
 endfacet
 facet normal  0.000000e+00 -1.000000e+00  0.000000e+00
   outer loop
     vertex -5.250000e+00 -4.100000e+00 -5.930000e+00
     vertex  5.250000e+00 -4.100000e+00 -5.930000e+00
     vertex -5.250000e+00 -4.100000e+00  5.930000e+00
   endloop
 endfacet
 facet normal  0.000000e+00 -1.000000e+00  0.000000e+00
   outer loop
     vertex -5.250000e+00 -4.100000e+00  5.930000e+00
     vertex  5.250000e+00 -4.100000e+00 -5.930000e+00
     vertex  5.250000e+00 -4.100000e+00  5.930000e+00
   endloop
 endfacet
 facet normal -0.000000e+00  0.000000e+00  1.000000e+00
   outer loop
     vertex -1.151874e+00 -1.037152e+00  5.930000e+00
     vertex -5.250000e+00 -4.100000e+00  5.930000e+00
     vertex -1.037152e+00 -1.151874e+00  5.930000e+00
   endloop
 endfacet
 facet normal  0.000000e+00  0.000000e+00  1.000000e+00
   outer loop
     vertex -9.110671e-01  1.253976e+00  5.930000e+00
     vertex -5.250000e+00  4.100000e+00  5.930000e+00
     vertex -1.037152e+00  1.151874e+00  5.930000e+00
   endloop
 endfacet
 facet normal -0.000000e+00  0.000000e+00  1.000000e+00
   outer loop
     vertex -1.253976e+00 -9.110671e-01  5.930000e+00
     vertex -5.250000e+00 -4.100000e+00  5.930000e+00
     vertex -1.151874e+00 -1.037152e+00  5.930000e+00
   endloop
 endfacet
 facet normal  0.000000e+00  0.000000e+00  1.000000e+00
   outer loop
     vertex -9.110671e-01 -1.253976e+00  5.930000e+00
     vertex -1.037152e+00 -1.151874e+00  5.930000e+00
     vertex -5.250000e+00 -4.100000e+00  5.930000e+00
   endloop
 endfacet
 facet normal  0.000000e+00  0.000000e+00  1.000000e+00
   outer loop
     vertex -7.750000e-01  1.342339e+00  5.930000e+00
     vertex -5.250000e+00  4.100000e+00  5.930000e+00
     vertex -9.110671e-01  1.253976e+00  5.930000e+00
   endloop
 endfacet
 facet normal  0.000000e+00  0.000000e+00  1.000000e+00
   outer loop
     vertex -7.750000e-01 -1.342339e+00  5.930000e+00
     vertex -9.110671e-01 -1.253976e+00  5.930000e+00
     vertex -5.250000e+00 -4.100000e+00  5.930000e+00
   endloop
 endfacet
 facet normal -0.000000e+00  0.000000e+00  1.000000e+00
   outer loop
     vertex -1.342339e+00 -7.750000e-01  5.930000e+00
     vertex -5.250000e+00 -4.100000e+00  5.930000e+00
     vertex -1.253976e+00 -9.110671e-01  5.930000e+00
   endloop
 endfacet
 facet normal  0.000000e+00  0.000000e+00  1.000000e+00
   outer loop
     vertex -6.304418e-01 -1.415995e+00  5.930000e+00
     vertex -7.750000e-01 -1.342339e+00  5.930000e+00
     vertex -5.250000e+00 -4.100000e+00  5.930000e+00
   endloop
 endfacet
 facet normal  0.000000e+00  0.000000e+00  1.000000e+00
   outer loop
     vertex -6.304418e-01  1.415995e+00  5.930000e+00
     vertex -5.250000e+00  4.100000e+00  5.930000e+00
     vertex -7.750000e-01  1.342339e+00  5.930000e+00
   endloop
 endfacet
 facet normal -0.000000e+00  0.000000e+00  1.000000e+00
   outer loop
     vertex -1.415995e+00 -6.304418e-01  5.930000e+00
     vertex -5.250000e+00 -4.100000e+00  5.930000e+00
     vertex -1.342339e+00 -7.750000e-01  5.930000e+00
   endloop
 endfacet
 facet normal  0.000000e+00  0.000000e+00  1.000000e+00
   outer loop
     vertex -4.789763e-01  1.474138e+00  5.930000e+00
     vertex -5.250000e+00  4.100000e+00  5.930000e+00
     vertex -6.304418e-01  1.415995e+00  5.930000e+00
   endloop
 endfacet
 facet normal  0.000000e+00  0.000000e+00  1.000000e+00
   outer loop
     vertex -4.789763e-01 -1.474138e+00  5.930000e+00
     vertex -6.304418e-01 -1.415995e+00  5.930000e+00
     vertex -5.250000e+00 -4.100000e+00  5.930000e+00
   endloop
 endfacet
 facet normal -0.000000e+00  0.000000e+00  1.000000e+00
   outer loop
     vertex -1.474138e+00 -4.789763e-01  5.930000e+00
     vertex -5.250000e+00 -4.100000e+00  5.930000e+00
     vertex -1.415995e+00 -6.304418e-01  5.930000e+00
   endloop
 endfacet
 facet normal  0.000000e+00  0.000000e+00  1.000000e+00
   outer loop
     vertex  5.250000e+00 -4.100000e+00  5.930000e+00
     vertex -3.541193e-16 -1.550000e+00  5.930000e+00
     vertex -5.250000e+00 -4.100000e+00  5.930000e+00
   endloop
 endfacet
 facet normal  0.000000e+00  0.000000e+00  1.000000e+00
   outer loop
     vertex  5.250000e+00 -4.100000e+00  5.930000e+00
     vertex  1.620191e-01 -1.541509e+00  5.930000e+00
     vertex -3.541193e-16 -1.550000e+00  5.930000e+00
   endloop
 endfacet
 facet normal  0.000000e+00  0.000000e+00  1.000000e+00
   outer loop
     vertex -3.222631e-01 -1.516129e+00  5.930000e+00
     vertex -4.789763e-01 -1.474138e+00  5.930000e+00
     vertex -5.250000e+00 -4.100000e+00  5.930000e+00
   endloop
 endfacet
 facet normal  0.000000e+00  0.000000e+00  1.000000e+00
   outer loop
     vertex  5.250000e+00 -4.100000e+00  5.930000e+00
     vertex  3.222631e-01 -1.516129e+00  5.930000e+00
     vertex  1.620191e-01 -1.541509e+00  5.930000e+00
   endloop
 endfacet
 facet normal  0.000000e+00  0.000000e+00  1.000000e+00
   outer loop
     vertex  5.250000e+00 -4.100000e+00  5.930000e+00
     vertex  4.789763e-01 -1.474138e+00  5.930000e+00
     vertex  3.222631e-01 -1.516129e+00  5.930000e+00
   endloop
 endfacet
 facet normal  0.000000e+00  0.000000e+00  1.000000e+00
   outer loop
     vertex  5.250000e+00 -4.100000e+00  5.930000e+00
     vertex  6.304418e-01 -1.415995e+00  5.930000e+00
     vertex  4.789763e-01 -1.474138e+00  5.930000e+00
   endloop
 endfacet
 facet normal  0.000000e+00  0.000000e+00  1.000000e+00
   outer loop
     vertex  5.250000e+00 -4.100000e+00  5.930000e+00
     vertex  7.750000e-01 -1.342339e+00  5.930000e+00
     vertex  6.304418e-01 -1.415995e+00  5.930000e+00
   endloop
 endfacet
 facet normal  0.000000e+00  0.000000e+00  1.000000e+00
   outer loop
     vertex  5.250000e+00 -4.100000e+00  5.930000e+00
     vertex  9.110671e-01 -1.253976e+00  5.930000e+00
     vertex  7.750000e-01 -1.342339e+00  5.930000e+00
   endloop
 endfacet
 facet normal  0.000000e+00  0.000000e+00  1.000000e+00
   outer loop
     vertex  5.250000e+00 -4.100000e+00  5.930000e+00
     vertex  1.037152e+00 -1.151874e+00  5.930000e+00
     vertex  9.110671e-01 -1.253976e+00  5.930000e+00
   endloop
 endfacet
 facet normal  0.000000e+00  0.000000e+00  1.000000e+00
   outer loop
     vertex  5.250000e+00 -4.100000e+00  5.930000e+00
     vertex  1.151874e+00 -1.037152e+00  5.930000e+00
     vertex  1.037152e+00 -1.151874e+00  5.930000e+00
   endloop
 endfacet
 facet normal -0.000000e+00  0.000000e+00  1.000000e+00
   outer loop
     vertex -1.516129e+00 -3.222631e-01  5.930000e+00
     vertex -5.250000e+00 -4.100000e+00  5.930000e+00
     vertex -1.474138e+00 -4.789763e-01  5.930000e+00
   endloop
 endfacet
 facet normal  0.000000e+00  0.000000e+00  1.000000e+00
   outer loop
     vertex  5.250000e+00 -4.100000e+00  5.930000e+00
     vertex  1.253976e+00 -9.110671e-01  5.930000e+00
     vertex  1.151874e+00 -1.037152e+00  5.930000e+00
   endloop
 endfacet
 facet normal  0.000000e+00  0.000000e+00  1.000000e+00
   outer loop
     vertex  5.250000e+00 -4.100000e+00  5.930000e+00
     vertex  1.342339e+00 -7.750000e-01  5.930000e+00
     vertex  1.253976e+00 -9.110671e-01  5.930000e+00
   endloop
 endfacet
 facet normal  0.000000e+00  0.000000e+00  1.000000e+00
   outer loop
     vertex  5.250000e+00 -4.100000e+00  5.930000e+00
     vertex  1.415995e+00 -6.304418e-01  5.930000e+00
     vertex  1.342339e+00 -7.750000e-01  5.930000e+00
   endloop
 endfacet
 facet normal  0.000000e+00  0.000000e+00  1.000000e+00
   outer loop
     vertex  5.250000e+00 -4.100000e+00  5.930000e+00
     vertex  1.474138e+00 -4.789763e-01  5.930000e+00
     vertex  1.415995e+00 -6.304418e-01  5.930000e+00
   endloop
 endfacet
 facet normal  0.000000e+00  0.000000e+00  1.000000e+00
   outer loop
     vertex -1.620191e-01 -1.541509e+00  5.930000e+00
     vertex -3.222631e-01 -1.516129e+00  5.930000e+00
     vertex -5.250000e+00 -4.100000e+00  5.930000e+00
   endloop
 endfacet
 facet normal  0.000000e+00  0.000000e+00  1.000000e+00
   outer loop
     vertex -3.222631e-01  1.516129e+00  5.930000e+00
     vertex -5.250000e+00  4.100000e+00  5.930000e+00
     vertex -4.789763e-01  1.474138e+00  5.930000e+00
   endloop
 endfacet
 facet normal  0.000000e+00  0.000000e+00  1.000000e+00
   outer loop
     vertex  1.516129e+00 -3.222631e-01  5.930000e+00
     vertex  1.474138e+00 -4.789763e-01  5.930000e+00
     vertex  5.250000e+00 -4.100000e+00  5.930000e+00
   endloop
 endfacet
 facet normal -0.000000e+00  0.000000e+00  1.000000e+00
   outer loop
     vertex -1.541509e+00 -1.620191e-01  5.930000e+00
     vertex -5.250000e+00 -4.100000e+00  5.930000e+00
     vertex -1.516129e+00 -3.222631e-01  5.930000e+00
   endloop
 endfacet
 facet normal  0.000000e+00  0.000000e+00  1.000000e+00
   outer loop
     vertex -1.620191e-01  1.541509e+00  5.930000e+00
     vertex -5.250000e+00  4.100000e+00  5.930000e+00
     vertex -3.222631e-01  1.516129e+00  5.930000e+00
   endloop
 endfacet
 facet normal -0.000000e+00  0.000000e+00  1.000000e+00
   outer loop
     vertex -1.550000e+00  8.781585e-16  5.930000e+00
     vertex -5.250000e+00 -4.100000e+00  5.930000e+00
     vertex -1.541509e+00 -1.620191e-01  5.930000e+00
   endloop
 endfacet
 facet normal  0.000000e+00  0.000000e+00  1.000000e+00
   outer loop
     vertex  1.541509e+00 -1.620191e-01  5.930000e+00
     vertex  1.516129e+00 -3.222631e-01  5.930000e+00
     vertex  5.250000e+00 -4.100000e+00  5.930000e+00
   endloop
 endfacet
 facet normal  0.000000e+00  0.000000e+00  1.000000e+00
   outer loop
     vertex -3.541193e-16 -1.550000e+00  5.930000e+00
     vertex -1.620191e-01 -1.541509e+00  5.930000e+00
     vertex -5.250000e+00 -4.100000e+00  5.930000e+00
   endloop
 endfacet
 facet normal  0.000000e+00  0.000000e+00  1.000000e+00
   outer loop
     vertex  1.550000e+00  0.000000e+00  5.930000e+00
     vertex  1.541509e+00 -1.620191e-01  5.930000e+00
     vertex  5.250000e+00 -4.100000e+00  5.930000e+00
   endloop
 endfacet
 facet normal  0.000000e+00  0.000000e+00  1.000000e+00
   outer loop
     vertex  2.552119e-17  1.550000e+00  5.930000e+00
     vertex -5.250000e+00  4.100000e+00  5.930000e+00
     vertex -1.620191e-01  1.541509e+00  5.930000e+00
   endloop
 endfacet
 facet normal -0.000000e+00  0.000000e+00  1.000000e+00
   outer loop
     vertex -5.250000e+00  4.100000e+00  5.930000e+00
     vertex -1.541509e+00  1.620191e-01  5.930000e+00
     vertex -1.516129e+00  3.222631e-01  5.930000e+00
   endloop
 endfacet
 facet normal -0.000000e+00  0.000000e+00  1.000000e+00
   outer loop
     vertex -5.250000e+00  4.100000e+00  5.930000e+00
     vertex -1.550000e+00  8.781585e-16  5.930000e+00
     vertex -1.541509e+00  1.620191e-01  5.930000e+00
   endloop
 endfacet
 facet normal -0.000000e+00  0.000000e+00  1.000000e+00
   outer loop
     vertex -5.250000e+00  4.100000e+00  5.930000e+00
     vertex -5.250000e+00 -4.100000e+00  5.930000e+00
     vertex -1.550000e+00  8.781585e-16  5.930000e+00
   endloop
 endfacet
 facet normal  0.000000e+00  0.000000e+00  1.000000e+00
   outer loop
     vertex -1.474138e+00  4.789763e-01  5.930000e+00
     vertex -5.250000e+00  4.100000e+00  5.930000e+00
     vertex -1.516129e+00  3.222631e-01  5.930000e+00
   endloop
 endfacet
 facet normal  0.000000e+00  0.000000e+00  1.000000e+00
   outer loop
     vertex -1.415995e+00  6.304418e-01  5.930000e+00
     vertex -5.250000e+00  4.100000e+00  5.930000e+00
     vertex -1.474138e+00  4.789763e-01  5.930000e+00
   endloop
 endfacet
 facet normal  0.000000e+00  0.000000e+00  1.000000e+00
   outer loop
     vertex -1.342339e+00  7.750000e-01  5.930000e+00
     vertex -5.250000e+00  4.100000e+00  5.930000e+00
     vertex -1.415995e+00  6.304418e-01  5.930000e+00
   endloop
 endfacet
 facet normal  0.000000e+00  0.000000e+00  1.000000e+00
   outer loop
     vertex -1.253976e+00  9.110671e-01  5.930000e+00
     vertex -5.250000e+00  4.100000e+00  5.930000e+00
     vertex -1.342339e+00  7.750000e-01  5.930000e+00
   endloop
 endfacet
 facet normal  0.000000e+00  0.000000e+00  1.000000e+00
   outer loop
     vertex  5.250000e+00  4.100000e+00  5.930000e+00
     vertex  1.541509e+00  1.620191e-01  5.930000e+00
     vertex  1.550000e+00  0.000000e+00  5.930000e+00
   endloop
 endfacet
 facet normal  0.000000e+00  0.000000e+00  1.000000e+00
   outer loop
     vertex  5.250000e+00  4.100000e+00  5.930000e+00
     vertex  1.516129e+00  3.222631e-01  5.930000e+00
     vertex  1.541509e+00  1.620191e-01  5.930000e+00
   endloop
 endfacet
 facet normal  0.000000e+00  0.000000e+00  1.000000e+00
   outer loop
     vertex  5.250000e+00  4.100000e+00  5.930000e+00
     vertex  1.474138e+00  4.789763e-01  5.930000e+00
     vertex  1.516129e+00  3.222631e-01  5.930000e+00
   endloop
 endfacet
 facet normal  0.000000e+00  0.000000e+00  1.000000e+00
   outer loop
     vertex  5.250000e+00  4.100000e+00  5.930000e+00
     vertex  1.415995e+00  6.304418e-01  5.930000e+00
     vertex  1.474138e+00  4.789763e-01  5.930000e+00
   endloop
 endfacet
 facet normal  0.000000e+00  0.000000e+00  1.000000e+00
   outer loop
     vertex  5.250000e+00  4.100000e+00  5.930000e+00
     vertex  1.342339e+00  7.750000e-01  5.930000e+00
     vertex  1.415995e+00  6.304418e-01  5.930000e+00
   endloop
 endfacet
 facet normal  0.000000e+00  0.000000e+00  1.000000e+00
   outer loop
     vertex  5.250000e+00  4.100000e+00  5.930000e+00
     vertex  1.253976e+00  9.110671e-01  5.930000e+00
     vertex  1.342339e+00  7.750000e-01  5.930000e+00
   endloop
 endfacet
 facet normal  0.000000e+00  0.000000e+00  1.000000e+00
   outer loop
     vertex  5.250000e+00  4.100000e+00  5.930000e+00
     vertex  1.151874e+00  1.037152e+00  5.930000e+00
     vertex  1.253976e+00  9.110671e-01  5.930000e+00
   endloop
 endfacet
 facet normal  0.000000e+00  0.000000e+00  1.000000e+00
   outer loop
     vertex  5.250000e+00  4.100000e+00  5.930000e+00
     vertex  1.037152e+00  1.151874e+00  5.930000e+00
     vertex  1.151874e+00  1.037152e+00  5.930000e+00
   endloop
 endfacet
 facet normal  0.000000e+00  0.000000e+00  1.000000e+00
   outer loop
     vertex  5.250000e+00  4.100000e+00  5.930000e+00
     vertex  9.110671e-01  1.253976e+00  5.930000e+00
     vertex  1.037152e+00  1.151874e+00  5.930000e+00
   endloop
 endfacet
 facet normal  0.000000e+00  0.000000e+00  1.000000e+00
   outer loop
     vertex -1.151874e+00  1.037152e+00  5.930000e+00
     vertex -5.250000e+00  4.100000e+00  5.930000e+00
     vertex -1.253976e+00  9.110671e-01  5.930000e+00
   endloop
 endfacet
 facet normal  0.000000e+00  0.000000e+00  1.000000e+00
   outer loop
     vertex  5.250000e+00  4.100000e+00  5.930000e+00
     vertex  7.750000e-01  1.342339e+00  5.930000e+00
     vertex  9.110671e-01  1.253976e+00  5.930000e+00
   endloop
 endfacet
 facet normal  0.000000e+00  0.000000e+00  1.000000e+00
   outer loop
     vertex  5.250000e+00  4.100000e+00  5.930000e+00
     vertex  6.304418e-01  1.415995e+00  5.930000e+00
     vertex  7.750000e-01  1.342339e+00  5.930000e+00
   endloop
 endfacet
 facet normal  0.000000e+00  0.000000e+00  1.000000e+00
   outer loop
     vertex  5.250000e+00  4.100000e+00  5.930000e+00
     vertex  4.789763e-01  1.474138e+00  5.930000e+00
     vertex  6.304418e-01  1.415995e+00  5.930000e+00
   endloop
 endfacet
 facet normal  0.000000e+00  0.000000e+00  1.000000e+00
   outer loop
     vertex  5.250000e+00  4.100000e+00  5.930000e+00
     vertex  3.222631e-01  1.516129e+00  5.930000e+00
     vertex  4.789763e-01  1.474138e+00  5.930000e+00
   endloop
 endfacet
 facet normal  0.000000e+00  0.000000e+00  1.000000e+00
   outer loop
     vertex  5.250000e+00  4.100000e+00  5.930000e+00
     vertex  1.620191e-01  1.541509e+00  5.930000e+00
     vertex  3.222631e-01  1.516129e+00  5.930000e+00
   endloop
 endfacet
 facet normal  0.000000e+00  0.000000e+00  1.000000e+00
   outer loop
     vertex  5.250000e+00  4.100000e+00  5.930000e+00
     vertex  2.552119e-17  1.550000e+00  5.930000e+00
     vertex  1.620191e-01  1.541509e+00  5.930000e+00
   endloop
 endfacet
 facet normal  0.000000e+00  0.000000e+00  1.000000e+00
   outer loop
     vertex  5.250000e+00  4.100000e+00  5.930000e+00
     vertex  1.550000e+00  0.000000e+00  5.930000e+00
     vertex  5.250000e+00 -4.100000e+00  5.930000e+00
   endloop
 endfacet
 facet normal  0.000000e+00  0.000000e+00  1.000000e+00
   outer loop
     vertex  5.250000e+00  4.100000e+00  5.930000e+00
     vertex -5.250000e+00  4.100000e+00  5.930000e+00
     vertex  2.552119e-17  1.550000e+00  5.930000e+00
   endloop
 endfacet
 facet normal  0.000000e+00  0.000000e+00  1.000000e+00
   outer loop
     vertex -1.037152e+00  1.151874e+00  5.930000e+00
     vertex -5.250000e+00  4.100000e+00  5.930000e+00
     vertex -1.151874e+00  1.037152e+00  5.930000e+00
   endloop
 endfacet
 facet normal  0.000000e+00  1.000000e+00  0.000000e+00
   outer loop
     vertex -5.250000e+00  4.100000e+00  5.930000e+00
     vertex  5.250000e+00  4.100000e+00 -5.930000e+00
     vertex -5.250000e+00  4.100000e+00 -5.930000e+00
   endloop
 endfacet
 facet normal  0.000000e+00  1.000000e+00  0.000000e+00
   outer loop
     vertex  5.250000e+00  4.100000e+00  5.930000e+00
     vertex  5.250000e+00  4.100000e+00 -5.930000e+00
     vertex -5.250000e+00  4.100000e+00  5.930000e+00
   endloop
 endfacet
 facet normal -0.000000e+00  0.000000e+00 -1.000000e+00
   outer loop
     vertex -1.037152e+00 -1.151874e+00 -5.930000e+00
     vertex -5.250000e+00 -4.100000e+00 -5.930000e+00
     vertex -1.253976e+00 -9.110671e-01 -5.930000e+00
   endloop
 endfacet
 facet normal  0.000000e+00  0.000000e+00 -1.000000e+00
   outer loop
     vertex -5.250000e+00 -4.100000e+00 -5.930000e+00
     vertex -1.037152e+00 -1.151874e+00 -5.930000e+00
     vertex -7.750000e-01 -1.342339e+00 -5.930000e+00
   endloop
 endfacet
 facet normal -0.000000e+00  0.000000e+00 -1.000000e+00
   outer loop
     vertex -1.253976e+00 -9.110671e-01 -5.930000e+00
     vertex -5.250000e+00 -4.100000e+00 -5.930000e+00
     vertex -1.415995e+00 -6.304418e-01 -5.930000e+00
   endloop
 endfacet
 facet normal  0.000000e+00  0.000000e+00 -1.000000e+00
   outer loop
     vertex -5.250000e+00 -4.100000e+00 -5.930000e+00
     vertex -7.750000e-01 -1.342339e+00 -5.930000e+00
     vertex -4.789763e-01 -1.474138e+00 -5.930000e+00
   endloop
 endfacet
 facet normal -0.000000e+00  0.000000e+00 -1.000000e+00
   outer loop
     vertex -1.415995e+00 -6.304418e-01 -5.930000e+00
     vertex -5.250000e+00 -4.100000e+00 -5.930000e+00
     vertex -1.516129e+00 -3.222631e-01 -5.930000e+00
   endloop
 endfacet
 facet normal  0.000000e+00  0.000000e+00 -1.000000e+00
   outer loop
     vertex -5.250000e+00 -4.100000e+00 -5.930000e+00
     vertex -4.789763e-01 -1.474138e+00 -5.930000e+00
     vertex -1.620191e-01 -1.541509e+00 -5.930000e+00
   endloop
 endfacet
 facet normal -0.000000e+00  0.000000e+00 -1.000000e+00
   outer loop
     vertex -1.516129e+00 -3.222631e-01 -5.930000e+00
     vertex -5.250000e+00 -4.100000e+00 -5.930000e+00
     vertex -1.550000e+00  8.781585e-16 -5.930000e+00
   endloop
 endfacet
 facet normal  0.000000e+00  0.000000e+00 -1.000000e+00
   outer loop
     vertex -5.250000e+00 -4.100000e+00 -5.930000e+00
     vertex -1.620191e-01 -1.541509e+00 -5.930000e+00
     vertex  1.620191e-01 -1.541509e+00 -5.930000e+00
   endloop
 endfacet
 facet normal -0.000000e+00  0.000000e+00 -1.000000e+00
   outer loop
     vertex -1.516129e+00  3.222631e-01 -5.930000e+00
     vertex -1.550000e+00  8.781585e-16 -5.930000e+00
     vertex -5.250000e+00  4.100000e+00 -5.930000e+00
   endloop
 endfacet
 facet normal -0.000000e+00  0.000000e+00 -1.000000e+00
   outer loop
     vertex -1.550000e+00  8.781585e-16 -5.930000e+00
     vertex -5.250000e+00 -4.100000e+00 -5.930000e+00
     vertex -5.250000e+00  4.100000e+00 -5.930000e+00
   endloop
 endfacet
 facet normal  0.000000e+00  0.000000e+00 -1.000000e+00
   outer loop
     vertex -1.516129e+00  3.222631e-01 -5.930000e+00
     vertex -5.250000e+00  4.100000e+00 -5.930000e+00
     vertex -1.415995e+00  6.304418e-01 -5.930000e+00
   endloop
 endfacet
 facet normal  0.000000e+00  0.000000e+00 -1.000000e+00
   outer loop
     vertex -1.415995e+00  6.304418e-01 -5.930000e+00
     vertex -5.250000e+00  4.100000e+00 -5.930000e+00
     vertex -1.253976e+00  9.110671e-01 -5.930000e+00
   endloop
 endfacet
 facet normal  0.000000e+00  0.000000e+00 -1.000000e+00
   outer loop
     vertex -1.253976e+00  9.110671e-01 -5.930000e+00
     vertex -5.250000e+00  4.100000e+00 -5.930000e+00
     vertex -1.037152e+00  1.151874e+00 -5.930000e+00
   endloop
 endfacet
 facet normal  0.000000e+00  0.000000e+00 -1.000000e+00
   outer loop
     vertex -1.037152e+00  1.151874e+00 -5.930000e+00
     vertex -5.250000e+00  4.100000e+00 -5.930000e+00
     vertex -7.750000e-01  1.342339e+00 -5.930000e+00
   endloop
 endfacet
 facet normal  0.000000e+00  0.000000e+00 -1.000000e+00
   outer loop
     vertex -7.750000e-01  1.342339e+00 -5.930000e+00
     vertex -5.250000e+00  4.100000e+00 -5.930000e+00
     vertex -4.789763e-01  1.474138e+00 -5.930000e+00
   endloop
 endfacet
 facet normal  0.000000e+00  0.000000e+00 -1.000000e+00
   outer loop
     vertex  1.620191e-01 -1.541509e+00 -5.930000e+00
     vertex  4.789763e-01 -1.474138e+00 -5.930000e+00
     vertex  5.250000e+00 -4.100000e+00 -5.930000e+00
   endloop
 endfacet
 facet normal  0.000000e+00  0.000000e+00 -1.000000e+00
   outer loop
     vertex  4.789763e-01 -1.474138e+00 -5.930000e+00
     vertex  7.750000e-01 -1.342339e+00 -5.930000e+00
     vertex  5.250000e+00 -4.100000e+00 -5.930000e+00
   endloop
 endfacet
 facet normal  0.000000e+00  0.000000e+00 -1.000000e+00
   outer loop
     vertex  7.750000e-01 -1.342339e+00 -5.930000e+00
     vertex  1.037152e+00 -1.151874e+00 -5.930000e+00
     vertex  5.250000e+00 -4.100000e+00 -5.930000e+00
   endloop
 endfacet
 facet normal  0.000000e+00  0.000000e+00 -1.000000e+00
   outer loop
     vertex  1.037152e+00 -1.151874e+00 -5.930000e+00
     vertex  1.253976e+00 -9.110671e-01 -5.930000e+00
     vertex  5.250000e+00 -4.100000e+00 -5.930000e+00
   endloop
 endfacet
 facet normal  0.000000e+00  0.000000e+00 -1.000000e+00
   outer loop
     vertex  1.253976e+00 -9.110671e-01 -5.930000e+00
     vertex  1.415995e+00 -6.304418e-01 -5.930000e+00
     vertex  5.250000e+00 -4.100000e+00 -5.930000e+00
   endloop
 endfacet
 facet normal  0.000000e+00  0.000000e+00 -1.000000e+00
   outer loop
     vertex -5.250000e+00 -4.100000e+00 -5.930000e+00
     vertex  1.620191e-01 -1.541509e+00 -5.930000e+00
     vertex  5.250000e+00 -4.100000e+00 -5.930000e+00
   endloop
 endfacet
 facet normal  0.000000e+00  0.000000e+00 -1.000000e+00
   outer loop
     vertex  5.250000e+00 -4.100000e+00 -5.930000e+00
     vertex  1.415995e+00 -6.304418e-01 -5.930000e+00
     vertex  1.516129e+00 -3.222631e-01 -5.930000e+00
   endloop
 endfacet
 facet normal  0.000000e+00  0.000000e+00 -1.000000e+00
   outer loop
     vertex -4.789763e-01  1.474138e+00 -5.930000e+00
     vertex -5.250000e+00  4.100000e+00 -5.930000e+00
     vertex -1.620191e-01  1.541509e+00 -5.930000e+00
   endloop
 endfacet
 facet normal  0.000000e+00  0.000000e+00 -1.000000e+00
   outer loop
     vertex  5.250000e+00 -4.100000e+00 -5.930000e+00
     vertex  1.516129e+00 -3.222631e-01 -5.930000e+00
     vertex  1.550000e+00  0.000000e+00 -5.930000e+00
   endloop
 endfacet
 facet normal  0.000000e+00  0.000000e+00 -1.000000e+00
   outer loop
     vertex  1.550000e+00  0.000000e+00 -5.930000e+00
     vertex  1.516129e+00  3.222631e-01 -5.930000e+00
     vertex  5.250000e+00  4.100000e+00 -5.930000e+00
   endloop
 endfacet
 facet normal  0.000000e+00  0.000000e+00 -1.000000e+00
   outer loop
     vertex  1.516129e+00  3.222631e-01 -5.930000e+00
     vertex  1.415995e+00  6.304418e-01 -5.930000e+00
     vertex  5.250000e+00  4.100000e+00 -5.930000e+00
   endloop
 endfacet
 facet normal  0.000000e+00  0.000000e+00 -1.000000e+00
   outer loop
     vertex  1.415995e+00  6.304418e-01 -5.930000e+00
     vertex  1.253976e+00  9.110671e-01 -5.930000e+00
     vertex  5.250000e+00  4.100000e+00 -5.930000e+00
   endloop
 endfacet
 facet normal  0.000000e+00  0.000000e+00 -1.000000e+00
   outer loop
     vertex  1.253976e+00  9.110671e-01 -5.930000e+00
     vertex  1.037152e+00  1.151874e+00 -5.930000e+00
     vertex  5.250000e+00  4.100000e+00 -5.930000e+00
   endloop
 endfacet
 facet normal  0.000000e+00  0.000000e+00 -1.000000e+00
   outer loop
     vertex  1.037152e+00  1.151874e+00 -5.930000e+00
     vertex  7.750000e-01  1.342339e+00 -5.930000e+00
     vertex  5.250000e+00  4.100000e+00 -5.930000e+00
   endloop
 endfacet
 facet normal  0.000000e+00  0.000000e+00 -1.000000e+00
   outer loop
     vertex  7.750000e-01  1.342339e+00 -5.930000e+00
     vertex  4.789763e-01  1.474138e+00 -5.930000e+00
     vertex  5.250000e+00  4.100000e+00 -5.930000e+00
   endloop
 endfacet
 facet normal  0.000000e+00  0.000000e+00 -1.000000e+00
   outer loop
     vertex  4.789763e-01  1.474138e+00 -5.930000e+00
     vertex  1.620191e-01  1.541509e+00 -5.930000e+00
     vertex  5.250000e+00  4.100000e+00 -5.930000e+00
   endloop
 endfacet
 facet normal  0.000000e+00  0.000000e+00 -1.000000e+00
   outer loop
     vertex  5.250000e+00 -4.100000e+00 -5.930000e+00
     vertex  1.550000e+00  0.000000e+00 -5.930000e+00
     vertex  5.250000e+00  4.100000e+00 -5.930000e+00
   endloop
 endfacet
 facet normal  0.000000e+00  0.000000e+00 -1.000000e+00
   outer loop
     vertex -1.620191e-01  1.541509e+00 -5.930000e+00
     vertex -5.250000e+00  4.100000e+00 -5.930000e+00
     vertex  5.250000e+00  4.100000e+00 -5.930000e+00
   endloop
 endfacet
 facet normal  0.000000e+00  0.000000e+00 -1.000000e+00
   outer loop
     vertex  1.620191e-01  1.541509e+00 -5.930000e+00
     vertex -1.620191e-01  1.541509e+00 -5.930000e+00
     vertex  5.250000e+00  4.100000e+00 -5.930000e+00
   endloop
 endfacet
 facet normal  1.000000e+00 -0.000000e+00  0.000000e+00
   outer loop
     vertex  5.250000e+00 -4.100000e+00  5.930000e+00
     vertex  5.250000e+00  4.100000e+00 -5.930000e+00
     vertex  5.250000e+00  4.100000e+00  5.930000e+00
   endloop
 endfacet
 facet normal  1.000000e+00 -0.000000e+00  0.000000e+00
   outer loop
     vertex  5.250000e+00 -4.100000e+00  5.930000e+00
     vertex  5.250000e+00 -4.100000e+00 -5.930000e+00
     vertex  5.250000e+00  4.100000e+00 -5.930000e+00
   endloop
 endfacet
 facet normal  9.986295e-01  5.233596e-02  0.000000e+00
   outer loop
     vertex  1.550000e+00  0.000000e+00  1.093000e+01
     vertex  1.550000e+00  0.000000e+00  5.930000e+00
     vertex  1.541509e+00  1.620191e-01  5.930000e+00
   endloop
 endfacet
 facet normal  9.986295e-01  5.233596e-02  0.000000e+00
   outer loop
     vertex  1.541509e+00  1.620191e-01  1.093000e+01
     vertex  1.550000e+00  0.000000e+00  1.093000e+01
     vertex  1.541509e+00  1.620191e-01  5.930000e+00
   endloop
 endfacet
 facet normal  9.876883e-01  1.564345e-01  0.000000e+00
   outer loop
     vertex  1.541509e+00  1.620191e-01  1.093000e+01
     vertex  1.541509e+00  1.620191e-01  5.930000e+00
     vertex  1.516129e+00  3.222631e-01  5.930000e+00
   endloop
 endfacet
 facet normal  9.876883e-01  1.564345e-01  0.000000e+00
   outer loop
     vertex  1.516129e+00  3.222631e-01  1.093000e+01
     vertex  1.541509e+00  1.620191e-01  1.093000e+01
     vertex  1.516129e+00  3.222631e-01  5.930000e+00
   endloop
 endfacet
 facet normal  9.659258e-01  2.588190e-01  0.000000e+00
   outer loop
     vertex  1.516129e+00  3.222631e-01  1.093000e+01
     vertex  1.516129e+00  3.222631e-01  5.930000e+00
     vertex  1.474138e+00  4.789763e-01  5.930000e+00
   endloop
 endfacet
 facet normal  9.659258e-01  2.588190e-01  0.000000e+00
   outer loop
     vertex  1.474138e+00  4.789763e-01  1.093000e+01
     vertex  1.516129e+00  3.222631e-01  1.093000e+01
     vertex  1.474138e+00  4.789763e-01  5.930000e+00
   endloop
 endfacet
 facet normal  9.335804e-01  3.583679e-01  0.000000e+00
   outer loop
     vertex  1.474138e+00  4.789763e-01  1.093000e+01
     vertex  1.474138e+00  4.789763e-01  5.930000e+00
     vertex  1.415995e+00  6.304418e-01  5.930000e+00
   endloop
 endfacet
 facet normal  9.335804e-01  3.583679e-01  0.000000e+00
   outer loop
     vertex  1.415995e+00  6.304418e-01  1.093000e+01
     vertex  1.474138e+00  4.789763e-01  1.093000e+01
     vertex  1.415995e+00  6.304418e-01  5.930000e+00
   endloop
 endfacet
 facet normal  8.910065e-01  4.539905e-01  0.000000e+00
   outer loop
     vertex  1.415995e+00  6.304418e-01  1.093000e+01
     vertex  1.415995e+00  6.304418e-01  5.930000e+00
     vertex  1.342339e+00  7.750000e-01  5.930000e+00
   endloop
 endfacet
 facet normal  8.910065e-01  4.539905e-01  0.000000e+00
   outer loop
     vertex  1.342339e+00  7.750000e-01  1.093000e+01
     vertex  1.415995e+00  6.304418e-01  1.093000e+01
     vertex  1.342339e+00  7.750000e-01  5.930000e+00
   endloop
 endfacet
 facet normal  8.386706e-01  5.446390e-01  0.000000e+00
   outer loop
     vertex  1.342339e+00  7.750000e-01  1.093000e+01
     vertex  1.342339e+00  7.750000e-01  5.930000e+00
     vertex  1.253976e+00  9.110671e-01  5.930000e+00
   endloop
 endfacet
 facet normal  8.386706e-01  5.446390e-01  0.000000e+00
   outer loop
     vertex  1.253976e+00  9.110671e-01  1.093000e+01
     vertex  1.342339e+00  7.750000e-01  1.093000e+01
     vertex  1.253976e+00  9.110671e-01  5.930000e+00
   endloop
 endfacet
 facet normal  7.771460e-01  6.293204e-01  0.000000e+00
   outer loop
     vertex  1.151874e+00  1.037152e+00  1.093000e+01
     vertex  1.253976e+00  9.110671e-01  1.093000e+01
     vertex  1.253976e+00  9.110671e-01  5.930000e+00
   endloop
 endfacet
 facet normal  7.771460e-01  6.293204e-01  0.000000e+00
   outer loop
     vertex  1.151874e+00  1.037152e+00  1.093000e+01
     vertex  1.253976e+00  9.110671e-01  5.930000e+00
     vertex  1.151874e+00  1.037152e+00  5.930000e+00
   endloop
 endfacet
 facet normal  7.071068e-01  7.071068e-01  0.000000e+00
   outer loop
     vertex  1.037152e+00  1.151874e+00  1.093000e+01
     vertex  1.151874e+00  1.037152e+00  1.093000e+01
     vertex  1.151874e+00  1.037152e+00  5.930000e+00
   endloop
 endfacet
 facet normal  7.071068e-01  7.071068e-01  0.000000e+00
   outer loop
     vertex  1.037152e+00  1.151874e+00  1.093000e+01
     vertex  1.151874e+00  1.037152e+00  5.930000e+00
     vertex  1.037152e+00  1.151874e+00  5.930000e+00
   endloop
 endfacet
 facet normal  6.293204e-01  7.771460e-01  0.000000e+00
   outer loop
     vertex  9.110671e-01  1.253976e+00  1.093000e+01
     vertex  1.037152e+00  1.151874e+00  1.093000e+01
     vertex  1.037152e+00  1.151874e+00  5.930000e+00
   endloop
 endfacet
 facet normal  6.293204e-01  7.771460e-01  0.000000e+00
   outer loop
     vertex  9.110671e-01  1.253976e+00  1.093000e+01
     vertex  1.037152e+00  1.151874e+00  5.930000e+00
     vertex  9.110671e-01  1.253976e+00  5.930000e+00
   endloop
 endfacet
 facet normal  5.446390e-01  8.386706e-01  0.000000e+00
   outer loop
     vertex  9.110671e-01  1.253976e+00  1.093000e+01
     vertex  9.110671e-01  1.253976e+00  5.930000e+00
     vertex  7.750000e-01  1.342339e+00  5.930000e+00
   endloop
 endfacet
 facet normal  5.446390e-01  8.386706e-01  0.000000e+00
   outer loop
     vertex  7.750000e-01  1.342339e+00  1.093000e+01
     vertex  9.110671e-01  1.253976e+00  1.093000e+01
     vertex  7.750000e-01  1.342339e+00  5.930000e+00
   endloop
 endfacet
 facet normal  4.539905e-01  8.910065e-01  0.000000e+00
   outer loop
     vertex  6.304418e-01  1.415995e+00  1.093000e+01
     vertex  7.750000e-01  1.342339e+00  1.093000e+01
     vertex  7.750000e-01  1.342339e+00  5.930000e+00
   endloop
 endfacet
 facet normal  4.539905e-01  8.910065e-01  0.000000e+00
   outer loop
     vertex  6.304418e-01  1.415995e+00  1.093000e+01
     vertex  7.750000e-01  1.342339e+00  5.930000e+00
     vertex  6.304418e-01  1.415995e+00  5.930000e+00
   endloop
 endfacet
 facet normal  3.583679e-01  9.335804e-01  0.000000e+00
   outer loop
     vertex  6.304418e-01  1.415995e+00  1.093000e+01
     vertex  6.304418e-01  1.415995e+00  5.930000e+00
     vertex  4.789763e-01  1.474138e+00  5.930000e+00
   endloop
 endfacet
 facet normal  3.583679e-01  9.335804e-01  0.000000e+00
   outer loop
     vertex  4.789763e-01  1.474138e+00  1.093000e+01
     vertex  6.304418e-01  1.415995e+00  1.093000e+01
     vertex  4.789763e-01  1.474138e+00  5.930000e+00
   endloop
 endfacet
 facet normal  2.588190e-01  9.659258e-01  0.000000e+00
   outer loop
     vertex  3.222631e-01  1.516129e+00  1.093000e+01
     vertex  4.789763e-01  1.474138e+00  1.093000e+01
     vertex  4.789763e-01  1.474138e+00  5.930000e+00
   endloop
 endfacet
 facet normal  1.564345e-01  9.876883e-01  0.000000e+00
   outer loop
     vertex  1.620191e-01  1.541509e+00  1.093000e+01
     vertex  3.222631e-01  1.516129e+00  1.093000e+01
     vertex  3.222631e-01  1.516129e+00  5.930000e+00
   endloop
 endfacet
 facet normal  2.588190e-01  9.659258e-01  0.000000e+00
   outer loop
     vertex  3.222631e-01  1.516129e+00  1.093000e+01
     vertex  4.789763e-01  1.474138e+00  5.930000e+00
     vertex  3.222631e-01  1.516129e+00  5.930000e+00
   endloop
 endfacet
 facet normal  5.233596e-02  9.986295e-01  0.000000e+00
   outer loop
     vertex  2.552119e-17  1.550000e+00  1.093000e+01
     vertex  1.620191e-01  1.541509e+00  1.093000e+01
     vertex  1.620191e-01  1.541509e+00  5.930000e+00
   endloop
 endfacet
 facet normal  1.564345e-01  9.876883e-01  0.000000e+00
   outer loop
     vertex  1.620191e-01  1.541509e+00  1.093000e+01
     vertex  3.222631e-01  1.516129e+00  5.930000e+00
     vertex  1.620191e-01  1.541509e+00  5.930000e+00
   endloop
 endfacet
 facet normal  5.233596e-02  9.986295e-01  0.000000e+00
   outer loop
     vertex  2.552119e-17  1.550000e+00  1.093000e+01
     vertex  1.620191e-01  1.541509e+00  5.930000e+00
     vertex  2.552119e-17  1.550000e+00  5.930000e+00
   endloop
 endfacet
 facet normal -5.233596e-02  9.986295e-01  0.000000e+00
   outer loop
     vertex -1.620191e-01  1.541509e+00  1.093000e+01
     vertex  2.552119e-17  1.550000e+00  1.093000e+01
     vertex -1.620191e-01  1.541509e+00  5.930000e+00
   endloop
 endfacet
 facet normal -5.233596e-02  9.986295e-01  0.000000e+00
   outer loop
     vertex  2.552119e-17  1.550000e+00  1.093000e+01
     vertex  2.552119e-17  1.550000e+00  5.930000e+00
     vertex -1.620191e-01  1.541509e+00  5.930000e+00
   endloop
 endfacet
 facet normal -1.564345e-01  9.876883e-01  0.000000e+00
   outer loop
     vertex -3.222631e-01  1.516129e+00  1.093000e+01
     vertex -1.620191e-01  1.541509e+00  1.093000e+01
     vertex -3.222631e-01  1.516129e+00  5.930000e+00
   endloop
 endfacet
 facet normal -2.588190e-01  9.659258e-01  0.000000e+00
   outer loop
     vertex -4.789763e-01  1.474138e+00  1.093000e+01
     vertex -3.222631e-01  1.516129e+00  1.093000e+01
     vertex -3.222631e-01  1.516129e+00  5.930000e+00
   endloop
 endfacet
 facet normal -1.564345e-01  9.876883e-01  0.000000e+00
   outer loop
     vertex -1.620191e-01  1.541509e+00  1.093000e+01
     vertex -1.620191e-01  1.541509e+00  5.930000e+00
     vertex -3.222631e-01  1.516129e+00  5.930000e+00
   endloop
 endfacet
 facet normal -3.583679e-01  9.335804e-01  0.000000e+00
   outer loop
     vertex -6.304418e-01  1.415995e+00  1.093000e+01
     vertex -4.789763e-01  1.474138e+00  1.093000e+01
     vertex -4.789763e-01  1.474138e+00  5.930000e+00
   endloop
 endfacet
 facet normal -2.588190e-01  9.659258e-01  0.000000e+00
   outer loop
     vertex -4.789763e-01  1.474138e+00  1.093000e+01
     vertex -3.222631e-01  1.516129e+00  5.930000e+00
     vertex -4.789763e-01  1.474138e+00  5.930000e+00
   endloop
 endfacet
 facet normal -3.583679e-01  9.335804e-01  0.000000e+00
   outer loop
     vertex -6.304418e-01  1.415995e+00  1.093000e+01
     vertex -4.789763e-01  1.474138e+00  5.930000e+00
     vertex -6.304418e-01  1.415995e+00  5.930000e+00
   endloop
 endfacet
 facet normal -4.539905e-01  8.910065e-01  0.000000e+00
   outer loop
     vertex -7.750000e-01  1.342339e+00  1.093000e+01
     vertex -6.304418e-01  1.415995e+00  1.093000e+01
     vertex -6.304418e-01  1.415995e+00  5.930000e+00
   endloop
 endfacet
 facet normal -4.539905e-01  8.910065e-01  0.000000e+00
   outer loop
     vertex -7.750000e-01  1.342339e+00  1.093000e+01
     vertex -6.304418e-01  1.415995e+00  5.930000e+00
     vertex -7.750000e-01  1.342339e+00  5.930000e+00
   endloop
 endfacet
 facet normal -5.446390e-01  8.386706e-01  0.000000e+00
   outer loop
     vertex -9.110671e-01  1.253976e+00  1.093000e+01
     vertex -7.750000e-01  1.342339e+00  1.093000e+01
     vertex -7.750000e-01  1.342339e+00  5.930000e+00
   endloop
 endfacet
 facet normal -5.446390e-01  8.386706e-01  0.000000e+00
   outer loop
     vertex -9.110671e-01  1.253976e+00  1.093000e+01
     vertex -7.750000e-01  1.342339e+00  5.930000e+00
     vertex -9.110671e-01  1.253976e+00  5.930000e+00
   endloop
 endfacet
 facet normal -6.293204e-01  7.771460e-01  0.000000e+00
   outer loop
     vertex -1.037152e+00  1.151874e+00  1.093000e+01
     vertex -9.110671e-01  1.253976e+00  1.093000e+01
     vertex -9.110671e-01  1.253976e+00  5.930000e+00
   endloop
 endfacet
 facet normal -6.293204e-01  7.771460e-01  0.000000e+00
   outer loop
     vertex -1.037152e+00  1.151874e+00  1.093000e+01
     vertex -9.110671e-01  1.253976e+00  5.930000e+00
     vertex -1.037152e+00  1.151874e+00  5.930000e+00
   endloop
 endfacet
 facet normal -7.071068e-01  7.071068e-01  0.000000e+00
   outer loop
     vertex -1.151874e+00  1.037152e+00  1.093000e+01
     vertex -1.037152e+00  1.151874e+00  1.093000e+01
     vertex -1.037152e+00  1.151874e+00  5.930000e+00
   endloop
 endfacet
 facet normal -7.071068e-01  7.071068e-01  0.000000e+00
   outer loop
     vertex -1.151874e+00  1.037152e+00  1.093000e+01
     vertex -1.037152e+00  1.151874e+00  5.930000e+00
     vertex -1.151874e+00  1.037152e+00  5.930000e+00
   endloop
 endfacet
 facet normal -7.771460e-01  6.293204e-01  0.000000e+00
   outer loop
     vertex -1.253976e+00  9.110671e-01  1.093000e+01
     vertex -1.151874e+00  1.037152e+00  1.093000e+01
     vertex -1.151874e+00  1.037152e+00  5.930000e+00
   endloop
 endfacet
 facet normal -7.771460e-01  6.293204e-01  0.000000e+00
   outer loop
     vertex -1.253976e+00  9.110671e-01  1.093000e+01
     vertex -1.151874e+00  1.037152e+00  5.930000e+00
     vertex -1.253976e+00  9.110671e-01  5.930000e+00
   endloop
 endfacet
 facet normal -8.386706e-01  5.446390e-01  0.000000e+00
   outer loop
     vertex -1.342339e+00  7.750000e-01  1.093000e+01
     vertex -1.253976e+00  9.110671e-01  1.093000e+01
     vertex -1.253976e+00  9.110671e-01  5.930000e+00
   endloop
 endfacet
 facet normal -8.386706e-01  5.446390e-01  0.000000e+00
   outer loop
     vertex -1.342339e+00  7.750000e-01  1.093000e+01
     vertex -1.253976e+00  9.110671e-01  5.930000e+00
     vertex -1.342339e+00  7.750000e-01  5.930000e+00
   endloop
 endfacet
 facet normal -8.910065e-01  4.539905e-01  0.000000e+00
   outer loop
     vertex -1.415995e+00  6.304418e-01  1.093000e+01
     vertex -1.342339e+00  7.750000e-01  1.093000e+01
     vertex -1.342339e+00  7.750000e-01  5.930000e+00
   endloop
 endfacet
 facet normal -8.910065e-01  4.539905e-01  0.000000e+00
   outer loop
     vertex -1.415995e+00  6.304418e-01  1.093000e+01
     vertex -1.342339e+00  7.750000e-01  5.930000e+00
     vertex -1.415995e+00  6.304418e-01  5.930000e+00
   endloop
 endfacet
 facet normal -9.335804e-01  3.583679e-01  0.000000e+00
   outer loop
     vertex -1.415995e+00  6.304418e-01  1.093000e+01
     vertex -1.415995e+00  6.304418e-01  5.930000e+00
     vertex -1.474138e+00  4.789763e-01  5.930000e+00
   endloop
 endfacet
 facet normal -9.335804e-01  3.583679e-01  0.000000e+00
   outer loop
     vertex -1.474138e+00  4.789763e-01  1.093000e+01
     vertex -1.415995e+00  6.304418e-01  1.093000e+01
     vertex -1.474138e+00  4.789763e-01  5.930000e+00
   endloop
 endfacet
 facet normal -9.659258e-01  2.588190e-01  0.000000e+00
   outer loop
     vertex -1.474138e+00  4.789763e-01  1.093000e+01
     vertex -1.474138e+00  4.789763e-01  5.930000e+00
     vertex -1.516129e+00  3.222631e-01  5.930000e+00
   endloop
 endfacet
 facet normal -9.659258e-01  2.588190e-01  0.000000e+00
   outer loop
     vertex -1.516129e+00  3.222631e-01  1.093000e+01
     vertex -1.474138e+00  4.789763e-01  1.093000e+01
     vertex -1.516129e+00  3.222631e-01  5.930000e+00
   endloop
 endfacet
 facet normal -9.876883e-01  1.564345e-01  0.000000e+00
   outer loop
     vertex -1.541509e+00  1.620191e-01  1.093000e+01
     vertex -1.516129e+00  3.222631e-01  1.093000e+01
     vertex -1.516129e+00  3.222631e-01  5.930000e+00
   endloop
 endfacet
 facet normal -9.876883e-01  1.564345e-01  0.000000e+00
   outer loop
     vertex -1.541509e+00  1.620191e-01  1.093000e+01
     vertex -1.516129e+00  3.222631e-01  5.930000e+00
     vertex -1.541509e+00  1.620191e-01  5.930000e+00
   endloop
 endfacet
 facet normal -9.986295e-01  5.233596e-02  0.000000e+00
   outer loop
     vertex -1.550000e+00  8.781585e-16  1.093000e+01
     vertex -1.541509e+00  1.620191e-01  1.093000e+01
     vertex -1.541509e+00  1.620191e-01  5.930000e+00
   endloop
 endfacet
 facet normal -9.986295e-01  5.233596e-02  0.000000e+00
   outer loop
     vertex -1.550000e+00  8.781585e-16  1.093000e+01
     vertex -1.541509e+00  1.620191e-01  5.930000e+00
     vertex -1.550000e+00  8.781585e-16  5.930000e+00
   endloop
 endfacet
 facet normal -9.986295e-01 -5.233596e-02 -0.000000e+00
   outer loop
     vertex -1.550000e+00  8.781585e-16  1.093000e+01
     vertex -1.550000e+00  8.781585e-16  5.930000e+00
     vertex -1.541509e+00 -1.620191e-01  5.930000e+00
   endloop
 endfacet
 facet normal -9.986295e-01 -5.233596e-02  0.000000e+00
   outer loop
     vertex -1.541509e+00 -1.620191e-01  1.093000e+01
     vertex -1.550000e+00  8.781585e-16  1.093000e+01
     vertex -1.541509e+00 -1.620191e-01  5.930000e+00
   endloop
 endfacet
 facet normal -9.876883e-01 -1.564345e-01 -0.000000e+00
   outer loop
     vertex -1.541509e+00 -1.620191e-01  1.093000e+01
     vertex -1.541509e+00 -1.620191e-01  5.930000e+00
     vertex -1.516129e+00 -3.222631e-01  5.930000e+00
   endloop
 endfacet
 facet normal -9.876883e-01 -1.564345e-01  0.000000e+00
   outer loop
     vertex -1.516129e+00 -3.222631e-01  1.093000e+01
     vertex -1.541509e+00 -1.620191e-01  1.093000e+01
     vertex -1.516129e+00 -3.222631e-01  5.930000e+00
   endloop
 endfacet
 facet normal -9.659258e-01 -2.588190e-01 -0.000000e+00
   outer loop
     vertex -1.474138e+00 -4.789763e-01  1.093000e+01
     vertex -1.516129e+00 -3.222631e-01  1.093000e+01
     vertex -1.516129e+00 -3.222631e-01  5.930000e+00
   endloop
 endfacet
 facet normal -9.659258e-01 -2.588190e-01  0.000000e+00
   outer loop
     vertex -1.474138e+00 -4.789763e-01  1.093000e+01
     vertex -1.516129e+00 -3.222631e-01  5.930000e+00
     vertex -1.474138e+00 -4.789763e-01  5.930000e+00
   endloop
 endfacet
 facet normal -9.335804e-01 -3.583679e-01 -0.000000e+00
   outer loop
     vertex -1.474138e+00 -4.789763e-01  1.093000e+01
     vertex -1.474138e+00 -4.789763e-01  5.930000e+00
     vertex -1.415995e+00 -6.304418e-01  5.930000e+00
   endloop
 endfacet
 facet normal -9.335804e-01 -3.583679e-01  0.000000e+00
   outer loop
     vertex -1.415995e+00 -6.304418e-01  1.093000e+01
     vertex -1.474138e+00 -4.789763e-01  1.093000e+01
     vertex -1.415995e+00 -6.304418e-01  5.930000e+00
   endloop
 endfacet
 facet normal -8.910065e-01 -4.539905e-01 -0.000000e+00
   outer loop
     vertex -1.342339e+00 -7.750000e-01  1.093000e+01
     vertex -1.415995e+00 -6.304418e-01  1.093000e+01
     vertex -1.415995e+00 -6.304418e-01  5.930000e+00
   endloop
 endfacet
 facet normal -8.910065e-01 -4.539905e-01  0.000000e+00
   outer loop
     vertex -1.342339e+00 -7.750000e-01  1.093000e+01
     vertex -1.415995e+00 -6.304418e-01  5.930000e+00
     vertex -1.342339e+00 -7.750000e-01  5.930000e+00
   endloop
 endfacet
 facet normal -8.386706e-01 -5.446390e-01 -0.000000e+00
   outer loop
     vertex -1.253976e+00 -9.110671e-01  1.093000e+01
     vertex -1.342339e+00 -7.750000e-01  1.093000e+01
     vertex -1.342339e+00 -7.750000e-01  5.930000e+00
   endloop
 endfacet
 facet normal -8.386706e-01 -5.446390e-01  0.000000e+00
   outer loop
     vertex -1.253976e+00 -9.110671e-01  1.093000e+01
     vertex -1.342339e+00 -7.750000e-01  5.930000e+00
     vertex -1.253976e+00 -9.110671e-01  5.930000e+00
   endloop
 endfacet
 facet normal -7.771460e-01 -6.293204e-01 -0.000000e+00
   outer loop
     vertex -1.253976e+00 -9.110671e-01  1.093000e+01
     vertex -1.253976e+00 -9.110671e-01  5.930000e+00
     vertex -1.151874e+00 -1.037152e+00  5.930000e+00
   endloop
 endfacet
 facet normal -7.771460e-01 -6.293204e-01  0.000000e+00
   outer loop
     vertex -1.151874e+00 -1.037152e+00  1.093000e+01
     vertex -1.253976e+00 -9.110671e-01  1.093000e+01
     vertex -1.151874e+00 -1.037152e+00  5.930000e+00
   endloop
 endfacet
 facet normal -7.071068e-01 -7.071068e-01 -0.000000e+00
   outer loop
     vertex -1.037152e+00 -1.151874e+00  1.093000e+01
     vertex -1.151874e+00 -1.037152e+00  1.093000e+01
     vertex -1.151874e+00 -1.037152e+00  5.930000e+00
   endloop
 endfacet
 facet normal -7.071068e-01 -7.071068e-01  0.000000e+00
   outer loop
     vertex -1.037152e+00 -1.151874e+00  1.093000e+01
     vertex -1.151874e+00 -1.037152e+00  5.930000e+00
     vertex -1.037152e+00 -1.151874e+00  5.930000e+00
   endloop
 endfacet
 facet normal -6.293204e-01 -7.771460e-01 -0.000000e+00
   outer loop
     vertex -9.110671e-01 -1.253976e+00  1.093000e+01
     vertex -1.037152e+00 -1.151874e+00  1.093000e+01
     vertex -1.037152e+00 -1.151874e+00  5.930000e+00
   endloop
 endfacet
 facet normal -6.293204e-01 -7.771460e-01  0.000000e+00
   outer loop
     vertex -9.110671e-01 -1.253976e+00  1.093000e+01
     vertex -1.037152e+00 -1.151874e+00  5.930000e+00
     vertex -9.110671e-01 -1.253976e+00  5.930000e+00
   endloop
 endfacet
 facet normal -5.446390e-01 -8.386706e-01  0.000000e+00
   outer loop
     vertex -7.750000e-01 -1.342339e+00  1.093000e+01
     vertex -9.110671e-01 -1.253976e+00  1.093000e+01
     vertex -7.750000e-01 -1.342339e+00  5.930000e+00
   endloop
 endfacet
 facet normal -4.539905e-01 -8.910065e-01 -0.000000e+00
   outer loop
     vertex -6.304418e-01 -1.415995e+00  1.093000e+01
     vertex -7.750000e-01 -1.342339e+00  1.093000e+01
     vertex -7.750000e-01 -1.342339e+00  5.930000e+00
   endloop
 endfacet
 facet normal -5.446390e-01 -8.386706e-01 -0.000000e+00
   outer loop
     vertex -9.110671e-01 -1.253976e+00  1.093000e+01
     vertex -9.110671e-01 -1.253976e+00  5.930000e+00
     vertex -7.750000e-01 -1.342339e+00  5.930000e+00
   endloop
 endfacet
 facet normal -4.539905e-01 -8.910065e-01  0.000000e+00
   outer loop
     vertex -6.304418e-01 -1.415995e+00  1.093000e+01
     vertex -7.750000e-01 -1.342339e+00  5.930000e+00
     vertex -6.304418e-01 -1.415995e+00  5.930000e+00
   endloop
 endfacet
 facet normal -3.583679e-01 -9.335804e-01  0.000000e+00
   outer loop
     vertex -4.789763e-01 -1.474138e+00  1.093000e+01
     vertex -6.304418e-01 -1.415995e+00  1.093000e+01
     vertex -4.789763e-01 -1.474138e+00  5.930000e+00
   endloop
 endfacet
 facet normal -2.588190e-01 -9.659258e-01 -0.000000e+00
   outer loop
     vertex -3.222631e-01 -1.516129e+00  1.093000e+01
     vertex -4.789763e-01 -1.474138e+00  1.093000e+01
     vertex -4.789763e-01 -1.474138e+00  5.930000e+00
   endloop
 endfacet
 facet normal -3.583679e-01 -9.335804e-01 -0.000000e+00
   outer loop
     vertex -6.304418e-01 -1.415995e+00  1.093000e+01
     vertex -6.304418e-01 -1.415995e+00  5.930000e+00
     vertex -4.789763e-01 -1.474138e+00  5.930000e+00
   endloop
 endfacet
 facet normal -1.564345e-01 -9.876883e-01 -0.000000e+00
   outer loop
     vertex -1.620191e-01 -1.541509e+00  1.093000e+01
     vertex -3.222631e-01 -1.516129e+00  1.093000e+01
     vertex -3.222631e-01 -1.516129e+00  5.930000e+00
   endloop
 endfacet
 facet normal -2.588190e-01 -9.659258e-01  0.000000e+00
   outer loop
     vertex -3.222631e-01 -1.516129e+00  1.093000e+01
     vertex -4.789763e-01 -1.474138e+00  5.930000e+00
     vertex -3.222631e-01 -1.516129e+00  5.930000e+00
   endloop
 endfacet
 facet normal -1.564345e-01 -9.876883e-01  0.000000e+00
   outer loop
     vertex -1.620191e-01 -1.541509e+00  1.093000e+01
     vertex -3.222631e-01 -1.516129e+00  5.930000e+00
     vertex -1.620191e-01 -1.541509e+00  5.930000e+00
   endloop
 endfacet
 facet normal -5.233596e-02 -9.986295e-01 -0.000000e+00
   outer loop
     vertex -3.541193e-16 -1.550000e+00  1.093000e+01
     vertex -1.620191e-01 -1.541509e+00  1.093000e+01
     vertex -1.620191e-01 -1.541509e+00  5.930000e+00
   endloop
 endfacet
 facet normal -5.233596e-02 -9.986295e-01  0.000000e+00
   outer loop
     vertex -3.541193e-16 -1.550000e+00  1.093000e+01
     vertex -1.620191e-01 -1.541509e+00  5.930000e+00
     vertex -3.541193e-16 -1.550000e+00  5.930000e+00
   endloop
 endfacet
 facet normal  5.233596e-02 -9.986295e-01  0.000000e+00
   outer loop
     vertex  1.620191e-01 -1.541509e+00  1.093000e+01
     vertex -3.541193e-16 -1.550000e+00  1.093000e+01
     vertex  1.620191e-01 -1.541509e+00  5.930000e+00
   endloop
 endfacet
 facet normal  5.233596e-02 -9.986295e-01  0.000000e+00
   outer loop
     vertex -3.541193e-16 -1.550000e+00  1.093000e+01
     vertex -3.541193e-16 -1.550000e+00  5.930000e+00
     vertex  1.620191e-01 -1.541509e+00  5.930000e+00
   endloop
 endfacet
 facet normal  1.564345e-01 -9.876883e-01  0.000000e+00
   outer loop
     vertex  3.222631e-01 -1.516129e+00  1.093000e+01
     vertex  1.620191e-01 -1.541509e+00  1.093000e+01
     vertex  3.222631e-01 -1.516129e+00  5.930000e+00
   endloop
 endfacet
 facet normal  2.588190e-01 -9.659258e-01  0.000000e+00
   outer loop
     vertex  4.789763e-01 -1.474138e+00  1.093000e+01
     vertex  3.222631e-01 -1.516129e+00  1.093000e+01
     vertex  3.222631e-01 -1.516129e+00  5.930000e+00
   endloop
 endfacet
 facet normal  1.564345e-01 -9.876883e-01  0.000000e+00
   outer loop
     vertex  1.620191e-01 -1.541509e+00  1.093000e+01
     vertex  1.620191e-01 -1.541509e+00  5.930000e+00
     vertex  3.222631e-01 -1.516129e+00  5.930000e+00
   endloop
 endfacet
 facet normal  3.583679e-01 -9.335804e-01  0.000000e+00
   outer loop
     vertex  6.304418e-01 -1.415995e+00  1.093000e+01
     vertex  4.789763e-01 -1.474138e+00  1.093000e+01
     vertex  4.789763e-01 -1.474138e+00  5.930000e+00
   endloop
 endfacet
 facet normal  2.588190e-01 -9.659258e-01  0.000000e+00
   outer loop
     vertex  4.789763e-01 -1.474138e+00  1.093000e+01
     vertex  3.222631e-01 -1.516129e+00  5.930000e+00
     vertex  4.789763e-01 -1.474138e+00  5.930000e+00
   endloop
 endfacet
 facet normal  4.539905e-01 -8.910065e-01  0.000000e+00
   outer loop
     vertex  7.750000e-01 -1.342339e+00  1.093000e+01
     vertex  6.304418e-01 -1.415995e+00  1.093000e+01
     vertex  6.304418e-01 -1.415995e+00  5.930000e+00
   endloop
 endfacet
 facet normal  3.583679e-01 -9.335804e-01  0.000000e+00
   outer loop
     vertex  6.304418e-01 -1.415995e+00  1.093000e+01
     vertex  4.789763e-01 -1.474138e+00  5.930000e+00
     vertex  6.304418e-01 -1.415995e+00  5.930000e+00
   endloop
 endfacet
 facet normal  4.539905e-01 -8.910065e-01  0.000000e+00
   outer loop
     vertex  7.750000e-01 -1.342339e+00  1.093000e+01
     vertex  6.304418e-01 -1.415995e+00  5.930000e+00
     vertex  7.750000e-01 -1.342339e+00  5.930000e+00
   endloop
 endfacet
 facet normal  5.446390e-01 -8.386706e-01  0.000000e+00
   outer loop
     vertex  9.110671e-01 -1.253976e+00  1.093000e+01
     vertex  7.750000e-01 -1.342339e+00  1.093000e+01
     vertex  9.110671e-01 -1.253976e+00  5.930000e+00
   endloop
 endfacet
 facet normal  6.293204e-01 -7.771460e-01  0.000000e+00
   outer loop
     vertex  1.037152e+00 -1.151874e+00  1.093000e+01
     vertex  9.110671e-01 -1.253976e+00  1.093000e+01
     vertex  9.110671e-01 -1.253976e+00  5.930000e+00
   endloop
 endfacet
 facet normal  5.446390e-01 -8.386706e-01  0.000000e+00
   outer loop
     vertex  7.750000e-01 -1.342339e+00  1.093000e+01
     vertex  7.750000e-01 -1.342339e+00  5.930000e+00
     vertex  9.110671e-01 -1.253976e+00  5.930000e+00
   endloop
 endfacet
 facet normal  7.071068e-01 -7.071068e-01  0.000000e+00
   outer loop
     vertex  1.151874e+00 -1.037152e+00  1.093000e+01
     vertex  1.037152e+00 -1.151874e+00  1.093000e+01
     vertex  1.037152e+00 -1.151874e+00  5.930000e+00
   endloop
 endfacet
 facet normal  6.293204e-01 -7.771460e-01  0.000000e+00
   outer loop
     vertex  1.037152e+00 -1.151874e+00  1.093000e+01
     vertex  9.110671e-01 -1.253976e+00  5.930000e+00
     vertex  1.037152e+00 -1.151874e+00  5.930000e+00
   endloop
 endfacet
 facet normal  7.071068e-01 -7.071068e-01  0.000000e+00
   outer loop
     vertex  1.151874e+00 -1.037152e+00  1.093000e+01
     vertex  1.037152e+00 -1.151874e+00  5.930000e+00
     vertex  1.151874e+00 -1.037152e+00  5.930000e+00
   endloop
 endfacet
 facet normal  7.771460e-01 -6.293204e-01  0.000000e+00
   outer loop
     vertex  1.253976e+00 -9.110671e-01  1.093000e+01
     vertex  1.151874e+00 -1.037152e+00  1.093000e+01
     vertex  1.253976e+00 -9.110671e-01  5.930000e+00
   endloop
 endfacet
 facet normal  7.771460e-01 -6.293204e-01  0.000000e+00
   outer loop
     vertex  1.151874e+00 -1.037152e+00  1.093000e+01
     vertex  1.151874e+00 -1.037152e+00  5.930000e+00
     vertex  1.253976e+00 -9.110671e-01  5.930000e+00
   endloop
 endfacet
 facet normal  8.386706e-01 -5.446390e-01  0.000000e+00
   outer loop
     vertex  1.342339e+00 -7.750000e-01  1.093000e+01
     vertex  1.253976e+00 -9.110671e-01  1.093000e+01
     vertex  1.342339e+00 -7.750000e-01  5.930000e+00
   endloop
 endfacet
 facet normal  8.910065e-01 -4.539905e-01  0.000000e+00
   outer loop
     vertex  1.415995e+00 -6.304418e-01  1.093000e+01
     vertex  1.342339e+00 -7.750000e-01  1.093000e+01
     vertex  1.342339e+00 -7.750000e-01  5.930000e+00
   endloop
 endfacet
 facet normal  8.386706e-01 -5.446390e-01  0.000000e+00
   outer loop
     vertex  1.253976e+00 -9.110671e-01  1.093000e+01
     vertex  1.253976e+00 -9.110671e-01  5.930000e+00
     vertex  1.342339e+00 -7.750000e-01  5.930000e+00
   endloop
 endfacet
 facet normal  9.335804e-01 -3.583679e-01  0.000000e+00
   outer loop
     vertex  1.474138e+00 -4.789763e-01  1.093000e+01
     vertex  1.415995e+00 -6.304418e-01  1.093000e+01
     vertex  1.415995e+00 -6.304418e-01  5.930000e+00
   endloop
 endfacet
 facet normal  8.910065e-01 -4.539905e-01  0.000000e+00
   outer loop
     vertex  1.415995e+00 -6.304418e-01  1.093000e+01
     vertex  1.342339e+00 -7.750000e-01  5.930000e+00
     vertex  1.415995e+00 -6.304418e-01  5.930000e+00
   endloop
 endfacet
 facet normal  9.659258e-01 -2.588190e-01  0.000000e+00
   outer loop
     vertex  1.516129e+00 -3.222631e-01  1.093000e+01
     vertex  1.474138e+00 -4.789763e-01  1.093000e+01
     vertex  1.474138e+00 -4.789763e-01  5.930000e+00
   endloop
 endfacet
 facet normal  9.335804e-01 -3.583679e-01  0.000000e+00
   outer loop
     vertex  1.474138e+00 -4.789763e-01  1.093000e+01
     vertex  1.415995e+00 -6.304418e-01  5.930000e+00
     vertex  1.474138e+00 -4.789763e-01  5.930000e+00
   endloop
 endfacet
 facet normal  9.659258e-01 -2.588190e-01  0.000000e+00
   outer loop
     vertex  1.516129e+00 -3.222631e-01  1.093000e+01
     vertex  1.474138e+00 -4.789763e-01  5.930000e+00
     vertex  1.516129e+00 -3.222631e-01  5.930000e+00
   endloop
 endfacet
 facet normal  9.876883e-01 -1.564345e-01  0.000000e+00
   outer loop
     vertex  1.541509e+00 -1.620191e-01  1.093000e+01
     vertex  1.516129e+00 -3.222631e-01  1.093000e+01
     vertex  1.541509e+00 -1.620191e-01  5.930000e+00
   endloop
 endfacet
 facet normal  9.876883e-01 -1.564345e-01  0.000000e+00
   outer loop
     vertex  1.516129e+00 -3.222631e-01  1.093000e+01
     vertex  1.516129e+00 -3.222631e-01  5.930000e+00
     vertex  1.541509e+00 -1.620191e-01  5.930000e+00
   endloop
 endfacet
 facet normal  9.986295e-01 -5.233596e-02  0.000000e+00
   outer loop
     vertex  1.550000e+00  0.000000e+00  1.093000e+01
     vertex  1.541509e+00 -1.620191e-01  1.093000e+01
     vertex  1.550000e+00  0.000000e+00  5.930000e+00
   endloop
 endfacet
 facet normal  9.986295e-01 -5.233596e-02  0.000000e+00
   outer loop
     vertex  1.541509e+00 -1.620191e-01  1.093000e+01
     vertex  1.541509e+00 -1.620191e-01  5.930000e+00
     vertex  1.550000e+00  0.000000e+00  5.930000e+00
   endloop
 endfacet
 facet normal  0.000000e+00 -0.000000e+00 -1.000000e+00
   outer loop
     vertex  4.789763e-01 -1.474138e+00 -5.930000e+00
     vertex  1.037152e+00 -1.151874e+00 -5.930000e+00
     vertex  7.750000e-01 -1.342339e+00 -5.930000e+00
   endloop
 endfacet
 facet normal  0.000000e+00  0.000000e+00 -1.000000e+00
   outer loop
     vertex  1.516129e+00 -3.222631e-01 -5.930000e+00
     vertex  1.415995e+00 -6.304418e-01 -5.930000e+00
     vertex  1.253976e+00 -9.110671e-01 -5.930000e+00
   endloop
 endfacet
 facet normal  0.000000e+00 -0.000000e+00 -1.000000e+00
   outer loop
     vertex  1.620191e-01 -1.541509e+00 -5.930000e+00
     vertex  1.253976e+00 -9.110671e-01 -5.930000e+00
     vertex  1.037152e+00 -1.151874e+00 -5.930000e+00
   endloop
 endfacet
 facet normal  0.000000e+00 -0.000000e+00 -1.000000e+00
   outer loop
     vertex  1.620191e-01 -1.541509e+00 -5.930000e+00
     vertex  1.037152e+00 -1.151874e+00 -5.930000e+00
     vertex  4.789763e-01 -1.474138e+00 -5.930000e+00
   endloop
 endfacet
 facet normal  0.000000e+00 -0.000000e+00 -1.000000e+00
   outer loop
     vertex -1.620191e-01 -1.541509e+00 -5.930000e+00
     vertex  1.253976e+00 -9.110671e-01 -5.930000e+00
     vertex  1.620191e-01 -1.541509e+00 -5.930000e+00
   endloop
 endfacet
 facet normal  0.000000e+00  0.000000e+00 -1.000000e+00
   outer loop
     vertex  1.415995e+00  6.304418e-01 -5.930000e+00
     vertex  1.516129e+00  3.222631e-01 -5.930000e+00
     vertex  1.550000e+00  0.000000e+00 -5.930000e+00
   endloop
 endfacet
 facet normal  0.000000e+00 -0.000000e+00 -1.000000e+00
   outer loop
     vertex  1.415995e+00  6.304418e-01 -5.930000e+00
     vertex  1.550000e+00  0.000000e+00 -5.930000e+00
     vertex  1.516129e+00 -3.222631e-01 -5.930000e+00
   endloop
 endfacet
 facet normal -0.000000e+00 -0.000000e+00 -1.000000e+00
   outer loop
     vertex -1.253976e+00 -9.110671e-01 -5.930000e+00
     vertex -7.750000e-01 -1.342339e+00 -5.930000e+00
     vertex -1.037152e+00 -1.151874e+00 -5.930000e+00
   endloop
 endfacet
 facet normal  0.000000e+00  0.000000e+00 -1.000000e+00
   outer loop
     vertex  4.789763e-01  1.474138e+00 -5.930000e+00
     vertex  1.037152e+00  1.151874e+00 -5.930000e+00
     vertex  1.253976e+00  9.110671e-01 -5.930000e+00
   endloop
 endfacet
 facet normal  0.000000e+00  0.000000e+00 -1.000000e+00
   outer loop
     vertex  4.789763e-01  1.474138e+00 -5.930000e+00
     vertex  7.750000e-01  1.342339e+00 -5.930000e+00
     vertex  1.037152e+00  1.151874e+00 -5.930000e+00
   endloop
 endfacet
 facet normal  0.000000e+00  0.000000e+00 -1.000000e+00
   outer loop
     vertex  1.620191e-01  1.541509e+00 -5.930000e+00
     vertex  1.253976e+00  9.110671e-01 -5.930000e+00
     vertex  1.415995e+00  6.304418e-01 -5.930000e+00
   endloop
 endfacet
 facet normal -0.000000e+00  0.000000e+00 -1.000000e+00
   outer loop
     vertex  1.620191e-01  1.541509e+00 -5.930000e+00
     vertex -1.620191e-01 -1.541509e+00 -5.930000e+00
     vertex -4.789763e-01 -1.474138e+00 -5.930000e+00
   endloop
 endfacet
 facet normal  0.000000e+00 -0.000000e+00 -1.000000e+00
   outer loop
     vertex  1.620191e-01  1.541509e+00 -5.930000e+00
     vertex  1.516129e+00 -3.222631e-01 -5.930000e+00
     vertex  1.253976e+00 -9.110671e-01 -5.930000e+00
   endloop
 endfacet
 facet normal  0.000000e+00  0.000000e+00 -1.000000e+00
   outer loop
     vertex  1.620191e-01  1.541509e+00 -5.930000e+00
     vertex  1.415995e+00  6.304418e-01 -5.930000e+00
     vertex  1.516129e+00 -3.222631e-01 -5.930000e+00
   endloop
 endfacet
 facet normal  0.000000e+00 -0.000000e+00 -1.000000e+00
   outer loop
     vertex  1.620191e-01  1.541509e+00 -5.930000e+00
     vertex  1.253976e+00 -9.110671e-01 -5.930000e+00
     vertex -1.620191e-01 -1.541509e+00 -5.930000e+00
   endloop
 endfacet
 facet normal  0.000000e+00  0.000000e+00 -1.000000e+00
   outer loop
     vertex  1.620191e-01  1.541509e+00 -5.930000e+00
     vertex  4.789763e-01  1.474138e+00 -5.930000e+00
     vertex  1.253976e+00  9.110671e-01 -5.930000e+00
   endloop
 endfacet
 facet normal -0.000000e+00 -0.000000e+00 -1.000000e+00
   outer loop
     vertex -1.550000e+00  8.781585e-16 -5.930000e+00
     vertex -1.415995e+00 -6.304418e-01 -5.930000e+00
     vertex -1.516129e+00 -3.222631e-01 -5.930000e+00
   endloop
 endfacet
 facet normal -0.000000e+00 -0.000000e+00 -1.000000e+00
   outer loop
     vertex -1.550000e+00  8.781585e-16 -5.930000e+00
     vertex -1.253976e+00 -9.110671e-01 -5.930000e+00
     vertex -1.415995e+00 -6.304418e-01 -5.930000e+00
   endloop
 endfacet
 facet normal -0.000000e+00 -0.000000e+00 -1.000000e+00
   outer loop
     vertex -1.550000e+00  8.781585e-16 -5.930000e+00
     vertex -4.789763e-01 -1.474138e+00 -5.930000e+00
     vertex -7.750000e-01 -1.342339e+00 -5.930000e+00
   endloop
 endfacet
 facet normal -0.000000e+00 -0.000000e+00 -1.000000e+00
   outer loop
     vertex -1.550000e+00  8.781585e-16 -5.930000e+00
     vertex -7.750000e-01 -1.342339e+00 -5.930000e+00
     vertex -1.253976e+00 -9.110671e-01 -5.930000e+00
   endloop
 endfacet
 facet normal  0.000000e+00 -0.000000e+00 -1.000000e+00
   outer loop
     vertex -1.620191e-01  1.541509e+00 -5.930000e+00
     vertex  1.620191e-01  1.541509e+00 -5.930000e+00
     vertex -4.789763e-01 -1.474138e+00 -5.930000e+00
   endloop
 endfacet
 facet normal -0.000000e+00  0.000000e+00 -1.000000e+00
   outer loop
     vertex -1.620191e-01  1.541509e+00 -5.930000e+00
     vertex -4.789763e-01 -1.474138e+00 -5.930000e+00
     vertex -1.550000e+00  8.781585e-16 -5.930000e+00
   endloop
 endfacet
 facet normal  0.000000e+00 -0.000000e+00 -1.000000e+00
   outer loop
     vertex -1.516129e+00  3.222631e-01 -5.930000e+00
     vertex -1.620191e-01  1.541509e+00 -5.930000e+00
     vertex -1.550000e+00  8.781585e-16 -5.930000e+00
   endloop
 endfacet
 facet normal  0.000000e+00 -0.000000e+00 -1.000000e+00
   outer loop
     vertex -1.415995e+00  6.304418e-01 -5.930000e+00
     vertex -1.620191e-01  1.541509e+00 -5.930000e+00
     vertex -1.516129e+00  3.222631e-01 -5.930000e+00
   endloop
 endfacet
 facet normal  0.000000e+00 -0.000000e+00 -1.000000e+00
   outer loop
     vertex -1.253976e+00  9.110671e-01 -5.930000e+00
     vertex -1.620191e-01  1.541509e+00 -5.930000e+00
     vertex -1.415995e+00  6.304418e-01 -5.930000e+00
   endloop
 endfacet
 facet normal  0.000000e+00  0.000000e+00 -1.000000e+00
   outer loop
     vertex -1.037152e+00  1.151874e+00 -5.930000e+00
     vertex -4.789763e-01  1.474138e+00 -5.930000e+00
     vertex -1.620191e-01  1.541509e+00 -5.930000e+00
   endloop
 endfacet
 facet normal  0.000000e+00  0.000000e+00 -1.000000e+00
   outer loop
     vertex -1.037152e+00  1.151874e+00 -5.930000e+00
     vertex -7.750000e-01  1.342339e+00 -5.930000e+00
     vertex -4.789763e-01  1.474138e+00 -5.930000e+00
   endloop
 endfacet
 facet normal  0.000000e+00 -0.000000e+00 -1.000000e+00
   outer loop
     vertex -1.037152e+00  1.151874e+00 -5.930000e+00
     vertex -1.620191e-01  1.541509e+00 -5.930000e+00
     vertex -1.253976e+00  9.110671e-01 -5.930000e+00
   endloop
 endfacet
 facet normal  0.000000e+00  0.000000e+00  1.000000e+00
   outer loop
     vertex  1.037152e+00 -1.151874e+00  1.093000e+01
     vertex  1.151874e+00 -1.037152e+00  1.093000e+01
     vertex  1.253976e+00 -9.110671e-01  1.093000e+01
   endloop
 endfacet
 facet normal  0.000000e+00  0.000000e+00  1.000000e+00
   outer loop
     vertex  1.037152e+00  1.151874e+00  1.093000e+01
     vertex  9.110671e-01  1.253976e+00  1.093000e+01
     vertex  4.789763e-01  1.474138e+00  1.093000e+01
   endloop
 endfacet
 facet normal  0.000000e+00  0.000000e+00  1.000000e+00
   outer loop
     vertex  9.110671e-01  1.253976e+00  1.093000e+01
     vertex  7.750000e-01  1.342339e+00  1.093000e+01
     vertex  4.789763e-01  1.474138e+00  1.093000e+01
   endloop
 endfacet
 facet normal  0.000000e+00 -0.000000e+00  1.000000e+00
   outer loop
     vertex -6.304418e-01 -1.415995e+00  1.093000e+01
     vertex  1.541509e+00  1.620191e-01  1.093000e+01
     vertex  4.789763e-01  1.474138e+00  1.093000e+01
   endloop
 endfacet
 facet normal  0.000000e+00  0.000000e+00  1.000000e+00
   outer loop
     vertex  7.750000e-01  1.342339e+00  1.093000e+01
     vertex  6.304418e-01  1.415995e+00  1.093000e+01
     vertex  4.789763e-01  1.474138e+00  1.093000e+01
   endloop
 endfacet
 facet normal  0.000000e+00  0.000000e+00  1.000000e+00
   outer loop
     vertex  1.474138e+00  4.789763e-01  1.093000e+01
     vertex  1.037152e+00  1.151874e+00  1.093000e+01
     vertex  4.789763e-01  1.474138e+00  1.093000e+01
   endloop
 endfacet
 facet normal  0.000000e+00  0.000000e+00  1.000000e+00
   outer loop
     vertex  1.541509e+00  1.620191e-01  1.093000e+01
     vertex  1.474138e+00  4.789763e-01  1.093000e+01
     vertex  4.789763e-01  1.474138e+00  1.093000e+01
   endloop
 endfacet
 facet normal -0.000000e+00 -0.000000e+00  1.000000e+00
   outer loop
     vertex -9.110671e-01 -1.253976e+00  1.093000e+01
     vertex -6.304418e-01 -1.415995e+00  1.093000e+01
     vertex -1.474138e+00 -4.789763e-01  1.093000e+01
   endloop
 endfacet
 facet normal  0.000000e+00 -0.000000e+00  1.000000e+00
   outer loop
     vertex -6.304418e-01 -1.415995e+00  1.093000e+01
     vertex  4.789763e-01  1.474138e+00  1.093000e+01
     vertex -1.474138e+00 -4.789763e-01  1.093000e+01
   endloop
 endfacet
 facet normal -0.000000e+00 -0.000000e+00  1.000000e+00
   outer loop
     vertex -1.253976e+00 -9.110671e-01  1.093000e+01
     vertex -9.110671e-01 -1.253976e+00  1.093000e+01
     vertex -1.474138e+00 -4.789763e-01  1.093000e+01
   endloop
 endfacet
 facet normal -0.000000e+00 -0.000000e+00  1.000000e+00
   outer loop
     vertex -1.415995e+00 -6.304418e-01  1.093000e+01
     vertex -1.342339e+00 -7.750000e-01  1.093000e+01
     vertex -1.474138e+00 -4.789763e-01  1.093000e+01
   endloop
 endfacet
 facet normal -0.000000e+00 -0.000000e+00  1.000000e+00
   outer loop
     vertex -1.342339e+00 -7.750000e-01  1.093000e+01
     vertex -1.253976e+00 -9.110671e-01  1.093000e+01
     vertex -1.474138e+00 -4.789763e-01  1.093000e+01
   endloop
 endfacet
 facet normal  0.000000e+00 -0.000000e+00  1.000000e+00
   outer loop
     vertex  7.750000e-01 -1.342339e+00  1.093000e+01
     vertex  9.110671e-01 -1.253976e+00  1.093000e+01
     vertex  6.304418e-01 -1.415995e+00  1.093000e+01
   endloop
 endfacet
 facet normal  0.000000e+00 -0.000000e+00  1.000000e+00
   outer loop
     vertex  9.110671e-01 -1.253976e+00  1.093000e+01
     vertex  1.037152e+00 -1.151874e+00  1.093000e+01
     vertex  6.304418e-01 -1.415995e+00  1.093000e+01
   endloop
 endfacet
 facet normal  0.000000e+00 -0.000000e+00  1.000000e+00
   outer loop
     vertex  1.037152e+00 -1.151874e+00  1.093000e+01
     vertex  1.253976e+00 -9.110671e-01  1.093000e+01
     vertex  6.304418e-01 -1.415995e+00  1.093000e+01
   endloop
 endfacet
 facet normal  0.000000e+00  0.000000e+00  1.000000e+00
   outer loop
     vertex  4.789763e-01  1.474138e+00  1.093000e+01
     vertex  3.222631e-01  1.516129e+00  1.093000e+01
     vertex  1.620191e-01  1.541509e+00  1.093000e+01
   endloop
 endfacet
 facet normal  0.000000e+00 -0.000000e+00  1.000000e+00
   outer loop
     vertex -1.474138e+00 -4.789763e-01  1.093000e+01
     vertex  4.789763e-01  1.474138e+00  1.093000e+01
     vertex -1.541509e+00 -1.620191e-01  1.093000e+01
   endloop
 endfacet
 facet normal -0.000000e+00 -0.000000e+00  1.000000e+00
   outer loop
     vertex -1.516129e+00 -3.222631e-01  1.093000e+01
     vertex -1.474138e+00 -4.789763e-01  1.093000e+01
     vertex -1.541509e+00 -1.620191e-01  1.093000e+01
   endloop
 endfacet
 facet normal  0.000000e+00  0.000000e+00  1.000000e+00
   outer loop
     vertex  4.789763e-01  1.474138e+00  1.093000e+01
     vertex  1.620191e-01  1.541509e+00  1.093000e+01
     vertex  2.552119e-17  1.550000e+00  1.093000e+01
   endloop
 endfacet
 facet normal  0.000000e+00  0.000000e+00  1.000000e+00
   outer loop
     vertex  1.253976e+00 -9.110671e-01  1.093000e+01
     vertex  1.342339e+00 -7.750000e-01  1.093000e+01
     vertex  1.516129e+00 -3.222631e-01  1.093000e+01
   endloop
 endfacet
 facet normal  0.000000e+00  0.000000e+00  1.000000e+00
   outer loop
     vertex  1.342339e+00 -7.750000e-01  1.093000e+01
     vertex  1.415995e+00 -6.304418e-01  1.093000e+01
     vertex  1.516129e+00 -3.222631e-01  1.093000e+01
   endloop
 endfacet
 facet normal  0.000000e+00  0.000000e+00  1.000000e+00
   outer loop
     vertex  1.415995e+00 -6.304418e-01  1.093000e+01
     vertex  1.474138e+00 -4.789763e-01  1.093000e+01
     vertex  1.516129e+00 -3.222631e-01  1.093000e+01
   endloop
 endfacet
 facet normal  0.000000e+00 -0.000000e+00  1.000000e+00
   outer loop
     vertex  3.222631e-01 -1.516129e+00  1.093000e+01
     vertex  4.789763e-01 -1.474138e+00  1.093000e+01
     vertex  1.620191e-01 -1.541509e+00  1.093000e+01
   endloop
 endfacet
 facet normal  0.000000e+00 -0.000000e+00  1.000000e+00
   outer loop
     vertex  4.789763e-01 -1.474138e+00  1.093000e+01
     vertex  6.304418e-01 -1.415995e+00  1.093000e+01
     vertex  1.620191e-01 -1.541509e+00  1.093000e+01
   endloop
 endfacet
 facet normal  0.000000e+00 -0.000000e+00  1.000000e+00
   outer loop
     vertex  6.304418e-01 -1.415995e+00  1.093000e+01
     vertex  1.253976e+00 -9.110671e-01  1.093000e+01
     vertex  1.620191e-01 -1.541509e+00  1.093000e+01
   endloop
 endfacet
 facet normal -0.000000e+00  0.000000e+00  1.000000e+00
   outer loop
     vertex -1.516129e+00  3.222631e-01  1.093000e+01
     vertex -1.541509e+00  1.620191e-01  1.093000e+01
     vertex -1.474138e+00  4.789763e-01  1.093000e+01
   endloop
 endfacet
 facet normal -0.000000e+00  0.000000e+00  1.000000e+00
   outer loop
     vertex -1.541509e+00  1.620191e-01  1.093000e+01
     vertex -1.550000e+00  8.781585e-16  1.093000e+01
     vertex -1.474138e+00  4.789763e-01  1.093000e+01
   endloop
 endfacet
 facet normal -0.000000e+00  0.000000e+00  1.000000e+00
   outer loop
     vertex -1.550000e+00  8.781585e-16  1.093000e+01
     vertex -1.541509e+00 -1.620191e-01  1.093000e+01
     vertex -1.474138e+00  4.789763e-01  1.093000e+01
   endloop
 endfacet
 facet normal  0.000000e+00  0.000000e+00  1.000000e+00
   outer loop
     vertex  2.552119e-17  1.550000e+00  1.093000e+01
     vertex -1.620191e-01  1.541509e+00  1.093000e+01
     vertex -4.789763e-01  1.474138e+00  1.093000e+01
   endloop
 endfacet
 facet normal  0.000000e+00  0.000000e+00  1.000000e+00
   outer loop
     vertex -1.620191e-01  1.541509e+00  1.093000e+01
     vertex -3.222631e-01  1.516129e+00  1.093000e+01
     vertex -4.789763e-01  1.474138e+00  1.093000e+01
   endloop
 endfacet
 facet normal  0.000000e+00  0.000000e+00  1.000000e+00
   outer loop
     vertex  4.789763e-01  1.474138e+00  1.093000e+01
     vertex  2.552119e-17  1.550000e+00  1.093000e+01
     vertex -4.789763e-01  1.474138e+00  1.093000e+01
   endloop
 endfacet
 facet normal  0.000000e+00 -0.000000e+00  1.000000e+00
   outer loop
     vertex -1.541509e+00 -1.620191e-01  1.093000e+01
     vertex  4.789763e-01  1.474138e+00  1.093000e+01
     vertex -4.789763e-01  1.474138e+00  1.093000e+01
   endloop
 endfacet
 facet normal -0.000000e+00  0.000000e+00  1.000000e+00
   outer loop
     vertex -1.474138e+00  4.789763e-01  1.093000e+01
     vertex -1.541509e+00 -1.620191e-01  1.093000e+01
     vertex -4.789763e-01  1.474138e+00  1.093000e+01
   endloop
 endfacet
 facet normal  0.000000e+00 -0.000000e+00  1.000000e+00
   outer loop
     vertex  1.516129e+00 -3.222631e-01  1.093000e+01
     vertex  1.541509e+00 -1.620191e-01  1.093000e+01
     vertex  1.541509e+00  1.620191e-01  1.093000e+01
   endloop
 endfacet
 facet normal  0.000000e+00 -0.000000e+00  1.000000e+00
   outer loop
     vertex  1.541509e+00 -1.620191e-01  1.093000e+01
     vertex  1.550000e+00  0.000000e+00  1.093000e+01
     vertex  1.541509e+00  1.620191e-01  1.093000e+01
   endloop
 endfacet
 facet normal  0.000000e+00  0.000000e+00  1.000000e+00
   outer loop
     vertex  1.253976e+00 -9.110671e-01  1.093000e+01
     vertex  1.516129e+00 -3.222631e-01  1.093000e+01
     vertex  1.541509e+00  1.620191e-01  1.093000e+01
   endloop
 endfacet
 facet normal  0.000000e+00  0.000000e+00  1.000000e+00
   outer loop
     vertex  1.620191e-01 -1.541509e+00  1.093000e+01
     vertex  1.253976e+00 -9.110671e-01  1.093000e+01
     vertex  1.541509e+00  1.620191e-01  1.093000e+01
   endloop
 endfacet
 facet normal  0.000000e+00  0.000000e+00  1.000000e+00
   outer loop
     vertex -4.789763e-01  1.474138e+00  1.093000e+01
     vertex -6.304418e-01  1.415995e+00  1.093000e+01
     vertex -7.750000e-01  1.342339e+00  1.093000e+01
   endloop
 endfacet
 facet normal  0.000000e+00 -0.000000e+00  1.000000e+00
   outer loop
     vertex -3.541193e-16 -1.550000e+00  1.093000e+01
     vertex  1.620191e-01 -1.541509e+00  1.093000e+01
     vertex -1.620191e-01 -1.541509e+00  1.093000e+01
   endloop
 endfacet
 facet normal -0.000000e+00  0.000000e+00  1.000000e+00
   outer loop
     vertex -1.342339e+00  7.750000e-01  1.093000e+01
     vertex -1.415995e+00  6.304418e-01  1.093000e+01
     vertex -1.253976e+00  9.110671e-01  1.093000e+01
   endloop
 endfacet
 facet normal -0.000000e+00  0.000000e+00  1.000000e+00
   outer loop
     vertex -1.415995e+00  6.304418e-01  1.093000e+01
     vertex -1.474138e+00  4.789763e-01  1.093000e+01
     vertex -1.253976e+00  9.110671e-01  1.093000e+01
   endloop
 endfacet
 facet normal  0.000000e+00 -0.000000e+00  1.000000e+00
   outer loop
     vertex -1.474138e+00  4.789763e-01  1.093000e+01
     vertex -4.789763e-01  1.474138e+00  1.093000e+01
     vertex -1.253976e+00  9.110671e-01  1.093000e+01
   endloop
 endfacet
 facet normal  0.000000e+00  0.000000e+00  1.000000e+00
   outer loop
     vertex -4.789763e-01  1.474138e+00  1.093000e+01
     vertex -7.750000e-01  1.342339e+00  1.093000e+01
     vertex -1.253976e+00  9.110671e-01  1.093000e+01
   endloop
 endfacet
 facet normal -0.000000e+00 -0.000000e+00  1.000000e+00
   outer loop
     vertex -1.620191e-01 -1.541509e+00  1.093000e+01
     vertex  1.620191e-01 -1.541509e+00  1.093000e+01
     vertex -3.222631e-01 -1.516129e+00  1.093000e+01
   endloop
 endfacet
 facet normal  0.000000e+00  0.000000e+00  1.000000e+00
   outer loop
     vertex  1.541509e+00  1.620191e-01  1.093000e+01
     vertex  1.516129e+00  3.222631e-01  1.093000e+01
     vertex  1.474138e+00  4.789763e-01  1.093000e+01
   endloop
 endfacet
 facet normal  0.000000e+00  0.000000e+00  1.000000e+00
   outer loop
     vertex -7.750000e-01  1.342339e+00  1.093000e+01
     vertex -9.110671e-01  1.253976e+00  1.093000e+01
     vertex -1.037152e+00  1.151874e+00  1.093000e+01
   endloop
 endfacet
 facet normal  0.000000e+00 -0.000000e+00  1.000000e+00
   outer loop
     vertex -1.253976e+00  9.110671e-01  1.093000e+01
     vertex -7.750000e-01  1.342339e+00  1.093000e+01
     vertex -1.037152e+00  1.151874e+00  1.093000e+01
   endloop
 endfacet
 facet normal  0.000000e+00 -0.000000e+00  1.000000e+00
   outer loop
     vertex -1.253976e+00  9.110671e-01  1.093000e+01
     vertex -1.037152e+00  1.151874e+00  1.093000e+01
     vertex -1.151874e+00  1.037152e+00  1.093000e+01
   endloop
 endfacet
 facet normal -0.000000e+00 -0.000000e+00  1.000000e+00
   outer loop
     vertex -3.222631e-01 -1.516129e+00  1.093000e+01
     vertex  1.620191e-01 -1.541509e+00  1.093000e+01
     vertex -6.304418e-01 -1.415995e+00  1.093000e+01
   endloop
 endfacet
 facet normal -0.000000e+00 -0.000000e+00  1.000000e+00
   outer loop
     vertex -4.789763e-01 -1.474138e+00  1.093000e+01
     vertex -3.222631e-01 -1.516129e+00  1.093000e+01
     vertex -6.304418e-01 -1.415995e+00  1.093000e+01
   endloop
 endfacet
 facet normal  0.000000e+00 -0.000000e+00  1.000000e+00
   outer loop
     vertex  1.620191e-01 -1.541509e+00  1.093000e+01
     vertex  1.541509e+00  1.620191e-01  1.093000e+01
     vertex -6.304418e-01 -1.415995e+00  1.093000e+01
   endloop
 endfacet
 facet normal  0.000000e+00  0.000000e+00  1.000000e+00
   outer loop
     vertex  1.415995e+00  6.304418e-01  1.093000e+01
     vertex  1.342339e+00  7.750000e-01  1.093000e+01
     vertex  1.253976e+00  9.110671e-01  1.093000e+01
   endloop
 endfacet
 facet normal -0.000000e+00 -0.000000e+00  1.000000e+00
   outer loop
     vertex -7.750000e-01 -1.342339e+00  1.093000e+01
     vertex -6.304418e-01 -1.415995e+00  1.093000e+01
     vertex -9.110671e-01 -1.253976e+00  1.093000e+01
   endloop
 endfacet
 facet normal  0.000000e+00  0.000000e+00  1.000000e+00
   outer loop
     vertex  1.474138e+00  4.789763e-01  1.093000e+01
     vertex  1.415995e+00  6.304418e-01  1.093000e+01
     vertex  1.037152e+00  1.151874e+00  1.093000e+01
   endloop
 endfacet
 facet normal  0.000000e+00  0.000000e+00  1.000000e+00
   outer loop
     vertex  1.415995e+00  6.304418e-01  1.093000e+01
     vertex  1.253976e+00  9.110671e-01  1.093000e+01
     vertex  1.037152e+00  1.151874e+00  1.093000e+01
   endloop
 endfacet
 facet normal  0.000000e+00  0.000000e+00  1.000000e+00
   outer loop
     vertex  1.253976e+00  9.110671e-01  1.093000e+01
     vertex  1.151874e+00  1.037152e+00  1.093000e+01
     vertex  1.037152e+00  1.151874e+00  1.093000e+01
   endloop
 endfacet
 facet normal -0.000000e+00 -0.000000e+00  1.000000e+00
   outer loop
     vertex -1.037152e+00 -1.151874e+00  1.093000e+01
     vertex -9.110671e-01 -1.253976e+00  1.093000e+01
     vertex -1.151874e+00 -1.037152e+00  1.093000e+01
   endloop
 endfacet
 facet normal -0.000000e+00 -0.000000e+00  1.000000e+00
   outer loop
     vertex -1.151874e+00 -1.037152e+00  1.093000e+01
     vertex -9.110671e-01 -1.253976e+00  1.093000e+01
     vertex -1.253976e+00 -9.110671e-01  1.093000e+01
   endloop
 endfacet
endsolid
