solid
 facet normal -1.000000e+00 -0.000000e+00 -0.000000e+00
   outer loop
     vertex -5.250000e+00  4.100000e+00  5.930000e+00
     vertex -5.250000e+00  4.100000e+00 -5.930000e+00
     vertex -5.250000e+00 -4.100000e+00  5.930000e+00
   endloop
 endfacet
 facet normal -1.000000e+00  0.000000e+00  0.000000e+00
   outer loop
     vertex -5.250000e+00  4.100000e+00 -5.930000e+00
     vertex -5.250000e+00 -4.100000e+00 -5.930000e+00
     vertex -5.250000e+00 -4.100000e+00  5.930000e+00
   endloop
 endfacet
 facet normal  0.000000e+00 -1.000000e+00  0.000000e+00
   outer loop
     vertex -5.250000e+00 -4.100000e+00 -5.930000e+00
     vertex  5.250000e+00 -4.100000e+00 -5.930000e+00
     vertex -5.250000e+00 -4.100000e+00  5.930000e+00
   endloop
 endfacet
 facet normal  0.000000e+00 -1.000000e+00  0.000000e+00
   outer loop
     vertex -5.250000e+00 -4.100000e+00  5.930000e+00
     vertex  5.250000e+00 -4.100000e+00 -5.930000e+00
     vertex  5.250000e+00 -4.100000e+00  5.930000e+00
   endloop
 endfacet
 facet normal -0.000000e+00  0.000000e+00  1.000000e+00
   outer loop
     vertex -1.253976e+00 -9.110671e-01  5.930000e+00
     vertex -5.250000e+00 -4.100000e+00  5.930000e+00
     vertex -9.880072e-01 -1.194296e+00  5.930000e+00
   endloop
 endfacet
 facet normal  0.000000e+00  0.000000e+00  1.000000e+00
   outer loop
     vertex -6.599579e-01 -1.402482e+00  5.930000e+00
     vertex -9.880072e-01 -1.194296e+00  5.930000e+00
     vertex -5.250000e+00 -4.100000e+00  5.930000e+00
   endloop
 endfacet
 facet normal -0.000000e+00  0.000000e+00  1.000000e+00
   outer loop
     vertex -1.441154e+00 -5.705931e-01  5.930000e+00
     vertex -5.250000e+00 -4.100000e+00  5.930000e+00
     vertex -1.253976e+00 -9.110671e-01  5.930000e+00
   endloop
 endfacet
 facet normal  0.000000e+00  0.000000e+00  1.000000e+00
   outer loop
     vertex -2.904410e-01 -1.522545e+00  5.930000e+00
     vertex -6.599579e-01 -1.402482e+00  5.930000e+00
     vertex -5.250000e+00 -4.100000e+00  5.930000e+00
   endloop
 endfacet
 facet normal -0.000000e+00  0.000000e+00  1.000000e+00
   outer loop
     vertex -1.537778e+00 -1.942665e-01  5.930000e+00
     vertex -5.250000e+00 -4.100000e+00  5.930000e+00
     vertex -1.441154e+00 -5.705931e-01  5.930000e+00
   endloop
 endfacet
 facet normal  0.000000e+00  0.000000e+00  1.000000e+00
   outer loop
     vertex  9.732531e-02 -1.546941e+00  5.930000e+00
     vertex -2.904410e-01 -1.522545e+00  5.930000e+00
     vertex -5.250000e+00 -4.100000e+00  5.930000e+00
   endloop
 endfacet
 facet normal -0.000000e+00  0.000000e+00  1.000000e+00
   outer loop
     vertex -5.250000e+00  4.100000e+00  5.930000e+00
     vertex -1.537778e+00 -1.942665e-01  5.930000e+00
     vertex -1.537778e+00  1.942665e-01  5.930000e+00
   endloop
 endfacet
 facet normal -0.000000e+00  0.000000e+00  1.000000e+00
   outer loop
     vertex -5.250000e+00  4.100000e+00  5.930000e+00
     vertex -5.250000e+00 -4.100000e+00  5.930000e+00
     vertex -1.537778e+00 -1.942665e-01  5.930000e+00
   endloop
 endfacet
 facet normal  0.000000e+00  0.000000e+00  1.000000e+00
   outer loop
     vertex -1.441154e+00  5.705931e-01  5.930000e+00
     vertex -5.250000e+00  4.100000e+00  5.930000e+00
     vertex -1.537778e+00  1.942665e-01  5.930000e+00
   endloop
 endfacet
 facet normal  0.000000e+00  0.000000e+00  1.000000e+00
   outer loop
     vertex -1.253976e+00  9.110671e-01  5.930000e+00
     vertex -5.250000e+00  4.100000e+00  5.930000e+00
     vertex -1.441154e+00  5.705931e-01  5.930000e+00
   endloop
 endfacet
 facet normal  0.000000e+00  0.000000e+00  1.000000e+00
   outer loop
     vertex -9.880072e-01  1.194296e+00  5.930000e+00
     vertex -5.250000e+00  4.100000e+00  5.930000e+00
     vertex -1.253976e+00  9.110671e-01  5.930000e+00
   endloop
 endfacet
 facet normal  0.000000e+00  0.000000e+00  1.000000e+00
   outer loop
     vertex -6.599579e-01  1.402482e+00  5.930000e+00
     vertex -5.250000e+00  4.100000e+00  5.930000e+00
     vertex -9.880072e-01  1.194296e+00  5.930000e+00
   endloop
 endfacet
 facet normal  0.000000e+00  0.000000e+00  1.000000e+00
   outer loop
     vertex  5.250000e+00 -4.100000e+00  5.930000e+00
     vertex  4.789763e-01 -1.474138e+00  5.930000e+00
     vertex  9.732531e-02 -1.546941e+00  5.930000e+00
   endloop
 endfacet
 facet normal  0.000000e+00  0.000000e+00  1.000000e+00
   outer loop
     vertex  5.250000e+00 -4.100000e+00  5.930000e+00
     vertex  8.305315e-01 -1.308708e+00  5.930000e+00
     vertex  4.789763e-01 -1.474138e+00  5.930000e+00
   endloop
 endfacet
 facet normal  0.000000e+00  0.000000e+00  1.000000e+00
   outer loop
     vertex  5.250000e+00 -4.100000e+00  5.930000e+00
     vertex  1.129901e+00 -1.061048e+00  5.930000e+00
     vertex  8.305315e-01 -1.308708e+00  5.930000e+00
   endloop
 endfacet
 facet normal  0.000000e+00  0.000000e+00  1.000000e+00
   outer loop
     vertex  5.250000e+00 -4.100000e+00  5.930000e+00
     vertex  1.358275e+00 -7.467182e-01  5.930000e+00
     vertex  1.129901e+00 -1.061048e+00  5.930000e+00
   endloop
 endfacet
 facet normal  0.000000e+00  0.000000e+00  1.000000e+00
   outer loop
     vertex  5.250000e+00 -4.100000e+00  5.930000e+00
     vertex  1.501304e+00 -3.854693e-01  5.930000e+00
     vertex  1.358275e+00 -7.467182e-01  5.930000e+00
   endloop
 endfacet
 facet normal  0.000000e+00  0.000000e+00  1.000000e+00
   outer loop
     vertex  5.250000e+00 -4.100000e+00  5.930000e+00
     vertex  9.732531e-02 -1.546941e+00  5.930000e+00
     vertex -5.250000e+00 -4.100000e+00  5.930000e+00
   endloop
 endfacet
 facet normal  0.000000e+00  0.000000e+00  1.000000e+00
   outer loop
     vertex -2.904410e-01  1.522545e+00  5.930000e+00
     vertex -5.250000e+00  4.100000e+00  5.930000e+00
     vertex -6.599579e-01  1.402482e+00  5.930000e+00
   endloop
 endfacet
 facet normal  0.000000e+00  0.000000e+00  1.000000e+00
   outer loop
     vertex  1.550000e+00  0.000000e+00  5.930000e+00
     vertex  1.501304e+00 -3.854693e-01  5.930000e+00
     vertex  5.250000e+00 -4.100000e+00  5.930000e+00
   endloop
 endfacet
 facet normal  0.000000e+00  0.000000e+00  1.000000e+00
   outer loop
     vertex  9.732531e-02  1.546941e+00  5.930000e+00
     vertex -5.250000e+00  4.100000e+00  5.930000e+00
     vertex -2.904410e-01  1.522545e+00  5.930000e+00
   endloop
 endfacet
 facet normal  0.000000e+00  0.000000e+00  1.000000e+00
   outer loop
     vertex  5.250000e+00  4.100000e+00  5.930000e+00
     vertex  1.501304e+00  3.854693e-01  5.930000e+00
     vertex  1.550000e+00  0.000000e+00  5.930000e+00
   endloop
 endfacet
 facet normal  0.000000e+00  0.000000e+00  1.000000e+00
   outer loop
     vertex  5.250000e+00  4.100000e+00  5.930000e+00
     vertex  1.358275e+00  7.467182e-01  5.930000e+00
     vertex  1.501304e+00  3.854693e-01  5.930000e+00
   endloop
 endfacet
 facet normal  0.000000e+00  0.000000e+00  1.000000e+00
   outer loop
     vertex  5.250000e+00  4.100000e+00  5.930000e+00
     vertex  1.129901e+00  1.061048e+00  5.930000e+00
     vertex  1.358275e+00  7.467182e-01  5.930000e+00
   endloop
 endfacet
 facet normal  0.000000e+00  0.000000e+00  1.000000e+00
   outer loop
     vertex  5.250000e+00  4.100000e+00  5.930000e+00
     vertex  8.305315e-01  1.308708e+00  5.930000e+00
     vertex  1.129901e+00  1.061048e+00  5.930000e+00
   endloop
 endfacet
 facet normal  0.000000e+00  0.000000e+00  1.000000e+00
   outer loop
     vertex  5.250000e+00  4.100000e+00  5.930000e+00
     vertex  4.789763e-01  1.474138e+00  5.930000e+00
     vertex  8.305315e-01  1.308708e+00  5.930000e+00
   endloop
 endfacet
 facet normal  0.000000e+00  0.000000e+00  1.000000e+00
   outer loop
     vertex  5.250000e+00  4.100000e+00  5.930000e+00
     vertex  9.732531e-02  1.546941e+00  5.930000e+00
     vertex  4.789763e-01  1.474138e+00  5.930000e+00
   endloop
 endfacet
 facet normal  0.000000e+00  0.000000e+00  1.000000e+00
   outer loop
     vertex  5.250000e+00  4.100000e+00  5.930000e+00
     vertex  1.550000e+00  0.000000e+00  5.930000e+00
     vertex  5.250000e+00 -4.100000e+00  5.930000e+00
   endloop
 endfacet
 facet normal  0.000000e+00  0.000000e+00  1.000000e+00
   outer loop
     vertex  5.250000e+00  4.100000e+00  5.930000e+00
     vertex -5.250000e+00  4.100000e+00  5.930000e+00
     vertex  9.732531e-02  1.546941e+00  5.930000e+00
   endloop
 endfacet
 facet normal  0.000000e+00  1.000000e+00  0.000000e+00
   outer loop
     vertex -5.250000e+00  4.100000e+00  5.930000e+00
     vertex  5.250000e+00  4.100000e+00 -5.930000e+00
     vertex -5.250000e+00  4.100000e+00 -5.930000e+00
   endloop
 endfacet
 facet normal  0.000000e+00  1.000000e+00  0.000000e+00
   outer loop
     vertex  5.250000e+00  4.100000e+00  5.930000e+00
     vertex  5.250000e+00  4.100000e+00 -5.930000e+00
     vertex -5.250000e+00  4.100000e+00  5.930000e+00
   endloop
 endfacet
 facet normal -0.000000e+00  0.000000e+00 -1.000000e+00
   outer loop
     vertex -9.880072e-01 -1.194296e+00 -5.930000e+00
     vertex -5.250000e+00 -4.100000e+00 -5.930000e+00
     vertex -1.253976e+00 -9.110671e-01 -5.930000e+00
   endloop
 endfacet
 facet normal  0.000000e+00  0.000000e+00 -1.000000e+00
   outer loop
     vertex -5.250000e+00 -4.100000e+00 -5.930000e+00
     vertex -9.880072e-01 -1.194296e+00 -5.930000e+00
     vertex -6.599579e-01 -1.402482e+00 -5.930000e+00
   endloop
 endfacet
 facet normal -0.000000e+00  0.000000e+00 -1.000000e+00
   outer loop
     vertex -1.253976e+00 -9.110671e-01 -5.930000e+00
     vertex -5.250000e+00 -4.100000e+00 -5.930000e+00
     vertex -1.441154e+00 -5.705931e-01 -5.930000e+00
   endloop
 endfacet
 facet normal  0.000000e+00  0.000000e+00 -1.000000e+00
   outer loop
     vertex -5.250000e+00 -4.100000e+00 -5.930000e+00
     vertex -6.599579e-01 -1.402482e+00 -5.930000e+00
     vertex -2.904410e-01 -1.522545e+00 -5.930000e+00
   endloop
 endfacet
 facet normal -0.000000e+00  0.000000e+00 -1.000000e+00
   outer loop
     vertex -1.441154e+00 -5.705931e-01 -5.930000e+00
     vertex -5.250000e+00 -4.100000e+00 -5.930000e+00
     vertex -1.537778e+00 -1.942665e-01 -5.930000e+00
   endloop
 endfacet
 facet normal  0.000000e+00  0.000000e+00 -1.000000e+00
   outer loop
     vertex -5.250000e+00 -4.100000e+00 -5.930000e+00
     vertex -2.904410e-01 -1.522545e+00 -5.930000e+00
     vertex  9.732531e-02 -1.546941e+00 -5.930000e+00
   endloop
 endfacet
 facet normal -0.000000e+00  0.000000e+00 -1.000000e+00
   outer loop
     vertex -1.537778e+00  1.942665e-01 -5.930000e+00
     vertex -1.537778e+00 -1.942665e-01 -5.930000e+00
     vertex -5.250000e+00  4.100000e+00 -5.930000e+00
   endloop
 endfacet
 facet normal -0.000000e+00  0.000000e+00 -1.000000e+00
   outer loop
     vertex -1.537778e+00 -1.942665e-01 -5.930000e+00
     vertex -5.250000e+00 -4.100000e+00 -5.930000e+00
     vertex -5.250000e+00  4.100000e+00 -5.930000e+00
   endloop
 endfacet
 facet normal  0.000000e+00  0.000000e+00 -1.000000e+00
   outer loop
     vertex -1.537778e+00  1.942665e-01 -5.930000e+00
     vertex -5.250000e+00  4.100000e+00 -5.930000e+00
     vertex -1.441154e+00  5.705931e-01 -5.930000e+00
   endloop
 endfacet
 facet normal  0.000000e+00  0.000000e+00 -1.000000e+00
   outer loop
     vertex -1.441154e+00  5.705931e-01 -5.930000e+00
     vertex -5.250000e+00  4.100000e+00 -5.930000e+00
     vertex -1.253976e+00  9.110671e-01 -5.930000e+00
   endloop
 endfacet
 facet normal  0.000000e+00  0.000000e+00 -1.000000e+00
   outer loop
     vertex -1.253976e+00  9.110671e-01 -5.930000e+00
     vertex -5.250000e+00  4.100000e+00 -5.930000e+00
     vertex -9.880072e-01  1.194296e+00 -5.930000e+00
   endloop
 endfacet
 facet normal  0.000000e+00  0.000000e+00 -1.000000e+00
   outer loop
     vertex -9.880072e-01  1.194296e+00 -5.930000e+00
     vertex -5.250000e+00  4.100000e+00 -5.930000e+00
     vertex -6.599579e-01  1.402482e+00 -5.930000e+00
   endloop
 endfacet
 facet normal  0.000000e+00  0.000000e+00 -1.000000e+00
   outer loop
     vertex  9.732531e-02 -1.546941e+00 -5.930000e+00
     vertex  4.789763e-01 -1.474138e+00 -5.930000e+00
     vertex  5.250000e+00 -4.100000e+00 -5.930000e+00
   endloop
 endfacet
 facet normal  0.000000e+00  0.000000e+00 -1.000000e+00
   outer loop
     vertex  4.789763e-01 -1.474138e+00 -5.930000e+00
     vertex  8.305315e-01 -1.308708e+00 -5.930000e+00
     vertex  5.250000e+00 -4.100000e+00 -5.930000e+00
   endloop
 endfacet
 facet normal  0.000000e+00  0.000000e+00 -1.000000e+00
   outer loop
     vertex  8.305315e-01 -1.308708e+00 -5.930000e+00
     vertex  1.129901e+00 -1.061048e+00 -5.930000e+00
     vertex  5.250000e+00 -4.100000e+00 -5.930000e+00
   endloop
 endfacet
 facet normal  0.000000e+00  0.000000e+00 -1.000000e+00
   outer loop
     vertex  1.129901e+00 -1.061048e+00 -5.930000e+00
     vertex  1.358275e+00 -7.467182e-01 -5.930000e+00
     vertex  5.250000e+00 -4.100000e+00 -5.930000e+00
   endloop
 endfacet
 facet normal  0.000000e+00  0.000000e+00 -1.000000e+00
   outer loop
     vertex  1.358275e+00 -7.467182e-01 -5.930000e+00
     vertex  1.501304e+00 -3.854693e-01 -5.930000e+00
     vertex  5.250000e+00 -4.100000e+00 -5.930000e+00
   endloop
 endfacet
 facet normal  0.000000e+00  0.000000e+00 -1.000000e+00
   outer loop
     vertex -5.250000e+00 -4.100000e+00 -5.930000e+00
     vertex  9.732531e-02 -1.546941e+00 -5.930000e+00
     vertex  5.250000e+00 -4.100000e+00 -5.930000e+00
   endloop
 endfacet
 facet normal  0.000000e+00  0.000000e+00 -1.000000e+00
   outer loop
     vertex -6.599579e-01  1.402482e+00 -5.930000e+00
     vertex -5.250000e+00  4.100000e+00 -5.930000e+00
     vertex -2.904410e-01  1.522545e+00 -5.930000e+00
   endloop
 endfacet
 facet normal  0.000000e+00  0.000000e+00 -1.000000e+00
   outer loop
     vertex  5.250000e+00 -4.100000e+00 -5.930000e+00
     vertex  1.501304e+00 -3.854693e-01 -5.930000e+00
     vertex  1.550000e+00  0.000000e+00 -5.930000e+00
   endloop
 endfacet
 facet normal  0.000000e+00  0.000000e+00 -1.000000e+00
   outer loop
     vertex -2.904410e-01  1.522545e+00 -5.930000e+00
     vertex -5.250000e+00  4.100000e+00 -5.930000e+00
     vertex  9.732531e-02  1.546941e+00 -5.930000e+00
   endloop
 endfacet
 facet normal  0.000000e+00  0.000000e+00 -1.000000e+00
   outer loop
     vertex  1.550000e+00  0.000000e+00 -5.930000e+00
     vertex  1.501304e+00  3.854693e-01 -5.930000e+00
     vertex  5.250000e+00  4.100000e+00 -5.930000e+00
   endloop
 endfacet
 facet normal  0.000000e+00  0.000000e+00 -1.000000e+00
   outer loop
     vertex  1.501304e+00  3.854693e-01 -5.930000e+00
     vertex  1.358275e+00  7.467182e-01 -5.930000e+00
     vertex  5.250000e+00  4.100000e+00 -5.930000e+00
   endloop
 endfacet
 facet normal  0.000000e+00  0.000000e+00 -1.000000e+00
   outer loop
     vertex  1.358275e+00  7.467182e-01 -5.930000e+00
     vertex  1.129901e+00  1.061048e+00 -5.930000e+00
     vertex  5.250000e+00  4.100000e+00 -5.930000e+00
   endloop
 endfacet
 facet normal  0.000000e+00  0.000000e+00 -1.000000e+00
   outer loop
     vertex  1.129901e+00  1.061048e+00 -5.930000e+00
     vertex  8.305315e-01  1.308708e+00 -5.930000e+00
     vertex  5.250000e+00  4.100000e+00 -5.930000e+00
   endloop
 endfacet
 facet normal  0.000000e+00  0.000000e+00 -1.000000e+00
   outer loop
     vertex  8.305315e-01  1.308708e+00 -5.930000e+00
     vertex  4.789763e-01  1.474138e+00 -5.930000e+00
     vertex  5.250000e+00  4.100000e+00 -5.930000e+00
   endloop
 endfacet
 facet normal  0.000000e+00  0.000000e+00 -1.000000e+00
   outer loop
     vertex  4.789763e-01  1.474138e+00 -5.930000e+00
     vertex  9.732531e-02  1.546941e+00 -5.930000e+00
     vertex  5.250000e+00  4.100000e+00 -5.930000e+00
   endloop
 endfacet
 facet normal  0.000000e+00  0.000000e+00 -1.000000e+00
   outer loop
     vertex  5.250000e+00 -4.100000e+00 -5.930000e+00
     vertex  1.550000e+00  0.000000e+00 -5.930000e+00
     vertex  5.250000e+00  4.100000e+00 -5.930000e+00
   endloop
 endfacet
 facet normal  0.000000e+00  0.000000e+00 -1.000000e+00
   outer loop
     vertex  9.732531e-02  1.546941e+00 -5.930000e+00
     vertex -5.250000e+00  4.100000e+00 -5.930000e+00
     vertex  5.250000e+00  4.100000e+00 -5.930000e+00
   endloop
 endfacet
 facet normal  1.000000e+00 -0.000000e+00  0.000000e+00
   outer loop
     vertex  5.250000e+00 -4.100000e+00  5.930000e+00
     vertex  5.250000e+00  4.100000e+00 -5.930000e+00
     vertex  5.250000e+00  4.100000e+00  5.930000e+00
   endloop
 endfacet
 facet normal  1.000000e+00 -0.000000e+00  0.000000e+00
   outer loop
     vertex  5.250000e+00 -4.100000e+00  5.930000e+00
     vertex  5.250000e+00 -4.100000e+00 -5.930000e+00
     vertex  5.250000e+00  4.100000e+00 -5.930000e+00
   endloop
 endfacet
 facet normal  1.873813e-01 -9.822873e-01  0.000000e+00
   outer loop
     vertex  4.789763e-01 -1.474138e+00  1.093000e+01
     vertex  9.732531e-02 -1.546941e+00  5.930000e+00
     vertex  4.789763e-01 -1.474138e+00  5.930000e+00
   endloop
 endfacet
 facet normal  4.257793e-01 -9.048271e-01  0.000000e+00
   outer loop
     vertex  8.305315e-01 -1.308708e+00  1.093000e+01
     vertex  4.789763e-01 -1.474138e+00  1.093000e+01
     vertex  8.305315e-01 -1.308708e+00  5.930000e+00
   endloop
 endfacet
 facet normal  4.257793e-01 -9.048271e-01  0.000000e+00
   outer loop
     vertex  4.789763e-01 -1.474138e+00  1.093000e+01
     vertex  4.789763e-01 -1.474138e+00  5.930000e+00
     vertex  8.305315e-01 -1.308708e+00  5.930000e+00
   endloop
 endfacet
 facet normal  9.921147e-01  1.253332e-01  0.000000e+00
   outer loop
     vertex  1.501304e+00  3.854693e-01  1.093000e+01
     vertex  1.550000e+00  0.000000e+00  1.093000e+01
     vertex  1.501304e+00  3.854693e-01  5.930000e+00
   endloop
 endfacet
 facet normal  9.297765e-01  3.681246e-01  0.000000e+00
   outer loop
     vertex  1.358275e+00  7.467182e-01  1.093000e+01
     vertex  1.501304e+00  3.854693e-01  1.093000e+01
     vertex  1.501304e+00  3.854693e-01  5.930000e+00
   endloop
 endfacet
 facet normal  6.374240e-01 -7.705132e-01  0.000000e+00
   outer loop
     vertex  1.129901e+00 -1.061048e+00  1.093000e+01
     vertex  8.305315e-01 -1.308708e+00  1.093000e+01
     vertex  1.129901e+00 -1.061048e+00  5.930000e+00
   endloop
 endfacet
 facet normal  9.921147e-01  1.253332e-01  0.000000e+00
   outer loop
     vertex  1.550000e+00  0.000000e+00  1.093000e+01
     vertex  1.550000e+00  0.000000e+00  5.930000e+00
     vertex  1.501304e+00  3.854693e-01  5.930000e+00
   endloop
 endfacet
 facet normal  6.374240e-01 -7.705132e-01  0.000000e+00
   outer loop
     vertex  8.305315e-01 -1.308708e+00  1.093000e+01
     vertex  8.305315e-01 -1.308708e+00  5.930000e+00
     vertex  1.129901e+00 -1.061048e+00  5.930000e+00
   endloop
 endfacet
 facet normal  8.090170e-01 -5.877853e-01  0.000000e+00
   outer loop
     vertex  1.358275e+00 -7.467182e-01  1.093000e+01
     vertex  1.129901e+00 -1.061048e+00  1.093000e+01
     vertex  1.358275e+00 -7.467182e-01  5.930000e+00
   endloop
 endfacet
 facet normal  9.297765e-01  3.681246e-01  0.000000e+00
   outer loop
     vertex  1.358275e+00  7.467182e-01  1.093000e+01
     vertex  1.501304e+00  3.854693e-01  5.930000e+00
     vertex  1.358275e+00  7.467182e-01  5.930000e+00
   endloop
 endfacet
 facet normal  8.090170e-01 -5.877853e-01  0.000000e+00
   outer loop
     vertex  1.129901e+00 -1.061048e+00  1.093000e+01
     vertex  1.129901e+00 -1.061048e+00  5.930000e+00
     vertex  1.358275e+00 -7.467182e-01  5.930000e+00
   endloop
 endfacet
 facet normal  8.090170e-01  5.877853e-01  0.000000e+00
   outer loop
     vertex  1.129901e+00  1.061048e+00  1.093000e+01
     vertex  1.358275e+00  7.467182e-01  1.093000e+01
     vertex  1.129901e+00  1.061048e+00  5.930000e+00
   endloop
 endfacet
 facet normal  9.297765e-01 -3.681246e-01  0.000000e+00
   outer loop
     vertex  1.501304e+00 -3.854693e-01  1.093000e+01
     vertex  1.358275e+00 -7.467182e-01  1.093000e+01
     vertex  1.501304e+00 -3.854693e-01  5.930000e+00
   endloop
 endfacet
 facet normal  8.090170e-01  5.877853e-01  0.000000e+00
   outer loop
     vertex  1.358275e+00  7.467182e-01  1.093000e+01
     vertex  1.358275e+00  7.467182e-01  5.930000e+00
     vertex  1.129901e+00  1.061048e+00  5.930000e+00
   endloop
 endfacet
 facet normal  9.297765e-01 -3.681246e-01  0.000000e+00
   outer loop
     vertex  1.358275e+00 -7.467182e-01  1.093000e+01
     vertex  1.358275e+00 -7.467182e-01  5.930000e+00
     vertex  1.501304e+00 -3.854693e-01  5.930000e+00
   endloop
 endfacet
 facet normal  9.921147e-01 -1.253332e-01  0.000000e+00
   outer loop
     vertex  1.550000e+00  0.000000e+00  1.093000e+01
     vertex  1.501304e+00 -3.854693e-01  1.093000e+01
     vertex  1.550000e+00  0.000000e+00  5.930000e+00
   endloop
 endfacet
 facet normal  9.921147e-01 -1.253332e-01  0.000000e+00
   outer loop
     vertex  1.501304e+00 -3.854693e-01  1.093000e+01
     vertex  1.501304e+00 -3.854693e-01  5.930000e+00
     vertex  1.550000e+00  0.000000e+00  5.930000e+00
   endloop
 endfacet
 facet normal  6.374240e-01  7.705132e-01  0.000000e+00
   outer loop
     vertex  8.305315e-01  1.308708e+00  1.093000e+01
     vertex  1.129901e+00  1.061048e+00  1.093000e+01
     vertex  8.305315e-01  1.308708e+00  5.930000e+00
   endloop
 endfacet
 facet normal  6.374240e-01  7.705132e-01  0.000000e+00
   outer loop
     vertex  1.129901e+00  1.061048e+00  1.093000e+01
     vertex  1.129901e+00  1.061048e+00  5.930000e+00
     vertex  8.305315e-01  1.308708e+00  5.930000e+00
   endloop
 endfacet
 facet normal  4.257793e-01  9.048271e-01  0.000000e+00
   outer loop
     vertex  4.789763e-01  1.474138e+00  1.093000e+01
     vertex  8.305315e-01  1.308708e+00  1.093000e+01
     vertex  4.789763e-01  1.474138e+00  5.930000e+00
   endloop
 endfacet
 facet normal  1.873813e-01  9.822873e-01  0.000000e+00
   outer loop
     vertex  9.732531e-02  1.546941e+00  1.093000e+01
     vertex  4.789763e-01  1.474138e+00  1.093000e+01
     vertex  4.789763e-01  1.474138e+00  5.930000e+00
   endloop
 endfacet
 facet normal  4.257793e-01  9.048271e-01  0.000000e+00
   outer loop
     vertex  8.305315e-01  1.308708e+00  1.093000e+01
     vertex  8.305315e-01  1.308708e+00  5.930000e+00
     vertex  4.789763e-01  1.474138e+00  5.930000e+00
   endloop
 endfacet
 facet normal -6.279052e-02  9.980267e-01  0.000000e+00
   outer loop
     vertex -2.904410e-01  1.522545e+00  1.093000e+01
     vertex  9.732531e-02  1.546941e+00  1.093000e+01
     vertex  9.732531e-02  1.546941e+00  5.930000e+00
   endloop
 endfacet
 facet normal  1.873813e-01  9.822873e-01  0.000000e+00
   outer loop
     vertex  9.732531e-02  1.546941e+00  1.093000e+01
     vertex  4.789763e-01  1.474138e+00  5.930000e+00
     vertex  9.732531e-02  1.546941e+00  5.930000e+00
   endloop
 endfacet
 facet normal -6.279052e-02  9.980267e-01  0.000000e+00
   outer loop
     vertex -2.904410e-01  1.522545e+00  1.093000e+01
     vertex  9.732531e-02  1.546941e+00  5.930000e+00
     vertex -2.904410e-01  1.522545e+00  5.930000e+00
   endloop
 endfacet
 facet normal -3.090170e-01  9.510565e-01  0.000000e+00
   outer loop
     vertex -6.599579e-01  1.402482e+00  1.093000e+01
     vertex -2.904410e-01  1.522545e+00  1.093000e+01
     vertex -6.599579e-01  1.402482e+00  5.930000e+00
   endloop
 endfacet
 facet normal -3.090170e-01  9.510565e-01  0.000000e+00
   outer loop
     vertex -2.904410e-01  1.522545e+00  1.093000e+01
     vertex -2.904410e-01  1.522545e+00  5.930000e+00
     vertex -6.599579e-01  1.402482e+00  5.930000e+00
   endloop
 endfacet
 facet normal -5.358268e-01  8.443279e-01  0.000000e+00
   outer loop
     vertex -9.880072e-01  1.194296e+00  1.093000e+01
     vertex -6.599579e-01  1.402482e+00  1.093000e+01
     vertex -9.880072e-01  1.194296e+00  5.930000e+00
   endloop
 endfacet
 facet normal -7.289686e-01  6.845471e-01  0.000000e+00
   outer loop
     vertex -1.253976e+00  9.110671e-01  1.093000e+01
     vertex -9.880072e-01  1.194296e+00  1.093000e+01
     vertex -9.880072e-01  1.194296e+00  5.930000e+00
   endloop
 endfacet
 facet normal -5.358268e-01  8.443279e-01  0.000000e+00
   outer loop
     vertex -6.599579e-01  1.402482e+00  1.093000e+01
     vertex -6.599579e-01  1.402482e+00  5.930000e+00
     vertex -9.880072e-01  1.194296e+00  5.930000e+00
   endloop
 endfacet
 facet normal -7.289686e-01  6.845471e-01  0.000000e+00
   outer loop
     vertex -1.253976e+00  9.110671e-01  1.093000e+01
     vertex -9.880072e-01  1.194296e+00  5.930000e+00
     vertex -1.253976e+00  9.110671e-01  5.930000e+00
   endloop
 endfacet
 facet normal -8.763067e-01  4.817537e-01  0.000000e+00
   outer loop
     vertex -1.441154e+00  5.705931e-01  1.093000e+01
     vertex -1.253976e+00  9.110671e-01  1.093000e+01
     vertex -1.441154e+00  5.705931e-01  5.930000e+00
   endloop
 endfacet
 facet normal -8.763067e-01  4.817537e-01  0.000000e+00
   outer loop
     vertex -1.253976e+00  9.110671e-01  1.093000e+01
     vertex -1.253976e+00  9.110671e-01  5.930000e+00
     vertex -1.441154e+00  5.705931e-01  5.930000e+00
   endloop
 endfacet
 facet normal -9.685832e-01  2.486899e-01  0.000000e+00
   outer loop
     vertex -1.441154e+00  5.705931e-01  1.093000e+01
     vertex -1.441154e+00  5.705931e-01  5.930000e+00
     vertex -1.537778e+00  1.942665e-01  5.930000e+00
   endloop
 endfacet
 facet normal -9.685832e-01  2.486899e-01  0.000000e+00
   outer loop
     vertex -1.537778e+00  1.942665e-01  1.093000e+01
     vertex -1.441154e+00  5.705931e-01  1.093000e+01
     vertex -1.537778e+00  1.942665e-01  5.930000e+00
   endloop
 endfacet
 facet normal -1.000000e+00  1.142990e-15  0.000000e+00
   outer loop
     vertex -1.537778e+00 -1.942665e-01  1.093000e+01
     vertex -1.537778e+00  1.942665e-01  1.093000e+01
     vertex -1.537778e+00  1.942665e-01  5.930000e+00
   endloop
 endfacet
 facet normal -1.000000e+00  1.142990e-15  0.000000e+00
   outer loop
     vertex -1.537778e+00 -1.942665e-01  1.093000e+01
     vertex -1.537778e+00  1.942665e-01  5.930000e+00
     vertex -1.537778e+00 -1.942665e-01  5.930000e+00
   endloop
 endfacet
 facet normal -9.685832e-01 -2.486899e-01 -0.000000e+00
   outer loop
     vertex -1.537778e+00 -1.942665e-01  1.093000e+01
     vertex -1.537778e+00 -1.942665e-01  5.930000e+00
     vertex -1.441154e+00 -5.705931e-01  5.930000e+00
   endloop
 endfacet
 facet normal -9.685832e-01 -2.486899e-01  0.000000e+00
   outer loop
     vertex -1.441154e+00 -5.705931e-01  1.093000e+01
     vertex -1.537778e+00 -1.942665e-01  1.093000e+01
     vertex -1.441154e+00 -5.705931e-01  5.930000e+00
   endloop
 endfacet
 facet normal -8.763067e-01 -4.817537e-01 -0.000000e+00
   outer loop
     vertex -1.441154e+00 -5.705931e-01  1.093000e+01
     vertex -1.441154e+00 -5.705931e-01  5.930000e+00
     vertex -1.253976e+00 -9.110671e-01  5.930000e+00
   endloop
 endfacet
 facet normal -8.763067e-01 -4.817537e-01  0.000000e+00
   outer loop
     vertex -1.253976e+00 -9.110671e-01  1.093000e+01
     vertex -1.441154e+00 -5.705931e-01  1.093000e+01
     vertex -1.253976e+00 -9.110671e-01  5.930000e+00
   endloop
 endfacet
 facet normal -7.289686e-01 -6.845471e-01 -0.000000e+00
   outer loop
     vertex -9.880072e-01 -1.194296e+00  1.093000e+01
     vertex -1.253976e+00 -9.110671e-01  1.093000e+01
     vertex -1.253976e+00 -9.110671e-01  5.930000e+00
   endloop
 endfacet
 facet normal -7.289686e-01 -6.845471e-01  0.000000e+00
   outer loop
     vertex -9.880072e-01 -1.194296e+00  1.093000e+01
     vertex -1.253976e+00 -9.110671e-01  5.930000e+00
     vertex -9.880072e-01 -1.194296e+00  5.930000e+00
   endloop
 endfacet
 facet normal -5.358268e-01 -8.443279e-01  0.000000e+00
   outer loop
     vertex -6.599579e-01 -1.402482e+00  1.093000e+01
     vertex -9.880072e-01 -1.194296e+00  1.093000e+01
     vertex -6.599579e-01 -1.402482e+00  5.930000e+00
   endloop
 endfacet
 facet normal -5.358268e-01 -8.443279e-01 -0.000000e+00
   outer loop
     vertex -9.880072e-01 -1.194296e+00  1.093000e+01
     vertex -9.880072e-01 -1.194296e+00  5.930000e+00
     vertex -6.599579e-01 -1.402482e+00  5.930000e+00
   endloop
 endfacet
 facet normal -3.090170e-01 -9.510565e-01  0.000000e+00
   outer loop
     vertex -2.904410e-01 -1.522545e+00  1.093000e+01
     vertex -6.599579e-01 -1.402482e+00  1.093000e+01
     vertex -2.904410e-01 -1.522545e+00  5.930000e+00
   endloop
 endfacet
 facet normal -3.090170e-01 -9.510565e-01 -0.000000e+00
   outer loop
     vertex -6.599579e-01 -1.402482e+00  1.093000e+01
     vertex -6.599579e-01 -1.402482e+00  5.930000e+00
     vertex -2.904410e-01 -1.522545e+00  5.930000e+00
   endloop
 endfacet
 facet normal -6.279052e-02 -9.980267e-01  0.000000e+00
   outer loop
     vertex  9.732531e-02 -1.546941e+00  1.093000e+01
     vertex -2.904410e-01 -1.522545e+00  1.093000e+01
     vertex  9.732531e-02 -1.546941e+00  5.930000e+00
   endloop
 endfacet
 facet normal  1.873813e-01 -9.822873e-01  0.000000e+00
   outer loop
     vertex  4.789763e-01 -1.474138e+00  1.093000e+01
     vertex  9.732531e-02 -1.546941e+00  1.093000e+01
     vertex  9.732531e-02 -1.546941e+00  5.930000e+00
   endloop
 endfacet
 facet normal -6.279052e-02 -9.980267e-01 -0.000000e+00
   outer loop
     vertex -2.904410e-01 -1.522545e+00  1.093000e+01
     vertex -2.904410e-01 -1.522545e+00  5.930000e+00
     vertex  9.732531e-02 -1.546941e+00  5.930000e+00
   endloop
 endfacet
 facet normal  0.000000e+00 -0.000000e+00 -1.000000e+00
   outer loop
     vertex  4.789763e-01 -1.474138e+00 -5.930000e+00
     vertex  1.129901e+00 -1.061048e+00 -5.930000e+00
     vertex  8.305315e-01 -1.308708e+00 -5.930000e+00
   endloop
 endfacet
 facet normal  0.000000e+00  0.000000e+00 -1.000000e+00
   outer loop
     vertex  1.501304e+00 -3.854693e-01 -5.930000e+00
     vertex  1.358275e+00 -7.467182e-01 -5.930000e+00
     vertex  1.129901e+00 -1.061048e+00 -5.930000e+00
   endloop
 endfacet
 facet normal  0.000000e+00 -0.000000e+00 -1.000000e+00
   outer loop
     vertex  1.501304e+00  3.854693e-01 -5.930000e+00
     vertex  1.550000e+00  0.000000e+00 -5.930000e+00
     vertex  1.501304e+00 -3.854693e-01 -5.930000e+00
   endloop
 endfacet
 facet normal  0.000000e+00 -0.000000e+00 -1.000000e+00
   outer loop
     vertex  1.501304e+00  3.854693e-01 -5.930000e+00
     vertex  1.501304e+00 -3.854693e-01 -5.930000e+00
     vertex  1.129901e+00 -1.061048e+00 -5.930000e+00
   endloop
 endfacet
 facet normal -0.000000e+00 -0.000000e+00 -1.000000e+00
   outer loop
     vertex -6.599579e-01 -1.402482e+00 -5.930000e+00
     vertex  9.732531e-02 -1.546941e+00 -5.930000e+00
     vertex -2.904410e-01 -1.522545e+00 -5.930000e+00
   endloop
 endfacet
 facet normal  0.000000e+00 -0.000000e+00 -1.000000e+00
   outer loop
     vertex -6.599579e-01 -1.402482e+00 -5.930000e+00
     vertex  4.789763e-01 -1.474138e+00 -5.930000e+00
     vertex  9.732531e-02 -1.546941e+00 -5.930000e+00
   endloop
 endfacet
 facet normal  0.000000e+00 -0.000000e+00 -1.000000e+00
   outer loop
     vertex -6.599579e-01 -1.402482e+00 -5.930000e+00
     vertex  1.129901e+00 -1.061048e+00 -5.930000e+00
     vertex  4.789763e-01 -1.474138e+00 -5.930000e+00
   endloop
 endfacet
 facet normal  0.000000e+00 -0.000000e+00 -1.000000e+00
   outer loop
     vertex -6.599579e-01 -1.402482e+00 -5.930000e+00
     vertex  1.501304e+00  3.854693e-01 -5.930000e+00
     vertex  1.129901e+00 -1.061048e+00 -5.930000e+00
   endloop
 endfacet
 facet normal  0.000000e+00  0.000000e+00 -1.000000e+00
   outer loop
     vertex  8.305315e-01  1.308708e+00 -5.930000e+00
     vertex  1.129901e+00  1.061048e+00 -5.930000e+00
     vertex  1.358275e+00  7.467182e-01 -5.930000e+00
   endloop
 endfacet
 facet normal -0.000000e+00 -0.000000e+00 -1.000000e+00
   outer loop
     vertex -1.441154e+00 -5.705931e-01 -5.930000e+00
     vertex -9.880072e-01 -1.194296e+00 -5.930000e+00
     vertex -1.253976e+00 -9.110671e-01 -5.930000e+00
   endloop
 endfacet
 facet normal -0.000000e+00 -0.000000e+00 -1.000000e+00
   outer loop
     vertex -1.441154e+00 -5.705931e-01 -5.930000e+00
     vertex -6.599579e-01 -1.402482e+00 -5.930000e+00
     vertex -9.880072e-01 -1.194296e+00 -5.930000e+00
   endloop
 endfacet
 facet normal  0.000000e+00  0.000000e+00 -1.000000e+00
   outer loop
     vertex -1.537778e+00 -1.942665e-01 -5.930000e+00
     vertex  1.358275e+00  7.467182e-01 -5.930000e+00
     vertex  1.501304e+00  3.854693e-01 -5.930000e+00
   endloop
 endfacet
 facet normal  0.000000e+00 -0.000000e+00 -1.000000e+00
   outer loop
     vertex -1.537778e+00 -1.942665e-01 -5.930000e+00
     vertex  1.501304e+00  3.854693e-01 -5.930000e+00
     vertex -6.599579e-01 -1.402482e+00 -5.930000e+00
   endloop
 endfacet
 facet normal  0.000000e+00  0.000000e+00 -1.000000e+00
   outer loop
     vertex -1.537778e+00 -1.942665e-01 -5.930000e+00
     vertex  8.305315e-01  1.308708e+00 -5.930000e+00
     vertex  1.358275e+00  7.467182e-01 -5.930000e+00
   endloop
 endfacet
 facet normal -0.000000e+00 -0.000000e+00 -1.000000e+00
   outer loop
     vertex -1.537778e+00 -1.942665e-01 -5.930000e+00
     vertex -6.599579e-01 -1.402482e+00 -5.930000e+00
     vertex -1.441154e+00 -5.705931e-01 -5.930000e+00
   endloop
 endfacet
 facet normal  0.000000e+00  0.000000e+00 -1.000000e+00
   outer loop
     vertex  9.732531e-02  1.546941e+00 -5.930000e+00
     vertex  4.789763e-01  1.474138e+00 -5.930000e+00
     vertex  8.305315e-01  1.308708e+00 -5.930000e+00
   endloop
 endfacet
 facet normal  0.000000e+00 -0.000000e+00 -1.000000e+00
   outer loop
     vertex -1.537778e+00  1.942665e-01 -5.930000e+00
     vertex  8.305315e-01  1.308708e+00 -5.930000e+00
     vertex -1.537778e+00 -1.942665e-01 -5.930000e+00
   endloop
 endfacet
 facet normal  0.000000e+00  0.000000e+00 -1.000000e+00
   outer loop
     vertex -6.599579e-01  1.402482e+00 -5.930000e+00
     vertex -2.904410e-01  1.522545e+00 -5.930000e+00
     vertex  9.732531e-02  1.546941e+00 -5.930000e+00
   endloop
 endfacet
 facet normal  0.000000e+00  0.000000e+00 -1.000000e+00
   outer loop
     vertex -6.599579e-01  1.402482e+00 -5.930000e+00
     vertex  9.732531e-02  1.546941e+00 -5.930000e+00
     vertex  8.305315e-01  1.308708e+00 -5.930000e+00
   endloop
 endfacet
 facet normal -0.000000e+00  0.000000e+00 -1.000000e+00
   outer loop
     vertex -9.880072e-01  1.194296e+00 -5.930000e+00
     vertex -1.441154e+00  5.705931e-01 -5.930000e+00
     vertex -1.253976e+00  9.110671e-01 -5.930000e+00
   endloop
 endfacet
 facet normal -0.000000e+00  0.000000e+00 -1.000000e+00
   outer loop
     vertex -9.880072e-01  1.194296e+00 -5.930000e+00
     vertex -1.537778e+00  1.942665e-01 -5.930000e+00
     vertex -1.441154e+00  5.705931e-01 -5.930000e+00
   endloop
 endfacet
 facet normal  0.000000e+00 -0.000000e+00 -1.000000e+00
   outer loop
     vertex -9.880072e-01  1.194296e+00 -5.930000e+00
     vertex  8.305315e-01  1.308708e+00 -5.930000e+00
     vertex -1.537778e+00  1.942665e-01 -5.930000e+00
   endloop
 endfacet
 facet normal  0.000000e+00  0.000000e+00 -1.000000e+00
   outer loop
     vertex -9.880072e-01  1.194296e+00 -5.930000e+00
     vertex -6.599579e-01  1.402482e+00 -5.930000e+00
     vertex  8.305315e-01  1.308708e+00 -5.930000e+00
   endloop
 endfacet
 facet normal  1.873813e-01 -9.822873e-01  0.000000e+00
   outer loop
     vertex  9.732531e-02 -1.546941e+00  2.407000e+01
     vertex  9.732531e-02 -1.546941e+00  1.093000e+01
     vertex  4.789763e-01 -1.474138e+00  1.093000e+01
   endloop
 endfacet
 facet normal  1.873813e-01 -9.822873e-01  0.000000e+00
   outer loop
     vertex  4.789763e-01 -1.474138e+00  2.407000e+01
     vertex  9.732531e-02 -1.546941e+00  2.407000e+01
     vertex  4.789763e-01 -1.474138e+00  1.093000e+01
   endloop
 endfacet
 facet normal  4.257793e-01 -9.048271e-01  0.000000e+00
   outer loop
     vertex  4.789763e-01 -1.474138e+00  2.407000e+01
     vertex  4.789763e-01 -1.474138e+00  1.093000e+01
     vertex  8.305315e-01 -1.308708e+00  1.093000e+01
   endloop
 endfacet
 facet normal  4.257793e-01 -9.048271e-01  0.000000e+00
   outer loop
     vertex  8.305315e-01 -1.308708e+00  2.407000e+01
     vertex  4.789763e-01 -1.474138e+00  2.407000e+01
     vertex  8.305315e-01 -1.308708e+00  1.093000e+01
   endloop
 endfacet
 facet normal  9.921147e-01  1.253332e-01  0.000000e+00
   outer loop
     vertex  1.501304e+00  3.854693e-01  2.407000e+01
     vertex  1.550000e+00  0.000000e+00  2.407000e+01
     vertex  1.501304e+00  3.854693e-01  1.093000e+01
   endloop
 endfacet
 facet normal  9.921147e-01  1.253332e-01  0.000000e+00
   outer loop
     vertex  1.550000e+00  0.000000e+00  2.407000e+01
     vertex  1.550000e+00  0.000000e+00  1.093000e+01
     vertex  1.501304e+00  3.854693e-01  1.093000e+01
   endloop
 endfacet
 facet normal  6.374240e-01 -7.705132e-01  0.000000e+00
   outer loop
     vertex  8.305315e-01 -1.308708e+00  2.407000e+01
     vertex  8.305315e-01 -1.308708e+00  1.093000e+01
     vertex  1.129901e+00 -1.061048e+00  1.093000e+01
   endloop
 endfacet
 facet normal  6.374240e-01 -7.705132e-01  0.000000e+00
   outer loop
     vertex  1.129901e+00 -1.061048e+00  2.407000e+01
     vertex  8.305315e-01 -1.308708e+00  2.407000e+01
     vertex  1.129901e+00 -1.061048e+00  1.093000e+01
   endloop
 endfacet
 facet normal  9.297765e-01  3.681246e-01  0.000000e+00
   outer loop
     vertex  1.358275e+00  7.467182e-01  2.407000e+01
     vertex  1.501304e+00  3.854693e-01  2.407000e+01
     vertex  1.358275e+00  7.467182e-01  1.093000e+01
   endloop
 endfacet
 facet normal  8.090170e-01  5.877853e-01  0.000000e+00
   outer loop
     vertex  1.129901e+00  1.061048e+00  2.407000e+01
     vertex  1.358275e+00  7.467182e-01  2.407000e+01
     vertex  1.358275e+00  7.467182e-01  1.093000e+01
   endloop
 endfacet
 facet normal  9.297765e-01  3.681246e-01  0.000000e+00
   outer loop
     vertex  1.501304e+00  3.854693e-01  2.407000e+01
     vertex  1.501304e+00  3.854693e-01  1.093000e+01
     vertex  1.358275e+00  7.467182e-01  1.093000e+01
   endloop
 endfacet
 facet normal  8.090170e-01 -5.877853e-01  0.000000e+00
   outer loop
     vertex  1.358275e+00 -7.467182e-01  2.407000e+01
     vertex  1.129901e+00 -1.061048e+00  2.407000e+01
     vertex  1.358275e+00 -7.467182e-01  1.093000e+01
   endloop
 endfacet
 facet normal  8.090170e-01 -5.877853e-01  0.000000e+00
   outer loop
     vertex  1.129901e+00 -1.061048e+00  2.407000e+01
     vertex  1.129901e+00 -1.061048e+00  1.093000e+01
     vertex  1.358275e+00 -7.467182e-01  1.093000e+01
   endloop
 endfacet
 facet normal  6.374240e-01  7.705132e-01  0.000000e+00
   outer loop
     vertex  8.305315e-01  1.308708e+00  2.407000e+01
     vertex  1.129901e+00  1.061048e+00  2.407000e+01
     vertex  1.129901e+00  1.061048e+00  1.093000e+01
   endloop
 endfacet
 facet normal  8.090170e-01  5.877853e-01  0.000000e+00
   outer loop
     vertex  1.129901e+00  1.061048e+00  2.407000e+01
     vertex  1.358275e+00  7.467182e-01  1.093000e+01
     vertex  1.129901e+00  1.061048e+00  1.093000e+01
   endloop
 endfacet
 facet normal  9.297765e-01 -3.681246e-01  0.000000e+00
   outer loop
     vertex  1.358275e+00 -7.467182e-01  2.407000e+01
     vertex  1.358275e+00 -7.467182e-01  1.093000e+01
     vertex  1.501304e+00 -3.854693e-01  1.093000e+01
   endloop
 endfacet
 facet normal  9.297765e-01 -3.681246e-01  0.000000e+00
   outer loop
     vertex  1.501304e+00 -3.854693e-01  2.407000e+01
     vertex  1.358275e+00 -7.467182e-01  2.407000e+01
     vertex  1.501304e+00 -3.854693e-01  1.093000e+01
   endloop
 endfacet
 facet normal  9.921147e-01 -1.253332e-01  0.000000e+00
   outer loop
     vertex  1.550000e+00  0.000000e+00  2.407000e+01
     vertex  1.501304e+00 -3.854693e-01  2.407000e+01
     vertex  1.550000e+00  0.000000e+00  1.093000e+01
   endloop
 endfacet
 facet normal  9.921147e-01 -1.253332e-01  0.000000e+00
   outer loop
     vertex  1.501304e+00 -3.854693e-01  2.407000e+01
     vertex  1.501304e+00 -3.854693e-01  1.093000e+01
     vertex  1.550000e+00  0.000000e+00  1.093000e+01
   endloop
 endfacet
 facet normal  6.374240e-01  7.705132e-01  0.000000e+00
   outer loop
     vertex  8.305315e-01  1.308708e+00  2.407000e+01
     vertex  1.129901e+00  1.061048e+00  1.093000e+01
     vertex  8.305315e-01  1.308708e+00  1.093000e+01
   endloop
 endfacet
 facet normal  4.257793e-01  9.048271e-01  0.000000e+00
   outer loop
     vertex  4.789763e-01  1.474138e+00  2.407000e+01
     vertex  8.305315e-01  1.308708e+00  2.407000e+01
     vertex  4.789763e-01  1.474138e+00  1.093000e+01
   endloop
 endfacet
 facet normal  4.257793e-01  9.048271e-01  0.000000e+00
   outer loop
     vertex  8.305315e-01  1.308708e+00  2.407000e+01
     vertex  8.305315e-01  1.308708e+00  1.093000e+01
     vertex  4.789763e-01  1.474138e+00  1.093000e+01
   endloop
 endfacet
 facet normal  1.873813e-01  9.822873e-01  0.000000e+00
   outer loop
     vertex  9.732531e-02  1.546941e+00  2.407000e+01
     vertex  4.789763e-01  1.474138e+00  2.407000e+01
     vertex  9.732531e-02  1.546941e+00  1.093000e+01
   endloop
 endfacet
 facet normal -6.279052e-02  9.980267e-01  0.000000e+00
   outer loop
     vertex -2.904410e-01  1.522545e+00  2.407000e+01
     vertex  9.732531e-02  1.546941e+00  2.407000e+01
     vertex  9.732531e-02  1.546941e+00  1.093000e+01
   endloop
 endfacet
 facet normal  1.873813e-01  9.822873e-01  0.000000e+00
   outer loop
     vertex  4.789763e-01  1.474138e+00  2.407000e+01
     vertex  4.789763e-01  1.474138e+00  1.093000e+01
     vertex  9.732531e-02  1.546941e+00  1.093000e+01
   endloop
 endfacet
 facet normal -6.279052e-02  9.980267e-01  0.000000e+00
   outer loop
     vertex -2.904410e-01  1.522545e+00  2.407000e+01
     vertex  9.732531e-02  1.546941e+00  1.093000e+01
     vertex -2.904410e-01  1.522545e+00  1.093000e+01
   endloop
 endfacet
 facet normal -3.090170e-01  9.510565e-01  0.000000e+00
   outer loop
     vertex -6.599579e-01  1.402482e+00  2.407000e+01
     vertex -2.904410e-01  1.522545e+00  2.407000e+01
     vertex -6.599579e-01  1.402482e+00  1.093000e+01
   endloop
 endfacet
 facet normal -3.090170e-01  9.510565e-01  0.000000e+00
   outer loop
     vertex -2.904410e-01  1.522545e+00  2.407000e+01
     vertex -2.904410e-01  1.522545e+00  1.093000e+01
     vertex -6.599579e-01  1.402482e+00  1.093000e+01
   endloop
 endfacet
 facet normal -5.358268e-01  8.443279e-01  0.000000e+00
   outer loop
     vertex -9.880072e-01  1.194296e+00  2.407000e+01
     vertex -6.599579e-01  1.402482e+00  2.407000e+01
     vertex -9.880072e-01  1.194296e+00  1.093000e+01
   endloop
 endfacet
 facet normal -5.358268e-01  8.443279e-01  0.000000e+00
   outer loop
     vertex -6.599579e-01  1.402482e+00  2.407000e+01
     vertex -6.599579e-01  1.402482e+00  1.093000e+01
     vertex -9.880072e-01  1.194296e+00  1.093000e+01
   endloop
 endfacet
 facet normal -7.289686e-01  6.845471e-01  0.000000e+00
   outer loop
     vertex -1.253976e+00  9.110671e-01  2.407000e+01
     vertex -9.880072e-01  1.194296e+00  2.407000e+01
     vertex -1.253976e+00  9.110671e-01  1.093000e+01
   endloop
 endfacet
 facet normal -7.289686e-01  6.845471e-01  0.000000e+00
   outer loop
     vertex -9.880072e-01  1.194296e+00  2.407000e+01
     vertex -9.880072e-01  1.194296e+00  1.093000e+01
     vertex -1.253976e+00  9.110671e-01  1.093000e+01
   endloop
 endfacet
 facet normal -8.763067e-01  4.817537e-01  0.000000e+00
   outer loop
     vertex -1.441154e+00  5.705931e-01  2.407000e+01
     vertex -1.253976e+00  9.110671e-01  2.407000e+01
     vertex -1.441154e+00  5.705931e-01  1.093000e+01
   endloop
 endfacet
 facet normal -8.763067e-01  4.817537e-01  0.000000e+00
   outer loop
     vertex -1.253976e+00  9.110671e-01  2.407000e+01
     vertex -1.253976e+00  9.110671e-01  1.093000e+01
     vertex -1.441154e+00  5.705931e-01  1.093000e+01
   endloop
 endfacet
 facet normal -9.685832e-01  2.486899e-01  0.000000e+00
   outer loop
     vertex -1.441154e+00  5.705931e-01  2.407000e+01
     vertex -1.441154e+00  5.705931e-01  1.093000e+01
     vertex -1.537778e+00  1.942665e-01  1.093000e+01
   endloop
 endfacet
 facet normal -9.685832e-01  2.486899e-01  0.000000e+00
   outer loop
     vertex -1.537778e+00  1.942665e-01  2.407000e+01
     vertex -1.441154e+00  5.705931e-01  2.407000e+01
     vertex -1.537778e+00  1.942665e-01  1.093000e+01
   endloop
 endfacet
 facet normal -1.000000e+00  1.142990e-15  0.000000e+00
   outer loop
     vertex -1.537778e+00 -1.942665e-01  2.407000e+01
     vertex -1.537778e+00  1.942665e-01  2.407000e+01
     vertex -1.537778e+00  1.942665e-01  1.093000e+01
   endloop
 endfacet
 facet normal -1.000000e+00  1.142990e-15  0.000000e+00
   outer loop
     vertex -1.537778e+00 -1.942665e-01  2.407000e+01
     vertex -1.537778e+00  1.942665e-01  1.093000e+01
     vertex -1.537778e+00 -1.942665e-01  1.093000e+01
   endloop
 endfacet
 facet normal -9.685832e-01 -2.486899e-01 -0.000000e+00
   outer loop
     vertex -1.537778e+00 -1.942665e-01  2.407000e+01
     vertex -1.537778e+00 -1.942665e-01  1.093000e+01
     vertex -1.441154e+00 -5.705931e-01  1.093000e+01
   endloop
 endfacet
 facet normal -9.685832e-01 -2.486899e-01  0.000000e+00
   outer loop
     vertex -1.441154e+00 -5.705931e-01  2.407000e+01
     vertex -1.537778e+00 -1.942665e-01  2.407000e+01
     vertex -1.441154e+00 -5.705931e-01  1.093000e+01
   endloop
 endfacet
 facet normal -8.763067e-01 -4.817537e-01 -0.000000e+00
   outer loop
     vertex -1.441154e+00 -5.705931e-01  2.407000e+01
     vertex -1.441154e+00 -5.705931e-01  1.093000e+01
     vertex -1.253976e+00 -9.110671e-01  1.093000e+01
   endloop
 endfacet
 facet normal -8.763067e-01 -4.817537e-01  0.000000e+00
   outer loop
     vertex -1.253976e+00 -9.110671e-01  2.407000e+01
     vertex -1.441154e+00 -5.705931e-01  2.407000e+01
     vertex -1.253976e+00 -9.110671e-01  1.093000e+01
   endloop
 endfacet
 facet normal -7.289686e-01 -6.845471e-01 -0.000000e+00
   outer loop
     vertex -1.253976e+00 -9.110671e-01  2.407000e+01
     vertex -1.253976e+00 -9.110671e-01  1.093000e+01
     vertex -9.880072e-01 -1.194296e+00  1.093000e+01
   endloop
 endfacet
 facet normal -7.289686e-01 -6.845471e-01  0.000000e+00
   outer loop
     vertex -9.880072e-01 -1.194296e+00  2.407000e+01
     vertex -1.253976e+00 -9.110671e-01  2.407000e+01
     vertex -9.880072e-01 -1.194296e+00  1.093000e+01
   endloop
 endfacet
 facet normal -5.358268e-01 -8.443279e-01 -0.000000e+00
   outer loop
     vertex -9.880072e-01 -1.194296e+00  2.407000e+01
     vertex -9.880072e-01 -1.194296e+00  1.093000e+01
     vertex -6.599579e-01 -1.402482e+00  1.093000e+01
   endloop
 endfacet
 facet normal -5.358268e-01 -8.443279e-01  0.000000e+00
   outer loop
     vertex -6.599579e-01 -1.402482e+00  2.407000e+01
     vertex -9.880072e-01 -1.194296e+00  2.407000e+01
     vertex -6.599579e-01 -1.402482e+00  1.093000e+01
   endloop
 endfacet
 facet normal -3.090170e-01 -9.510565e-01 -0.000000e+00
   outer loop
     vertex -2.904410e-01 -1.522545e+00  2.407000e+01
     vertex -6.599579e-01 -1.402482e+00  2.407000e+01
     vertex -6.599579e-01 -1.402482e+00  1.093000e+01
   endloop
 endfacet
 facet normal -3.090170e-01 -9.510565e-01  0.000000e+00
   outer loop
     vertex -2.904410e-01 -1.522545e+00  2.407000e+01
     vertex -6.599579e-01 -1.402482e+00  1.093000e+01
     vertex -2.904410e-01 -1.522545e+00  1.093000e+01
   endloop
 endfacet
 facet normal -6.279052e-02 -9.980267e-01 -0.000000e+00
   outer loop
     vertex -2.904410e-01 -1.522545e+00  2.407000e+01
     vertex -2.904410e-01 -1.522545e+00  1.093000e+01
     vertex  9.732531e-02 -1.546941e+00  1.093000e+01
   endloop
 endfacet
 facet normal -6.279052e-02 -9.980267e-01  0.000000e+00
   outer loop
     vertex  9.732531e-02 -1.546941e+00  2.407000e+01
     vertex -2.904410e-01 -1.522545e+00  2.407000e+01
     vertex  9.732531e-02 -1.546941e+00  1.093000e+01
   endloop
 endfacet
 facet normal  0.000000e+00 -0.000000e+00  1.000000e+00
   outer loop
     vertex  8.305315e-01 -1.308708e+00  2.407000e+01
     vertex  1.129901e+00 -1.061048e+00  2.407000e+01
     vertex  4.789763e-01 -1.474138e+00  2.407000e+01
   endloop
 endfacet
 facet normal  0.000000e+00  0.000000e+00  1.000000e+00
   outer loop
     vertex  1.129901e+00 -1.061048e+00  2.407000e+01
     vertex  1.358275e+00 -7.467182e-01  2.407000e+01
     vertex  1.501304e+00 -3.854693e-01  2.407000e+01
   endloop
 endfacet
 facet normal  0.000000e+00 -0.000000e+00  1.000000e+00
   outer loop
     vertex  1.501304e+00 -3.854693e-01  2.407000e+01
     vertex  1.550000e+00  0.000000e+00  2.407000e+01
     vertex  1.501304e+00  3.854693e-01  2.407000e+01
   endloop
 endfacet
 facet normal  0.000000e+00 -0.000000e+00  1.000000e+00
   outer loop
     vertex  1.129901e+00 -1.061048e+00  2.407000e+01
     vertex  1.501304e+00 -3.854693e-01  2.407000e+01
     vertex  1.501304e+00  3.854693e-01  2.407000e+01
   endloop
 endfacet
 facet normal -0.000000e+00 -0.000000e+00  1.000000e+00
   outer loop
     vertex -2.904410e-01 -1.522545e+00  2.407000e+01
     vertex  9.732531e-02 -1.546941e+00  2.407000e+01
     vertex -6.599579e-01 -1.402482e+00  2.407000e+01
   endloop
 endfacet
 facet normal  0.000000e+00 -0.000000e+00  1.000000e+00
   outer loop
     vertex  9.732531e-02 -1.546941e+00  2.407000e+01
     vertex  4.789763e-01 -1.474138e+00  2.407000e+01
     vertex -6.599579e-01 -1.402482e+00  2.407000e+01
   endloop
 endfacet
 facet normal  0.000000e+00 -0.000000e+00  1.000000e+00
   outer loop
     vertex  4.789763e-01 -1.474138e+00  2.407000e+01
     vertex  1.129901e+00 -1.061048e+00  2.407000e+01
     vertex -6.599579e-01 -1.402482e+00  2.407000e+01
   endloop
 endfacet
 facet normal  0.000000e+00 -0.000000e+00  1.000000e+00
   outer loop
     vertex  1.129901e+00 -1.061048e+00  2.407000e+01
     vertex  1.501304e+00  3.854693e-01  2.407000e+01
     vertex -6.599579e-01 -1.402482e+00  2.407000e+01
   endloop
 endfacet
 facet normal  0.000000e+00  0.000000e+00  1.000000e+00
   outer loop
     vertex  1.358275e+00  7.467182e-01  2.407000e+01
     vertex  1.129901e+00  1.061048e+00  2.407000e+01
     vertex  8.305315e-01  1.308708e+00  2.407000e+01
   endloop
 endfacet
 facet normal -0.000000e+00 -0.000000e+00  1.000000e+00
   outer loop
     vertex -1.253976e+00 -9.110671e-01  2.407000e+01
     vertex -9.880072e-01 -1.194296e+00  2.407000e+01
     vertex -1.441154e+00 -5.705931e-01  2.407000e+01
   endloop
 endfacet
 facet normal -0.000000e+00 -0.000000e+00  1.000000e+00
   outer loop
     vertex -9.880072e-01 -1.194296e+00  2.407000e+01
     vertex -6.599579e-01 -1.402482e+00  2.407000e+01
     vertex -1.441154e+00 -5.705931e-01  2.407000e+01
   endloop
 endfacet
 facet normal  0.000000e+00  0.000000e+00  1.000000e+00
   outer loop
     vertex  1.501304e+00  3.854693e-01  2.407000e+01
     vertex  1.358275e+00  7.467182e-01  2.407000e+01
     vertex -1.537778e+00 -1.942665e-01  2.407000e+01
   endloop
 endfacet
 facet normal  0.000000e+00 -0.000000e+00  1.000000e+00
   outer loop
     vertex -6.599579e-01 -1.402482e+00  2.407000e+01
     vertex  1.501304e+00  3.854693e-01  2.407000e+01
     vertex -1.537778e+00 -1.942665e-01  2.407000e+01
   endloop
 endfacet
 facet normal  0.000000e+00  0.000000e+00  1.000000e+00
   outer loop
     vertex  1.358275e+00  7.467182e-01  2.407000e+01
     vertex  8.305315e-01  1.308708e+00  2.407000e+01
     vertex -1.537778e+00 -1.942665e-01  2.407000e+01
   endloop
 endfacet
 facet normal -0.000000e+00 -0.000000e+00  1.000000e+00
   outer loop
     vertex -1.441154e+00 -5.705931e-01  2.407000e+01
     vertex -6.599579e-01 -1.402482e+00  2.407000e+01
     vertex -1.537778e+00 -1.942665e-01  2.407000e+01
   endloop
 endfacet
 facet normal  0.000000e+00  0.000000e+00  1.000000e+00
   outer loop
     vertex  8.305315e-01  1.308708e+00  2.407000e+01
     vertex  4.789763e-01  1.474138e+00  2.407000e+01
     vertex  9.732531e-02  1.546941e+00  2.407000e+01
   endloop
 endfacet
 facet normal  0.000000e+00 -0.000000e+00  1.000000e+00
   outer loop
     vertex -1.537778e+00 -1.942665e-01  2.407000e+01
     vertex  8.305315e-01  1.308708e+00  2.407000e+01
     vertex -1.537778e+00  1.942665e-01  2.407000e+01
   endloop
 endfacet
 facet normal  0.000000e+00  0.000000e+00  1.000000e+00
   outer loop
     vertex  9.732531e-02  1.546941e+00  2.407000e+01
     vertex -2.904410e-01  1.522545e+00  2.407000e+01
     vertex -6.599579e-01  1.402482e+00  2.407000e+01
   endloop
 endfacet
 facet normal  0.000000e+00  0.000000e+00  1.000000e+00
   outer loop
     vertex  8.305315e-01  1.308708e+00  2.407000e+01
     vertex  9.732531e-02  1.546941e+00  2.407000e+01
     vertex -6.599579e-01  1.402482e+00  2.407000e+01
   endloop
 endfacet
 facet normal -0.000000e+00  0.000000e+00  1.000000e+00
   outer loop
     vertex -1.253976e+00  9.110671e-01  2.407000e+01
     vertex -1.441154e+00  5.705931e-01  2.407000e+01
     vertex -9.880072e-01  1.194296e+00  2.407000e+01
   endloop
 endfacet
 facet normal -0.000000e+00  0.000000e+00  1.000000e+00
   outer loop
     vertex -1.441154e+00  5.705931e-01  2.407000e+01
     vertex -1.537778e+00  1.942665e-01  2.407000e+01
     vertex -9.880072e-01  1.194296e+00  2.407000e+01
   endloop
 endfacet
 facet normal  0.000000e+00 -0.000000e+00  1.000000e+00
   outer loop
     vertex -1.537778e+00  1.942665e-01  2.407000e+01
     vertex  8.305315e-01  1.308708e+00  2.407000e+01
     vertex -9.880072e-01  1.194296e+00  2.407000e+01
   endloop
 endfacet
 facet normal  0.000000e+00  0.000000e+00  1.000000e+00
   outer loop
     vertex  8.305315e-01  1.308708e+00  2.407000e+01
     vertex -6.599579e-01  1.402482e+00  2.407000e+01
     vertex -9.880072e-01  1.194296e+00  2.407000e+01
   endloop
 endfacet
endsolid
