solid
 facet normal  0.000000e+00  0.000000e+00 -1.000000e+00
   outer loop
     vertex -1.000000e+00 -1.000000e+00 -4.000000e+00
     vertex -1.000000e+00  1.000000e+00 -4.000000e+00
     vertex  1.000000e+00 -1.000000e+00 -4.000000e+00
   endloop
 endfacet
 facet normal  0.000000e+00  0.000000e+00 -1.000000e+00
   outer loop
     vertex  1.000000e+00 -1.000000e+00 -4.000000e+00
     vertex -1.000000e+00  1.000000e+00 -4.000000e+00
     vertex  1.000000e+00  1.000000e+00 -4.000000e+00
   endloop
 endfacet
 facet normal -1.000000e+00  0.000000e+00  0.000000e+00
   outer loop
     vertex -1.000000e+00  1.000000e+00 -4.000000e+00
     vertex -1.000000e+00 -1.000000e+00 -4.000000e+00
     vertex -1.000000e+00 -1.000000e+00  4.000000e+00
   endloop
 endfacet
 facet normal -1.000000e+00 -0.000000e+00 -0.000000e+00
   outer loop
     vertex -1.000000e+00  1.000000e+00  4.000000e+00
     vertex -1.000000e+00  1.000000e+00 -4.000000e+00
     vertex -1.000000e+00 -1.000000e+00  4.000000e+00
   endloop
 endfacet
 facet normal  0.000000e+00  1.000000e+00  0.000000e+00
   outer loop
     vertex  1.000000e+00  1.000000e+00  4.000000e+00
     vertex  1.000000e+00  1.000000e+00 -4.000000e+00
     vertex -1.000000e+00  1.000000e+00 -4.000000e+00
   endloop
 endfacet
 facet normal  0.000000e+00  1.000000e+00 -0.000000e+00
   outer loop
     vertex  1.000000e+00  1.000000e+00  4.000000e+00
     vertex -1.000000e+00  1.000000e+00 -4.000000e+00
     vertex -1.000000e+00  1.000000e+00  4.000000e+00
   endloop
 endfacet
 facet normal  1.000000e+00 -0.000000e+00  0.000000e+00
   outer loop
     vertex  1.000000e+00 -1.000000e+00  4.000000e+00
     vertex  1.000000e+00 -1.000000e+00 -4.000000e+00
     vertex  1.000000e+00  1.000000e+00 -4.000000e+00
   endloop
 endfacet
 facet normal  1.000000e+00 -0.000000e+00  0.000000e+00
   outer loop
     vertex  1.000000e+00 -1.000000e+00  4.000000e+00
     vertex  1.000000e+00  1.000000e+00 -4.000000e+00
     vertex  1.000000e+00  1.000000e+00  4.000000e+00
   endloop
 endfacet
 facet normal  0.000000e+00 -1.000000e+00  0.000000e+00
   outer loop
     vertex -1.000000e+00 -1.000000e+00 -4.000000e+00
     vertex  1.000000e+00 -1.000000e+00 -4.000000e+00
     vertex  1.000000e+00 -1.000000e+00  4.000000e+00
   endloop
 endfacet
 facet normal  0.000000e+00 -1.000000e+00  0.000000e+00
   outer loop
     vertex -1.000000e+00 -1.000000e+00  4.000000e+00
     vertex -1.000000e+00 -1.000000e+00 -4.000000e+00
     vertex  1.000000e+00 -1.000000e+00  4.000000e+00
   endloop
 endfacet
 facet normal  0.000000e+00 -0.000000e+00 -1.000000e+00
   outer loop
     vertex -1.426784e-01  1.994904e+00  4.000000e+00
     vertex  5.821664e-16  2.000000e+00  4.000000e+00
     vertex -1.000000e+00  1.000000e+00  4.000000e+00
   endloop
 endfacet
 facet normal  0.000000e+00 -0.000000e+00 -1.000000e+00
   outer loop
     vertex -1.994904e+00  1.426784e-01  4.000000e+00
     vertex -1.000000e+00  1.000000e+00  4.000000e+00
     vertex -2.000000e+00  2.021286e-15  4.000000e+00
   endloop
 endfacet
 facet normal  0.000000e+00 -0.000000e+00 -1.000000e+00
   outer loop
     vertex -2.846297e-01  1.979643e+00  4.000000e+00
     vertex -1.426784e-01  1.994904e+00  4.000000e+00
     vertex -1.000000e+00  1.000000e+00  4.000000e+00
   endloop
 endfacet
 facet normal  0.000000e+00 -0.000000e+00 -1.000000e+00
   outer loop
     vertex -1.979643e+00  2.846297e-01  4.000000e+00
     vertex -1.000000e+00  1.000000e+00  4.000000e+00
     vertex -1.994904e+00  1.426784e-01  4.000000e+00
   endloop
 endfacet
 facet normal  0.000000e+00 -0.000000e+00 -1.000000e+00
   outer loop
     vertex -4.251306e-01  1.954294e+00  4.000000e+00
     vertex -2.846297e-01  1.979643e+00  4.000000e+00
     vertex -1.000000e+00  1.000000e+00  4.000000e+00
   endloop
 endfacet
 facet normal  0.000000e+00 -0.000000e+00 -1.000000e+00
   outer loop
     vertex -1.954294e+00  4.251306e-01  4.000000e+00
     vertex -1.000000e+00  1.000000e+00  4.000000e+00
     vertex -1.979643e+00  2.846297e-01  4.000000e+00
   endloop
 endfacet
 facet normal  0.000000e+00 -0.000000e+00 -1.000000e+00
   outer loop
     vertex -5.634651e-01  1.918986e+00  4.000000e+00
     vertex -4.251306e-01  1.954294e+00  4.000000e+00
     vertex -1.000000e+00  1.000000e+00  4.000000e+00
   endloop
 endfacet
 facet normal  0.000000e+00 -0.000000e+00 -1.000000e+00
   outer loop
     vertex -1.918986e+00  5.634651e-01  4.000000e+00
     vertex -1.000000e+00  1.000000e+00  4.000000e+00
     vertex -1.954294e+00  4.251306e-01  4.000000e+00
   endloop
 endfacet
 facet normal  0.000000e+00 -0.000000e+00 -1.000000e+00
   outer loop
     vertex -6.989284e-01  1.873899e+00  4.000000e+00
     vertex -5.634651e-01  1.918986e+00  4.000000e+00
     vertex -1.000000e+00  1.000000e+00  4.000000e+00
   endloop
 endfacet
 facet normal  0.000000e+00 -0.000000e+00 -1.000000e+00
   outer loop
     vertex -1.873899e+00  6.989284e-01  4.000000e+00
     vertex -1.000000e+00  1.000000e+00  4.000000e+00
     vertex -1.918986e+00  5.634651e-01  4.000000e+00
   endloop
 endfacet
 facet normal  0.000000e+00 -0.000000e+00 -1.000000e+00
   outer loop
     vertex -8.308300e-01  1.819264e+00  4.000000e+00
     vertex -6.989284e-01  1.873899e+00  4.000000e+00
     vertex -1.000000e+00  1.000000e+00  4.000000e+00
   endloop
 endfacet
 facet normal  0.000000e+00 -0.000000e+00 -1.000000e+00
   outer loop
     vertex -1.819264e+00  8.308300e-01  4.000000e+00
     vertex -1.000000e+00  1.000000e+00  4.000000e+00
     vertex -1.873899e+00  6.989284e-01  4.000000e+00
   endloop
 endfacet
 facet normal  0.000000e+00  0.000000e+00 -1.000000e+00
   outer loop
     vertex  1.000000e+00  1.000000e+00  4.000000e+00
     vertex  1.994904e+00  1.426784e-01  4.000000e+00
     vertex  2.000000e+00  0.000000e+00  4.000000e+00
   endloop
 endfacet
 facet normal  0.000000e+00 -0.000000e+00 -1.000000e+00
   outer loop
     vertex -9.584980e-01  1.755358e+00  4.000000e+00
     vertex -8.308300e-01  1.819264e+00  4.000000e+00
     vertex -1.000000e+00  1.000000e+00  4.000000e+00
   endloop
 endfacet
 facet normal  0.000000e+00  0.000000e+00 -1.000000e+00
   outer loop
     vertex  1.000000e+00  1.000000e+00  4.000000e+00
     vertex  1.979643e+00  2.846297e-01  4.000000e+00
     vertex  1.994904e+00  1.426784e-01  4.000000e+00
   endloop
 endfacet
 facet normal  0.000000e+00  0.000000e+00 -1.000000e+00
   outer loop
     vertex  1.000000e+00  1.000000e+00  4.000000e+00
     vertex  1.954294e+00  4.251306e-01  4.000000e+00
     vertex  1.979643e+00  2.846297e-01  4.000000e+00
   endloop
 endfacet
 facet normal  0.000000e+00  0.000000e+00 -1.000000e+00
   outer loop
     vertex  1.000000e+00  1.000000e+00  4.000000e+00
     vertex  1.918986e+00  5.634651e-01  4.000000e+00
     vertex  1.954294e+00  4.251306e-01  4.000000e+00
   endloop
 endfacet
 facet normal  0.000000e+00  0.000000e+00 -1.000000e+00
   outer loop
     vertex  1.000000e+00  1.000000e+00  4.000000e+00
     vertex  1.873899e+00  6.989284e-01  4.000000e+00
     vertex  1.918986e+00  5.634651e-01  4.000000e+00
   endloop
 endfacet
 facet normal  0.000000e+00  0.000000e+00 -1.000000e+00
   outer loop
     vertex  1.000000e+00  1.000000e+00  4.000000e+00
     vertex  1.819264e+00  8.308300e-01  4.000000e+00
     vertex  1.873899e+00  6.989284e-01  4.000000e+00
   endloop
 endfacet
 facet normal  0.000000e+00 -0.000000e+00 -1.000000e+00
   outer loop
     vertex -1.755358e+00  9.584980e-01  4.000000e+00
     vertex -1.000000e+00  1.000000e+00  4.000000e+00
     vertex -1.819264e+00  8.308300e-01  4.000000e+00
   endloop
 endfacet
 facet normal  0.000000e+00  0.000000e+00 -1.000000e+00
   outer loop
     vertex  1.000000e+00  1.000000e+00  4.000000e+00
     vertex  1.755358e+00  9.584980e-01  4.000000e+00
     vertex  1.819264e+00  8.308300e-01  4.000000e+00
   endloop
 endfacet
 facet normal  0.000000e+00  0.000000e+00 -1.000000e+00
   outer loop
     vertex  1.000000e+00  1.000000e+00  4.000000e+00
     vertex  1.682507e+00  1.081282e+00  4.000000e+00
     vertex  1.755358e+00  9.584980e-01  4.000000e+00
   endloop
 endfacet
 facet normal  0.000000e+00  0.000000e+00 -1.000000e+00
   outer loop
     vertex  1.000000e+00  1.000000e+00  4.000000e+00
     vertex  1.601082e+00  1.198555e+00  4.000000e+00
     vertex  1.682507e+00  1.081282e+00  4.000000e+00
   endloop
 endfacet
 facet normal  0.000000e+00  0.000000e+00 -1.000000e+00
   outer loop
     vertex  1.000000e+00  1.000000e+00  4.000000e+00
     vertex  1.511499e+00  1.309721e+00  4.000000e+00
     vertex  1.601082e+00  1.198555e+00  4.000000e+00
   endloop
 endfacet
 facet normal  0.000000e+00 -0.000000e+00 -1.000000e+00
   outer loop
     vertex -1.081282e+00  1.682507e+00  4.000000e+00
     vertex -9.584980e-01  1.755358e+00  4.000000e+00
     vertex -1.000000e+00  1.000000e+00  4.000000e+00
   endloop
 endfacet
 facet normal  0.000000e+00  0.000000e+00 -1.000000e+00
   outer loop
     vertex  1.000000e+00  1.000000e+00  4.000000e+00
     vertex  1.414214e+00  1.414214e+00  4.000000e+00
     vertex  1.511499e+00  1.309721e+00  4.000000e+00
   endloop
 endfacet
 facet normal  0.000000e+00 -0.000000e+00 -1.000000e+00
   outer loop
     vertex  1.000000e+00  1.000000e+00  4.000000e+00
     vertex  2.000000e+00  0.000000e+00  4.000000e+00
     vertex  1.000000e+00 -1.000000e+00  4.000000e+00
   endloop
 endfacet
 facet normal  0.000000e+00 -0.000000e+00 -1.000000e+00
   outer loop
     vertex -1.682507e+00  1.081282e+00  4.000000e+00
     vertex -1.000000e+00  1.000000e+00  4.000000e+00
     vertex -1.755358e+00  9.584980e-01  4.000000e+00
   endloop
 endfacet
 facet normal  0.000000e+00 -0.000000e+00 -1.000000e+00
   outer loop
     vertex -1.000000e+00 -1.000000e+00  4.000000e+00
     vertex  1.000000e+00 -1.000000e+00  4.000000e+00
     vertex -3.904495e-15 -2.000000e+00  4.000000e+00
   endloop
 endfacet
 facet normal -0.000000e+00  0.000000e+00 -1.000000e+00
   outer loop
     vertex -1.000000e+00 -1.000000e+00  4.000000e+00
     vertex -1.198555e+00 -1.601082e+00  4.000000e+00
     vertex -1.309721e+00 -1.511499e+00  4.000000e+00
   endloop
 endfacet
 facet normal -0.000000e+00  0.000000e+00 -1.000000e+00
   outer loop
     vertex -1.000000e+00 -1.000000e+00  4.000000e+00
     vertex -1.081282e+00 -1.682507e+00  4.000000e+00
     vertex -1.198555e+00 -1.601082e+00  4.000000e+00
   endloop
 endfacet
 facet normal  0.000000e+00  0.000000e+00 -1.000000e+00
   outer loop
     vertex -1.198555e+00  1.601082e+00  4.000000e+00
     vertex -1.081282e+00  1.682507e+00  4.000000e+00
     vertex -1.000000e+00  1.000000e+00  4.000000e+00
   endloop
 endfacet
 facet normal -0.000000e+00 -0.000000e+00 -1.000000e+00
   outer loop
     vertex -1.000000e+00 -1.000000e+00  4.000000e+00
     vertex -9.584980e-01 -1.755358e+00  4.000000e+00
     vertex -1.081282e+00 -1.682507e+00  4.000000e+00
   endloop
 endfacet
 facet normal -0.000000e+00 -0.000000e+00 -1.000000e+00
   outer loop
     vertex -1.000000e+00 -1.000000e+00  4.000000e+00
     vertex -8.308300e-01 -1.819264e+00  4.000000e+00
     vertex -9.584980e-01 -1.755358e+00  4.000000e+00
   endloop
 endfacet
 facet normal -0.000000e+00 -0.000000e+00 -1.000000e+00
   outer loop
     vertex -1.000000e+00 -1.000000e+00  4.000000e+00
     vertex -6.989284e-01 -1.873899e+00  4.000000e+00
     vertex -8.308300e-01 -1.819264e+00  4.000000e+00
   endloop
 endfacet
 facet normal -0.000000e+00 -0.000000e+00 -1.000000e+00
   outer loop
     vertex -1.000000e+00 -1.000000e+00  4.000000e+00
     vertex -5.634651e-01 -1.918986e+00  4.000000e+00
     vertex -6.989284e-01 -1.873899e+00  4.000000e+00
   endloop
 endfacet
 facet normal -0.000000e+00 -0.000000e+00 -1.000000e+00
   outer loop
     vertex -1.601082e+00  1.198555e+00  4.000000e+00
     vertex -1.000000e+00  1.000000e+00  4.000000e+00
     vertex -1.682507e+00  1.081282e+00  4.000000e+00
   endloop
 endfacet
 facet normal -0.000000e+00 -0.000000e+00 -1.000000e+00
   outer loop
     vertex -1.000000e+00 -1.000000e+00  4.000000e+00
     vertex -4.251306e-01 -1.954294e+00  4.000000e+00
     vertex -5.634651e-01 -1.918986e+00  4.000000e+00
   endloop
 endfacet
 facet normal -0.000000e+00 -0.000000e+00 -1.000000e+00
   outer loop
     vertex -1.000000e+00 -1.000000e+00  4.000000e+00
     vertex -2.846297e-01 -1.979643e+00  4.000000e+00
     vertex -4.251306e-01 -1.954294e+00  4.000000e+00
   endloop
 endfacet
 facet normal -0.000000e+00 -0.000000e+00 -1.000000e+00
   outer loop
     vertex -1.000000e+00 -1.000000e+00  4.000000e+00
     vertex -1.426784e-01 -1.994904e+00  4.000000e+00
     vertex -2.846297e-01 -1.979643e+00  4.000000e+00
   endloop
 endfacet
 facet normal -0.000000e+00 -0.000000e+00 -1.000000e+00
   outer loop
     vertex -1.000000e+00 -1.000000e+00  4.000000e+00
     vertex -3.904495e-15 -2.000000e+00  4.000000e+00
     vertex -1.426784e-01 -1.994904e+00  4.000000e+00
   endloop
 endfacet
 facet normal  0.000000e+00  0.000000e+00 -1.000000e+00
   outer loop
     vertex -1.309721e+00  1.511499e+00  4.000000e+00
     vertex -1.198555e+00  1.601082e+00  4.000000e+00
     vertex -1.000000e+00  1.000000e+00  4.000000e+00
   endloop
 endfacet
 facet normal  0.000000e+00 -0.000000e+00 -1.000000e+00
   outer loop
     vertex -1.414214e+00 -1.414214e+00  4.000000e+00
     vertex -1.000000e+00 -1.000000e+00  4.000000e+00
     vertex -1.309721e+00 -1.511499e+00  4.000000e+00
   endloop
 endfacet
 facet normal -0.000000e+00 -0.000000e+00 -1.000000e+00
   outer loop
     vertex -1.511499e+00  1.309721e+00  4.000000e+00
     vertex -1.000000e+00  1.000000e+00  4.000000e+00
     vertex -1.601082e+00  1.198555e+00  4.000000e+00
   endloop
 endfacet
 facet normal  0.000000e+00 -0.000000e+00 -1.000000e+00
   outer loop
     vertex  1.309721e+00  1.511499e+00  4.000000e+00
     vertex  1.414214e+00  1.414214e+00  4.000000e+00
     vertex  1.000000e+00  1.000000e+00  4.000000e+00
   endloop
 endfacet
 facet normal  0.000000e+00  0.000000e+00 -1.000000e+00
   outer loop
     vertex -1.414214e+00  1.414214e+00  4.000000e+00
     vertex -1.309721e+00  1.511499e+00  4.000000e+00
     vertex -1.000000e+00  1.000000e+00  4.000000e+00
   endloop
 endfacet
 facet normal -0.000000e+00 -0.000000e+00 -1.000000e+00
   outer loop
     vertex -1.414214e+00  1.414214e+00  4.000000e+00
     vertex -1.000000e+00  1.000000e+00  4.000000e+00
     vertex -1.511499e+00  1.309721e+00  4.000000e+00
   endloop
 endfacet
 facet normal  0.000000e+00 -0.000000e+00 -1.000000e+00
   outer loop
     vertex -1.511499e+00 -1.309721e+00  4.000000e+00
     vertex -1.000000e+00 -1.000000e+00  4.000000e+00
     vertex -1.414214e+00 -1.414214e+00  4.000000e+00
   endloop
 endfacet
 facet normal  0.000000e+00 -0.000000e+00 -1.000000e+00
   outer loop
     vertex  1.198555e+00  1.601082e+00  4.000000e+00
     vertex  1.309721e+00  1.511499e+00  4.000000e+00
     vertex  1.000000e+00  1.000000e+00  4.000000e+00
   endloop
 endfacet
 facet normal  0.000000e+00 -0.000000e+00 -1.000000e+00
   outer loop
     vertex -1.601082e+00 -1.198555e+00  4.000000e+00
     vertex -1.000000e+00 -1.000000e+00  4.000000e+00
     vertex -1.511499e+00 -1.309721e+00  4.000000e+00
   endloop
 endfacet
 facet normal  0.000000e+00 -0.000000e+00 -1.000000e+00
   outer loop
     vertex  1.081282e+00  1.682507e+00  4.000000e+00
     vertex  1.198555e+00  1.601082e+00  4.000000e+00
     vertex  1.000000e+00  1.000000e+00  4.000000e+00
   endloop
 endfacet
 facet normal  0.000000e+00 -0.000000e+00 -1.000000e+00
   outer loop
     vertex -1.682507e+00 -1.081282e+00  4.000000e+00
     vertex -1.000000e+00 -1.000000e+00  4.000000e+00
     vertex -1.601082e+00 -1.198555e+00  4.000000e+00
   endloop
 endfacet
 facet normal  0.000000e+00 -0.000000e+00 -1.000000e+00
   outer loop
     vertex  9.584980e-01  1.755358e+00  4.000000e+00
     vertex  1.081282e+00  1.682507e+00  4.000000e+00
     vertex  1.000000e+00  1.000000e+00  4.000000e+00
   endloop
 endfacet
 facet normal  0.000000e+00 -0.000000e+00 -1.000000e+00
   outer loop
     vertex -1.755358e+00 -9.584980e-01  4.000000e+00
     vertex -1.000000e+00 -1.000000e+00  4.000000e+00
     vertex -1.682507e+00 -1.081282e+00  4.000000e+00
   endloop
 endfacet
 facet normal  0.000000e+00  0.000000e+00 -1.000000e+00
   outer loop
     vertex  8.308300e-01  1.819264e+00  4.000000e+00
     vertex  9.584980e-01  1.755358e+00  4.000000e+00
     vertex  1.000000e+00  1.000000e+00  4.000000e+00
   endloop
 endfacet
 facet normal -0.000000e+00 -0.000000e+00 -1.000000e+00
   outer loop
     vertex -1.819264e+00 -8.308300e-01  4.000000e+00
     vertex -1.000000e+00 -1.000000e+00  4.000000e+00
     vertex -1.755358e+00 -9.584980e-01  4.000000e+00
   endloop
 endfacet
 facet normal  0.000000e+00  0.000000e+00 -1.000000e+00
   outer loop
     vertex  1.000000e+00 -1.000000e+00  4.000000e+00
     vertex  2.846297e-01 -1.979643e+00  4.000000e+00
     vertex  1.426784e-01 -1.994904e+00  4.000000e+00
   endloop
 endfacet
 facet normal  0.000000e+00  0.000000e+00 -1.000000e+00
   outer loop
     vertex  1.000000e+00 -1.000000e+00  4.000000e+00
     vertex  4.251306e-01 -1.954294e+00  4.000000e+00
     vertex  2.846297e-01 -1.979643e+00  4.000000e+00
   endloop
 endfacet
 facet normal  0.000000e+00  0.000000e+00 -1.000000e+00
   outer loop
     vertex  1.000000e+00 -1.000000e+00  4.000000e+00
     vertex  5.634651e-01 -1.918986e+00  4.000000e+00
     vertex  4.251306e-01 -1.954294e+00  4.000000e+00
   endloop
 endfacet
 facet normal  0.000000e+00  0.000000e+00 -1.000000e+00
   outer loop
     vertex  1.000000e+00 -1.000000e+00  4.000000e+00
     vertex  6.989284e-01 -1.873899e+00  4.000000e+00
     vertex  5.634651e-01 -1.918986e+00  4.000000e+00
   endloop
 endfacet
 facet normal  0.000000e+00  0.000000e+00 -1.000000e+00
   outer loop
     vertex  1.000000e+00 -1.000000e+00  4.000000e+00
     vertex  8.308300e-01 -1.819264e+00  4.000000e+00
     vertex  6.989284e-01 -1.873899e+00  4.000000e+00
   endloop
 endfacet
 facet normal  0.000000e+00  0.000000e+00 -1.000000e+00
   outer loop
     vertex  1.000000e+00 -1.000000e+00  4.000000e+00
     vertex  9.584980e-01 -1.755358e+00  4.000000e+00
     vertex  8.308300e-01 -1.819264e+00  4.000000e+00
   endloop
 endfacet
 facet normal  0.000000e+00 -0.000000e+00 -1.000000e+00
   outer loop
     vertex  1.000000e+00 -1.000000e+00  4.000000e+00
     vertex  1.081282e+00 -1.682507e+00  4.000000e+00
     vertex  9.584980e-01 -1.755358e+00  4.000000e+00
   endloop
 endfacet
 facet normal  0.000000e+00 -0.000000e+00 -1.000000e+00
   outer loop
     vertex  1.000000e+00 -1.000000e+00  4.000000e+00
     vertex  1.198555e+00 -1.601082e+00  4.000000e+00
     vertex  1.081282e+00 -1.682507e+00  4.000000e+00
   endloop
 endfacet
 facet normal  0.000000e+00  0.000000e+00 -1.000000e+00
   outer loop
     vertex  6.989284e-01  1.873899e+00  4.000000e+00
     vertex  8.308300e-01  1.819264e+00  4.000000e+00
     vertex  1.000000e+00  1.000000e+00  4.000000e+00
   endloop
 endfacet
 facet normal  0.000000e+00 -0.000000e+00 -1.000000e+00
   outer loop
     vertex  1.000000e+00 -1.000000e+00  4.000000e+00
     vertex  1.309721e+00 -1.511499e+00  4.000000e+00
     vertex  1.198555e+00 -1.601082e+00  4.000000e+00
   endloop
 endfacet
 facet normal  0.000000e+00 -0.000000e+00 -1.000000e+00
   outer loop
     vertex  1.000000e+00 -1.000000e+00  4.000000e+00
     vertex  1.414214e+00 -1.414214e+00  4.000000e+00
     vertex  1.309721e+00 -1.511499e+00  4.000000e+00
   endloop
 endfacet
 facet normal -0.000000e+00 -0.000000e+00 -1.000000e+00
   outer loop
     vertex -1.873899e+00 -6.989284e-01  4.000000e+00
     vertex -1.000000e+00 -1.000000e+00  4.000000e+00
     vertex -1.819264e+00 -8.308300e-01  4.000000e+00
   endloop
 endfacet
 facet normal  0.000000e+00 -0.000000e+00 -1.000000e+00
   outer loop
     vertex  1.000000e+00 -1.000000e+00  4.000000e+00
     vertex  1.511499e+00 -1.309721e+00  4.000000e+00
     vertex  1.414214e+00 -1.414214e+00  4.000000e+00
   endloop
 endfacet
 facet normal  0.000000e+00 -0.000000e+00 -1.000000e+00
   outer loop
     vertex  1.000000e+00 -1.000000e+00  4.000000e+00
     vertex  1.601082e+00 -1.198555e+00  4.000000e+00
     vertex  1.511499e+00 -1.309721e+00  4.000000e+00
   endloop
 endfacet
 facet normal  0.000000e+00 -0.000000e+00 -1.000000e+00
   outer loop
     vertex  1.000000e+00 -1.000000e+00  4.000000e+00
     vertex  1.682507e+00 -1.081282e+00  4.000000e+00
     vertex  1.601082e+00 -1.198555e+00  4.000000e+00
   endloop
 endfacet
 facet normal  0.000000e+00 -0.000000e+00 -1.000000e+00
   outer loop
     vertex  1.000000e+00 -1.000000e+00  4.000000e+00
     vertex  1.755358e+00 -9.584980e-01  4.000000e+00
     vertex  1.682507e+00 -1.081282e+00  4.000000e+00
   endloop
 endfacet
 facet normal  0.000000e+00 -0.000000e+00 -1.000000e+00
   outer loop
     vertex  1.000000e+00 -1.000000e+00  4.000000e+00
     vertex  1.819264e+00 -8.308300e-01  4.000000e+00
     vertex  1.755358e+00 -9.584980e-01  4.000000e+00
   endloop
 endfacet
 facet normal  0.000000e+00 -0.000000e+00 -1.000000e+00
   outer loop
     vertex  1.000000e+00 -1.000000e+00  4.000000e+00
     vertex  1.873899e+00 -6.989284e-01  4.000000e+00
     vertex  1.819264e+00 -8.308300e-01  4.000000e+00
   endloop
 endfacet
 facet normal  0.000000e+00 -0.000000e+00 -1.000000e+00
   outer loop
     vertex  1.000000e+00 -1.000000e+00  4.000000e+00
     vertex  1.918986e+00 -5.634651e-01  4.000000e+00
     vertex  1.873899e+00 -6.989284e-01  4.000000e+00
   endloop
 endfacet
 facet normal  0.000000e+00 -0.000000e+00 -1.000000e+00
   outer loop
     vertex  1.000000e+00 -1.000000e+00  4.000000e+00
     vertex  1.954294e+00 -4.251306e-01  4.000000e+00
     vertex  1.918986e+00 -5.634651e-01  4.000000e+00
   endloop
 endfacet
 facet normal  0.000000e+00  0.000000e+00 -1.000000e+00
   outer loop
     vertex  5.634651e-01  1.918986e+00  4.000000e+00
     vertex  6.989284e-01  1.873899e+00  4.000000e+00
     vertex  1.000000e+00  1.000000e+00  4.000000e+00
   endloop
 endfacet
 facet normal  0.000000e+00 -0.000000e+00 -1.000000e+00
   outer loop
     vertex  1.000000e+00 -1.000000e+00  4.000000e+00
     vertex  1.979643e+00 -2.846297e-01  4.000000e+00
     vertex  1.954294e+00 -4.251306e-01  4.000000e+00
   endloop
 endfacet
 facet normal  0.000000e+00 -0.000000e+00 -1.000000e+00
   outer loop
     vertex  1.000000e+00 -1.000000e+00  4.000000e+00
     vertex  1.994904e+00 -1.426784e-01  4.000000e+00
     vertex  1.979643e+00 -2.846297e-01  4.000000e+00
   endloop
 endfacet
 facet normal -0.000000e+00 -0.000000e+00 -1.000000e+00
   outer loop
     vertex -1.918986e+00 -5.634651e-01  4.000000e+00
     vertex -1.000000e+00 -1.000000e+00  4.000000e+00
     vertex -1.873899e+00 -6.989284e-01  4.000000e+00
   endloop
 endfacet
 facet normal  0.000000e+00 -0.000000e+00 -1.000000e+00
   outer loop
     vertex  1.000000e+00 -1.000000e+00  4.000000e+00
     vertex  2.000000e+00  0.000000e+00  4.000000e+00
     vertex  1.994904e+00 -1.426784e-01  4.000000e+00
   endloop
 endfacet
 facet normal  0.000000e+00 -0.000000e+00 -1.000000e+00
   outer loop
     vertex -3.904495e-15 -2.000000e+00  4.000000e+00
     vertex  1.000000e+00 -1.000000e+00  4.000000e+00
     vertex  1.426784e-01 -1.994904e+00  4.000000e+00
   endloop
 endfacet
 facet normal  0.000000e+00  0.000000e+00 -1.000000e+00
   outer loop
     vertex  4.251306e-01  1.954294e+00  4.000000e+00
     vertex  5.634651e-01  1.918986e+00  4.000000e+00
     vertex  1.000000e+00  1.000000e+00  4.000000e+00
   endloop
 endfacet
 facet normal -0.000000e+00 -0.000000e+00 -1.000000e+00
   outer loop
     vertex -1.954294e+00 -4.251306e-01  4.000000e+00
     vertex -1.000000e+00 -1.000000e+00  4.000000e+00
     vertex -1.918986e+00 -5.634651e-01  4.000000e+00
   endloop
 endfacet
 facet normal  0.000000e+00  0.000000e+00 -1.000000e+00
   outer loop
     vertex  2.846297e-01  1.979643e+00  4.000000e+00
     vertex  4.251306e-01  1.954294e+00  4.000000e+00
     vertex  1.000000e+00  1.000000e+00  4.000000e+00
   endloop
 endfacet
 facet normal -0.000000e+00 -0.000000e+00 -1.000000e+00
   outer loop
     vertex -1.979643e+00 -2.846297e-01  4.000000e+00
     vertex -1.000000e+00 -1.000000e+00  4.000000e+00
     vertex -1.954294e+00 -4.251306e-01  4.000000e+00
   endloop
 endfacet
 facet normal  0.000000e+00  0.000000e+00 -1.000000e+00
   outer loop
     vertex  1.426784e-01  1.994904e+00  4.000000e+00
     vertex  2.846297e-01  1.979643e+00  4.000000e+00
     vertex  1.000000e+00  1.000000e+00  4.000000e+00
   endloop
 endfacet
 facet normal -0.000000e+00 -0.000000e+00 -1.000000e+00
   outer loop
     vertex -1.994904e+00 -1.426784e-01  4.000000e+00
     vertex -1.000000e+00 -1.000000e+00  4.000000e+00
     vertex -1.979643e+00 -2.846297e-01  4.000000e+00
   endloop
 endfacet
 facet normal  0.000000e+00  0.000000e+00 -1.000000e+00
   outer loop
     vertex  5.821664e-16  2.000000e+00  4.000000e+00
     vertex  1.426784e-01  1.994904e+00  4.000000e+00
     vertex  1.000000e+00  1.000000e+00  4.000000e+00
   endloop
 endfacet
 facet normal  0.000000e+00  0.000000e+00 -1.000000e+00
   outer loop
     vertex -1.000000e+00  1.000000e+00  4.000000e+00
     vertex  5.821664e-16  2.000000e+00  4.000000e+00
     vertex  1.000000e+00  1.000000e+00  4.000000e+00
   endloop
 endfacet
 facet normal -0.000000e+00 -0.000000e+00 -1.000000e+00
   outer loop
     vertex -2.000000e+00  2.021286e-15  4.000000e+00
     vertex -1.000000e+00 -1.000000e+00  4.000000e+00
     vertex -1.994904e+00 -1.426784e-01  4.000000e+00
   endloop
 endfacet
 facet normal  0.000000e+00  0.000000e+00 -1.000000e+00
   outer loop
     vertex -2.000000e+00  2.021286e-15  4.000000e+00
     vertex -1.000000e+00  1.000000e+00  4.000000e+00
     vertex -1.000000e+00 -1.000000e+00  4.000000e+00
   endloop
 endfacet
 facet normal  9.993628e-01  3.569233e-02  0.000000e+00
   outer loop
     vertex  2.000000e+00  0.000000e+00  6.000000e+00
     vertex  2.000000e+00  0.000000e+00  4.000000e+00
     vertex  1.994904e+00  1.426784e-01  4.000000e+00
   endloop
 endfacet
 facet normal  9.993628e-01  3.569233e-02  0.000000e+00
   outer loop
     vertex  1.994904e+00  1.426784e-01  6.000000e+00
     vertex  2.000000e+00  0.000000e+00  6.000000e+00
     vertex  1.994904e+00  1.426784e-01  4.000000e+00
   endloop
 endfacet
 facet normal  9.942703e-01  1.068951e-01  0.000000e+00
   outer loop
     vertex  1.979643e+00  2.846297e-01  6.000000e+00
     vertex  1.994904e+00  1.426784e-01  6.000000e+00
     vertex  1.979643e+00  2.846297e-01  4.000000e+00
   endloop
 endfacet
 facet normal  9.942703e-01  1.068951e-01  0.000000e+00
   outer loop
     vertex  1.994904e+00  1.426784e-01  6.000000e+00
     vertex  1.994904e+00  1.426784e-01  4.000000e+00
     vertex  1.979643e+00  2.846297e-01  4.000000e+00
   endloop
 endfacet
 facet normal  9.841112e-01  1.775532e-01  0.000000e+00
   outer loop
     vertex  1.954294e+00  4.251306e-01  6.000000e+00
     vertex  1.979643e+00  2.846297e-01  6.000000e+00
     vertex  1.954294e+00  4.251306e-01  4.000000e+00
   endloop
 endfacet
 facet normal  9.841112e-01  1.775532e-01  0.000000e+00
   outer loop
     vertex  1.979643e+00  2.846297e-01  6.000000e+00
     vertex  1.979643e+00  2.846297e-01  4.000000e+00
     vertex  1.954294e+00  4.251306e-01  4.000000e+00
   endloop
 endfacet
 facet normal  9.689373e-01  2.473065e-01  0.000000e+00
   outer loop
     vertex  1.918986e+00  5.634651e-01  6.000000e+00
     vertex  1.954294e+00  4.251306e-01  6.000000e+00
     vertex  1.954294e+00  4.251306e-01  4.000000e+00
   endloop
 endfacet
 facet normal  9.689373e-01  2.473065e-01  0.000000e+00
   outer loop
     vertex  1.918986e+00  5.634651e-01  6.000000e+00
     vertex  1.954294e+00  4.251306e-01  4.000000e+00
     vertex  1.918986e+00  5.634651e-01  4.000000e+00
   endloop
 endfacet
 facet normal  9.488259e-01  3.157996e-01  0.000000e+00
   outer loop
     vertex  1.873899e+00  6.989284e-01  6.000000e+00
     vertex  1.918986e+00  5.634651e-01  6.000000e+00
     vertex  1.873899e+00  6.989284e-01  4.000000e+00
   endloop
 endfacet
 facet normal  9.238795e-01  3.826834e-01  0.000000e+00
   outer loop
     vertex  1.819264e+00  8.308300e-01  6.000000e+00
     vertex  1.873899e+00  6.989284e-01  6.000000e+00
     vertex  1.873899e+00  6.989284e-01  4.000000e+00
   endloop
 endfacet
 facet normal  9.488259e-01  3.157996e-01  0.000000e+00
   outer loop
     vertex  1.918986e+00  5.634651e-01  6.000000e+00
     vertex  1.918986e+00  5.634651e-01  4.000000e+00
     vertex  1.873899e+00  6.989284e-01  4.000000e+00
   endloop
 endfacet
 facet normal  9.238795e-01  3.826834e-01  0.000000e+00
   outer loop
     vertex  1.819264e+00  8.308300e-01  6.000000e+00
     vertex  1.873899e+00  6.989284e-01  4.000000e+00
     vertex  1.819264e+00  8.308300e-01  4.000000e+00
   endloop
 endfacet
 facet normal  8.942253e-01  4.476172e-01  0.000000e+00
   outer loop
     vertex  1.755358e+00  9.584980e-01  6.000000e+00
     vertex  1.819264e+00  8.308300e-01  6.000000e+00
     vertex  1.819264e+00  8.308300e-01  4.000000e+00
   endloop
 endfacet
 facet normal  8.942253e-01  4.476172e-01  0.000000e+00
   outer loop
     vertex  1.755358e+00  9.584980e-01  6.000000e+00
     vertex  1.819264e+00  8.308300e-01  4.000000e+00
     vertex  1.755358e+00  9.584980e-01  4.000000e+00
   endloop
 endfacet
 facet normal  8.600142e-01  5.102700e-01  0.000000e+00
   outer loop
     vertex  1.755358e+00  9.584980e-01  6.000000e+00
     vertex  1.755358e+00  9.584980e-01  4.000000e+00
     vertex  1.682507e+00  1.081282e+00  4.000000e+00
   endloop
 endfacet
 facet normal  8.600142e-01  5.102700e-01  0.000000e+00
   outer loop
     vertex  1.682507e+00  1.081282e+00  6.000000e+00
     vertex  1.755358e+00  9.584980e-01  6.000000e+00
     vertex  1.682507e+00  1.081282e+00  4.000000e+00
   endloop
 endfacet
 facet normal  8.214208e-01  5.703226e-01  0.000000e+00
   outer loop
     vertex  1.682507e+00  1.081282e+00  6.000000e+00
     vertex  1.682507e+00  1.081282e+00  4.000000e+00
     vertex  1.601082e+00  1.198555e+00  4.000000e+00
   endloop
 endfacet
 facet normal  8.214208e-01  5.703226e-01  0.000000e+00
   outer loop
     vertex  1.601082e+00  1.198555e+00  6.000000e+00
     vertex  1.682507e+00  1.081282e+00  6.000000e+00
     vertex  1.601082e+00  1.198555e+00  4.000000e+00
   endloop
 endfacet
 facet normal  7.786415e-01  6.274690e-01  0.000000e+00
   outer loop
     vertex  1.601082e+00  1.198555e+00  6.000000e+00
     vertex  1.601082e+00  1.198555e+00  4.000000e+00
     vertex  1.511499e+00  1.309721e+00  4.000000e+00
   endloop
 endfacet
 facet normal  7.786415e-01  6.274690e-01  0.000000e+00
   outer loop
     vertex  1.511499e+00  1.309721e+00  6.000000e+00
     vertex  1.601082e+00  1.198555e+00  6.000000e+00
     vertex  1.511499e+00  1.309721e+00  4.000000e+00
   endloop
 endfacet
 facet normal  7.318945e-01  6.814179e-01  0.000000e+00
   outer loop
     vertex  1.414214e+00  1.414214e+00  6.000000e+00
     vertex  1.511499e+00  1.309721e+00  6.000000e+00
     vertex  1.414214e+00  1.414214e+00  4.000000e+00
   endloop
 endfacet
 facet normal  7.318945e-01  6.814179e-01  0.000000e+00
   outer loop
     vertex  1.511499e+00  1.309721e+00  6.000000e+00
     vertex  1.511499e+00  1.309721e+00  4.000000e+00
     vertex  1.414214e+00  1.414214e+00  4.000000e+00
   endloop
 endfacet
 facet normal  6.814179e-01  7.318945e-01  0.000000e+00
   outer loop
     vertex  1.309721e+00  1.511499e+00  6.000000e+00
     vertex  1.414214e+00  1.414214e+00  6.000000e+00
     vertex  1.309721e+00  1.511499e+00  4.000000e+00
   endloop
 endfacet
 facet normal  6.814179e-01  7.318945e-01  0.000000e+00
   outer loop
     vertex  1.414214e+00  1.414214e+00  6.000000e+00
     vertex  1.414214e+00  1.414214e+00  4.000000e+00
     vertex  1.309721e+00  1.511499e+00  4.000000e+00
   endloop
 endfacet
 facet normal  6.274690e-01  7.786415e-01  0.000000e+00
   outer loop
     vertex  1.198555e+00  1.601082e+00  6.000000e+00
     vertex  1.309721e+00  1.511499e+00  6.000000e+00
     vertex  1.198555e+00  1.601082e+00  4.000000e+00
   endloop
 endfacet
 facet normal  6.274690e-01  7.786415e-01  0.000000e+00
   outer loop
     vertex  1.309721e+00  1.511499e+00  6.000000e+00
     vertex  1.309721e+00  1.511499e+00  4.000000e+00
     vertex  1.198555e+00  1.601082e+00  4.000000e+00
   endloop
 endfacet
 facet normal  5.703226e-01  8.214208e-01  0.000000e+00
   outer loop
     vertex  1.081282e+00  1.682507e+00  6.000000e+00
     vertex  1.198555e+00  1.601082e+00  6.000000e+00
     vertex  1.081282e+00  1.682507e+00  4.000000e+00
   endloop
 endfacet
 facet normal  5.703226e-01  8.214208e-01  0.000000e+00
   outer loop
     vertex  1.198555e+00  1.601082e+00  6.000000e+00
     vertex  1.198555e+00  1.601082e+00  4.000000e+00
     vertex  1.081282e+00  1.682507e+00  4.000000e+00
   endloop
 endfacet
 facet normal  5.102700e-01  8.600142e-01  0.000000e+00
   outer loop
     vertex  9.584980e-01  1.755358e+00  6.000000e+00
     vertex  1.081282e+00  1.682507e+00  6.000000e+00
     vertex  9.584980e-01  1.755358e+00  4.000000e+00
   endloop
 endfacet
 facet normal  5.102700e-01  8.600142e-01  0.000000e+00
   outer loop
     vertex  1.081282e+00  1.682507e+00  6.000000e+00
     vertex  1.081282e+00  1.682507e+00  4.000000e+00
     vertex  9.584980e-01  1.755358e+00  4.000000e+00
   endloop
 endfacet
 facet normal  4.476172e-01  8.942253e-01  0.000000e+00
   outer loop
     vertex  8.308300e-01  1.819264e+00  6.000000e+00
     vertex  9.584980e-01  1.755358e+00  6.000000e+00
     vertex  8.308300e-01  1.819264e+00  4.000000e+00
   endloop
 endfacet
 facet normal  4.476172e-01  8.942253e-01  0.000000e+00
   outer loop
     vertex  9.584980e-01  1.755358e+00  6.000000e+00
     vertex  9.584980e-01  1.755358e+00  4.000000e+00
     vertex  8.308300e-01  1.819264e+00  4.000000e+00
   endloop
 endfacet
 facet normal  3.826834e-01  9.238795e-01  0.000000e+00
   outer loop
     vertex  6.989284e-01  1.873899e+00  6.000000e+00
     vertex  8.308300e-01  1.819264e+00  6.000000e+00
     vertex  6.989284e-01  1.873899e+00  4.000000e+00
   endloop
 endfacet
 facet normal  3.826834e-01  9.238795e-01  0.000000e+00
   outer loop
     vertex  8.308300e-01  1.819264e+00  6.000000e+00
     vertex  8.308300e-01  1.819264e+00  4.000000e+00
     vertex  6.989284e-01  1.873899e+00  4.000000e+00
   endloop
 endfacet
 facet normal  3.157996e-01  9.488259e-01  0.000000e+00
   outer loop
     vertex  5.634651e-01  1.918986e+00  6.000000e+00
     vertex  6.989284e-01  1.873899e+00  6.000000e+00
     vertex  5.634651e-01  1.918986e+00  4.000000e+00
   endloop
 endfacet
 facet normal  3.157996e-01  9.488259e-01  0.000000e+00
   outer loop
     vertex  6.989284e-01  1.873899e+00  6.000000e+00
     vertex  6.989284e-01  1.873899e+00  4.000000e+00
     vertex  5.634651e-01  1.918986e+00  4.000000e+00
   endloop
 endfacet
 facet normal  2.473065e-01  9.689373e-01  0.000000e+00
   outer loop
     vertex  4.251306e-01  1.954294e+00  6.000000e+00
     vertex  5.634651e-01  1.918986e+00  6.000000e+00
     vertex  4.251306e-01  1.954294e+00  4.000000e+00
   endloop
 endfacet
 facet normal  2.473065e-01  9.689373e-01  0.000000e+00
   outer loop
     vertex  5.634651e-01  1.918986e+00  6.000000e+00
     vertex  5.634651e-01  1.918986e+00  4.000000e+00
     vertex  4.251306e-01  1.954294e+00  4.000000e+00
   endloop
 endfacet
 facet normal  1.775532e-01  9.841112e-01  0.000000e+00
   outer loop
     vertex  2.846297e-01  1.979643e+00  6.000000e+00
     vertex  4.251306e-01  1.954294e+00  6.000000e+00
     vertex  2.846297e-01  1.979643e+00  4.000000e+00
   endloop
 endfacet
 facet normal  1.775532e-01  9.841112e-01  0.000000e+00
   outer loop
     vertex  4.251306e-01  1.954294e+00  6.000000e+00
     vertex  4.251306e-01  1.954294e+00  4.000000e+00
     vertex  2.846297e-01  1.979643e+00  4.000000e+00
   endloop
 endfacet
 facet normal  1.068951e-01  9.942703e-01  0.000000e+00
   outer loop
     vertex  1.426784e-01  1.994904e+00  6.000000e+00
     vertex  2.846297e-01  1.979643e+00  6.000000e+00
     vertex  1.426784e-01  1.994904e+00  4.000000e+00
   endloop
 endfacet
 facet normal  1.068951e-01  9.942703e-01  0.000000e+00
   outer loop
     vertex  2.846297e-01  1.979643e+00  6.000000e+00
     vertex  2.846297e-01  1.979643e+00  4.000000e+00
     vertex  1.426784e-01  1.994904e+00  4.000000e+00
   endloop
 endfacet
 facet normal  3.569233e-02  9.993628e-01  0.000000e+00
   outer loop
     vertex  5.821664e-16  2.000000e+00  6.000000e+00
     vertex  1.426784e-01  1.994904e+00  6.000000e+00
     vertex  5.821664e-16  2.000000e+00  4.000000e+00
   endloop
 endfacet
 facet normal -3.569233e-02  9.993628e-01  0.000000e+00
   outer loop
     vertex -1.426784e-01  1.994904e+00  6.000000e+00
     vertex  5.821664e-16  2.000000e+00  6.000000e+00
     vertex  5.821664e-16  2.000000e+00  4.000000e+00
   endloop
 endfacet
 facet normal  3.569233e-02  9.993628e-01  0.000000e+00
   outer loop
     vertex  1.426784e-01  1.994904e+00  6.000000e+00
     vertex  1.426784e-01  1.994904e+00  4.000000e+00
     vertex  5.821664e-16  2.000000e+00  4.000000e+00
   endloop
 endfacet
 facet normal -3.569233e-02  9.993628e-01  0.000000e+00
   outer loop
     vertex -1.426784e-01  1.994904e+00  6.000000e+00
     vertex  5.821664e-16  2.000000e+00  4.000000e+00
     vertex -1.426784e-01  1.994904e+00  4.000000e+00
   endloop
 endfacet
 facet normal -1.068951e-01  9.942703e-01  0.000000e+00
   outer loop
     vertex -2.846297e-01  1.979643e+00  6.000000e+00
     vertex -1.426784e-01  1.994904e+00  6.000000e+00
     vertex -2.846297e-01  1.979643e+00  4.000000e+00
   endloop
 endfacet
 facet normal -1.775532e-01  9.841112e-01  0.000000e+00
   outer loop
     vertex -4.251306e-01  1.954294e+00  6.000000e+00
     vertex -2.846297e-01  1.979643e+00  6.000000e+00
     vertex -2.846297e-01  1.979643e+00  4.000000e+00
   endloop
 endfacet
 facet normal -1.068951e-01  9.942703e-01  0.000000e+00
   outer loop
     vertex -1.426784e-01  1.994904e+00  6.000000e+00
     vertex -1.426784e-01  1.994904e+00  4.000000e+00
     vertex -2.846297e-01  1.979643e+00  4.000000e+00
   endloop
 endfacet
 facet normal -1.775532e-01  9.841112e-01  0.000000e+00
   outer loop
     vertex -4.251306e-01  1.954294e+00  6.000000e+00
     vertex -2.846297e-01  1.979643e+00  4.000000e+00
     vertex -4.251306e-01  1.954294e+00  4.000000e+00
   endloop
 endfacet
 facet normal -2.473065e-01  9.689373e-01  0.000000e+00
   outer loop
     vertex -5.634651e-01  1.918986e+00  6.000000e+00
     vertex -4.251306e-01  1.954294e+00  6.000000e+00
     vertex -5.634651e-01  1.918986e+00  4.000000e+00
   endloop
 endfacet
 facet normal -2.473065e-01  9.689373e-01  0.000000e+00
   outer loop
     vertex -4.251306e-01  1.954294e+00  6.000000e+00
     vertex -4.251306e-01  1.954294e+00  4.000000e+00
     vertex -5.634651e-01  1.918986e+00  4.000000e+00
   endloop
 endfacet
 facet normal -3.157996e-01  9.488259e-01  0.000000e+00
   outer loop
     vertex -6.989284e-01  1.873899e+00  6.000000e+00
     vertex -5.634651e-01  1.918986e+00  6.000000e+00
     vertex -6.989284e-01  1.873899e+00  4.000000e+00
   endloop
 endfacet
 facet normal -3.826834e-01  9.238795e-01  0.000000e+00
   outer loop
     vertex -8.308300e-01  1.819264e+00  6.000000e+00
     vertex -6.989284e-01  1.873899e+00  6.000000e+00
     vertex -6.989284e-01  1.873899e+00  4.000000e+00
   endloop
 endfacet
 facet normal -3.157996e-01  9.488259e-01  0.000000e+00
   outer loop
     vertex -5.634651e-01  1.918986e+00  6.000000e+00
     vertex -5.634651e-01  1.918986e+00  4.000000e+00
     vertex -6.989284e-01  1.873899e+00  4.000000e+00
   endloop
 endfacet
 facet normal -3.826834e-01  9.238795e-01  0.000000e+00
   outer loop
     vertex -8.308300e-01  1.819264e+00  6.000000e+00
     vertex -6.989284e-01  1.873899e+00  4.000000e+00
     vertex -8.308300e-01  1.819264e+00  4.000000e+00
   endloop
 endfacet
 facet normal -4.476172e-01  8.942253e-01  0.000000e+00
   outer loop
     vertex -9.584980e-01  1.755358e+00  6.000000e+00
     vertex -8.308300e-01  1.819264e+00  6.000000e+00
     vertex -9.584980e-01  1.755358e+00  4.000000e+00
   endloop
 endfacet
 facet normal -4.476172e-01  8.942253e-01  0.000000e+00
   outer loop
     vertex -8.308300e-01  1.819264e+00  6.000000e+00
     vertex -8.308300e-01  1.819264e+00  4.000000e+00
     vertex -9.584980e-01  1.755358e+00  4.000000e+00
   endloop
 endfacet
 facet normal -5.102700e-01  8.600142e-01  0.000000e+00
   outer loop
     vertex -9.584980e-01  1.755358e+00  6.000000e+00
     vertex -9.584980e-01  1.755358e+00  4.000000e+00
     vertex -1.081282e+00  1.682507e+00  4.000000e+00
   endloop
 endfacet
 facet normal -5.102700e-01  8.600142e-01  0.000000e+00
   outer loop
     vertex -1.081282e+00  1.682507e+00  6.000000e+00
     vertex -9.584980e-01  1.755358e+00  6.000000e+00
     vertex -1.081282e+00  1.682507e+00  4.000000e+00
   endloop
 endfacet
 facet normal -5.703226e-01  8.214208e-01  0.000000e+00
   outer loop
     vertex -1.198555e+00  1.601082e+00  6.000000e+00
     vertex -1.081282e+00  1.682507e+00  6.000000e+00
     vertex -1.081282e+00  1.682507e+00  4.000000e+00
   endloop
 endfacet
 facet normal -5.703226e-01  8.214208e-01  0.000000e+00
   outer loop
     vertex -1.198555e+00  1.601082e+00  6.000000e+00
     vertex -1.081282e+00  1.682507e+00  4.000000e+00
     vertex -1.198555e+00  1.601082e+00  4.000000e+00
   endloop
 endfacet
 facet normal -6.274690e-01  7.786415e-01  0.000000e+00
   outer loop
     vertex -1.198555e+00  1.601082e+00  6.000000e+00
     vertex -1.198555e+00  1.601082e+00  4.000000e+00
     vertex -1.309721e+00  1.511499e+00  4.000000e+00
   endloop
 endfacet
 facet normal -6.274690e-01  7.786415e-01  0.000000e+00
   outer loop
     vertex -1.309721e+00  1.511499e+00  6.000000e+00
     vertex -1.198555e+00  1.601082e+00  6.000000e+00
     vertex -1.309721e+00  1.511499e+00  4.000000e+00
   endloop
 endfacet
 facet normal -6.814179e-01  7.318945e-01  0.000000e+00
   outer loop
     vertex -1.414214e+00  1.414214e+00  6.000000e+00
     vertex -1.309721e+00  1.511499e+00  6.000000e+00
     vertex -1.309721e+00  1.511499e+00  4.000000e+00
   endloop
 endfacet
 facet normal -6.814179e-01  7.318945e-01  0.000000e+00
   outer loop
     vertex -1.414214e+00  1.414214e+00  6.000000e+00
     vertex -1.309721e+00  1.511499e+00  4.000000e+00
     vertex -1.414214e+00  1.414214e+00  4.000000e+00
   endloop
 endfacet
 facet normal -7.318945e-01  6.814179e-01  0.000000e+00
   outer loop
     vertex -1.414214e+00  1.414214e+00  6.000000e+00
     vertex -1.414214e+00  1.414214e+00  4.000000e+00
     vertex -1.511499e+00  1.309721e+00  4.000000e+00
   endloop
 endfacet
 facet normal -7.318945e-01  6.814179e-01  0.000000e+00
   outer loop
     vertex -1.511499e+00  1.309721e+00  6.000000e+00
     vertex -1.414214e+00  1.414214e+00  6.000000e+00
     vertex -1.511499e+00  1.309721e+00  4.000000e+00
   endloop
 endfacet
 facet normal -7.786415e-01  6.274690e-01  0.000000e+00
   outer loop
     vertex -1.511499e+00  1.309721e+00  6.000000e+00
     vertex -1.511499e+00  1.309721e+00  4.000000e+00
     vertex -1.601082e+00  1.198555e+00  4.000000e+00
   endloop
 endfacet
 facet normal -7.786415e-01  6.274690e-01  0.000000e+00
   outer loop
     vertex -1.601082e+00  1.198555e+00  6.000000e+00
     vertex -1.511499e+00  1.309721e+00  6.000000e+00
     vertex -1.601082e+00  1.198555e+00  4.000000e+00
   endloop
 endfacet
 facet normal -8.214208e-01  5.703226e-01  0.000000e+00
   outer loop
     vertex -1.682507e+00  1.081282e+00  6.000000e+00
     vertex -1.601082e+00  1.198555e+00  6.000000e+00
     vertex -1.601082e+00  1.198555e+00  4.000000e+00
   endloop
 endfacet
 facet normal -8.214208e-01  5.703226e-01  0.000000e+00
   outer loop
     vertex -1.682507e+00  1.081282e+00  6.000000e+00
     vertex -1.601082e+00  1.198555e+00  4.000000e+00
     vertex -1.682507e+00  1.081282e+00  4.000000e+00
   endloop
 endfacet
 facet normal -8.600142e-01  5.102700e-01  0.000000e+00
   outer loop
     vertex -1.755358e+00  9.584980e-01  6.000000e+00
     vertex -1.682507e+00  1.081282e+00  6.000000e+00
     vertex -1.755358e+00  9.584980e-01  4.000000e+00
   endloop
 endfacet
 facet normal -8.942253e-01  4.476172e-01  0.000000e+00
   outer loop
     vertex -1.819264e+00  8.308300e-01  6.000000e+00
     vertex -1.755358e+00  9.584980e-01  6.000000e+00
     vertex -1.755358e+00  9.584980e-01  4.000000e+00
   endloop
 endfacet
 facet normal -8.600142e-01  5.102700e-01  0.000000e+00
   outer loop
     vertex -1.682507e+00  1.081282e+00  6.000000e+00
     vertex -1.682507e+00  1.081282e+00  4.000000e+00
     vertex -1.755358e+00  9.584980e-01  4.000000e+00
   endloop
 endfacet
 facet normal -8.942253e-01  4.476172e-01  0.000000e+00
   outer loop
     vertex -1.819264e+00  8.308300e-01  6.000000e+00
     vertex -1.755358e+00  9.584980e-01  4.000000e+00
     vertex -1.819264e+00  8.308300e-01  4.000000e+00
   endloop
 endfacet
 facet normal -9.238795e-01  3.826834e-01  0.000000e+00
   outer loop
     vertex -1.873899e+00  6.989284e-01  6.000000e+00
     vertex -1.819264e+00  8.308300e-01  6.000000e+00
     vertex -1.873899e+00  6.989284e-01  4.000000e+00
   endloop
 endfacet
 facet normal -9.488259e-01  3.157996e-01  0.000000e+00
   outer loop
     vertex -1.918986e+00  5.634651e-01  6.000000e+00
     vertex -1.873899e+00  6.989284e-01  6.000000e+00
     vertex -1.873899e+00  6.989284e-01  4.000000e+00
   endloop
 endfacet
 facet normal -9.238795e-01  3.826834e-01  0.000000e+00
   outer loop
     vertex -1.819264e+00  8.308300e-01  6.000000e+00
     vertex -1.819264e+00  8.308300e-01  4.000000e+00
     vertex -1.873899e+00  6.989284e-01  4.000000e+00
   endloop
 endfacet
 facet normal -9.488259e-01  3.157996e-01  0.000000e+00
   outer loop
     vertex -1.918986e+00  5.634651e-01  6.000000e+00
     vertex -1.873899e+00  6.989284e-01  4.000000e+00
     vertex -1.918986e+00  5.634651e-01  4.000000e+00
   endloop
 endfacet
 facet normal -9.689373e-01  2.473065e-01  0.000000e+00
   outer loop
     vertex -1.954294e+00  4.251306e-01  6.000000e+00
     vertex -1.918986e+00  5.634651e-01  6.000000e+00
     vertex -1.954294e+00  4.251306e-01  4.000000e+00
   endloop
 endfacet
 facet normal -9.841112e-01  1.775532e-01  0.000000e+00
   outer loop
     vertex -1.979643e+00  2.846297e-01  6.000000e+00
     vertex -1.954294e+00  4.251306e-01  6.000000e+00
     vertex -1.954294e+00  4.251306e-01  4.000000e+00
   endloop
 endfacet
 facet normal -9.689373e-01  2.473065e-01  0.000000e+00
   outer loop
     vertex -1.918986e+00  5.634651e-01  6.000000e+00
     vertex -1.918986e+00  5.634651e-01  4.000000e+00
     vertex -1.954294e+00  4.251306e-01  4.000000e+00
   endloop
 endfacet
 facet normal -9.841112e-01  1.775532e-01  0.000000e+00
   outer loop
     vertex -1.979643e+00  2.846297e-01  6.000000e+00
     vertex -1.954294e+00  4.251306e-01  4.000000e+00
     vertex -1.979643e+00  2.846297e-01  4.000000e+00
   endloop
 endfacet
 facet normal -9.942703e-01  1.068951e-01  0.000000e+00
   outer loop
     vertex -1.994904e+00  1.426784e-01  6.000000e+00
     vertex -1.979643e+00  2.846297e-01  6.000000e+00
     vertex -1.994904e+00  1.426784e-01  4.000000e+00
   endloop
 endfacet
 facet normal -9.993628e-01  3.569233e-02  0.000000e+00
   outer loop
     vertex -2.000000e+00  2.021286e-15  6.000000e+00
     vertex -1.994904e+00  1.426784e-01  6.000000e+00
     vertex -1.994904e+00  1.426784e-01  4.000000e+00
   endloop
 endfacet
 facet normal -9.942703e-01  1.068951e-01  0.000000e+00
   outer loop
     vertex -1.979643e+00  2.846297e-01  6.000000e+00
     vertex -1.979643e+00  2.846297e-01  4.000000e+00
     vertex -1.994904e+00  1.426784e-01  4.000000e+00
   endloop
 endfacet
 facet normal -9.993628e-01  3.569233e-02  0.000000e+00
   outer loop
     vertex -2.000000e+00  2.021286e-15  6.000000e+00
     vertex -1.994904e+00  1.426784e-01  4.000000e+00
     vertex -2.000000e+00  2.021286e-15  4.000000e+00
   endloop
 endfacet
 facet normal -9.993628e-01 -3.569233e-02  0.000000e+00
   outer loop
     vertex -1.994904e+00 -1.426784e-01  6.000000e+00
     vertex -2.000000e+00  2.021286e-15  6.000000e+00
     vertex -1.994904e+00 -1.426784e-01  4.000000e+00
   endloop
 endfacet
 facet normal -9.993628e-01 -3.569233e-02 -0.000000e+00
   outer loop
     vertex -2.000000e+00  2.021286e-15  6.000000e+00
     vertex -2.000000e+00  2.021286e-15  4.000000e+00
     vertex -1.994904e+00 -1.426784e-01  4.000000e+00
   endloop
 endfacet
 facet normal -9.942703e-01 -1.068951e-01  0.000000e+00
   outer loop
     vertex -1.979643e+00 -2.846297e-01  6.000000e+00
     vertex -1.994904e+00 -1.426784e-01  6.000000e+00
     vertex -1.979643e+00 -2.846297e-01  4.000000e+00
   endloop
 endfacet
 facet normal -9.942703e-01 -1.068951e-01 -0.000000e+00
   outer loop
     vertex -1.994904e+00 -1.426784e-01  6.000000e+00
     vertex -1.994904e+00 -1.426784e-01  4.000000e+00
     vertex -1.979643e+00 -2.846297e-01  4.000000e+00
   endloop
 endfacet
 facet normal -9.841112e-01 -1.775532e-01  0.000000e+00
   outer loop
     vertex -1.954294e+00 -4.251306e-01  6.000000e+00
     vertex -1.979643e+00 -2.846297e-01  6.000000e+00
     vertex -1.954294e+00 -4.251306e-01  4.000000e+00
   endloop
 endfacet
 facet normal -9.841112e-01 -1.775532e-01 -0.000000e+00
   outer loop
     vertex -1.979643e+00 -2.846297e-01  6.000000e+00
     vertex -1.979643e+00 -2.846297e-01  4.000000e+00
     vertex -1.954294e+00 -4.251306e-01  4.000000e+00
   endloop
 endfacet
 facet normal -9.689373e-01 -2.473065e-01  0.000000e+00
   outer loop
     vertex -1.918986e+00 -5.634651e-01  6.000000e+00
     vertex -1.954294e+00 -4.251306e-01  6.000000e+00
     vertex -1.918986e+00 -5.634651e-01  4.000000e+00
   endloop
 endfacet
 facet normal -9.488259e-01 -3.157996e-01 -0.000000e+00
   outer loop
     vertex -1.873899e+00 -6.989284e-01  6.000000e+00
     vertex -1.918986e+00 -5.634651e-01  6.000000e+00
     vertex -1.918986e+00 -5.634651e-01  4.000000e+00
   endloop
 endfacet
 facet normal -9.689373e-01 -2.473065e-01 -0.000000e+00
   outer loop
     vertex -1.954294e+00 -4.251306e-01  6.000000e+00
     vertex -1.954294e+00 -4.251306e-01  4.000000e+00
     vertex -1.918986e+00 -5.634651e-01  4.000000e+00
   endloop
 endfacet
 facet normal -9.488259e-01 -3.157996e-01  0.000000e+00
   outer loop
     vertex -1.873899e+00 -6.989284e-01  6.000000e+00
     vertex -1.918986e+00 -5.634651e-01  4.000000e+00
     vertex -1.873899e+00 -6.989284e-01  4.000000e+00
   endloop
 endfacet
 facet normal -9.238795e-01 -3.826834e-01  0.000000e+00
   outer loop
     vertex -1.819264e+00 -8.308300e-01  6.000000e+00
     vertex -1.873899e+00 -6.989284e-01  6.000000e+00
     vertex -1.819264e+00 -8.308300e-01  4.000000e+00
   endloop
 endfacet
 facet normal -9.238795e-01 -3.826834e-01 -0.000000e+00
   outer loop
     vertex -1.873899e+00 -6.989284e-01  6.000000e+00
     vertex -1.873899e+00 -6.989284e-01  4.000000e+00
     vertex -1.819264e+00 -8.308300e-01  4.000000e+00
   endloop
 endfacet
 facet normal -8.942253e-01 -4.476172e-01  0.000000e+00
   outer loop
     vertex -1.755358e+00 -9.584980e-01  6.000000e+00
     vertex -1.819264e+00 -8.308300e-01  6.000000e+00
     vertex -1.755358e+00 -9.584980e-01  4.000000e+00
   endloop
 endfacet
 facet normal -8.942253e-01 -4.476172e-01 -0.000000e+00
   outer loop
     vertex -1.819264e+00 -8.308300e-01  6.000000e+00
     vertex -1.819264e+00 -8.308300e-01  4.000000e+00
     vertex -1.755358e+00 -9.584980e-01  4.000000e+00
   endloop
 endfacet
 facet normal -8.600142e-01 -5.102700e-01  0.000000e+00
   outer loop
     vertex -1.682507e+00 -1.081282e+00  6.000000e+00
     vertex -1.755358e+00 -9.584980e-01  6.000000e+00
     vertex -1.682507e+00 -1.081282e+00  4.000000e+00
   endloop
 endfacet
 facet normal -8.600142e-01 -5.102700e-01 -0.000000e+00
   outer loop
     vertex -1.755358e+00 -9.584980e-01  6.000000e+00
     vertex -1.755358e+00 -9.584980e-01  4.000000e+00
     vertex -1.682507e+00 -1.081282e+00  4.000000e+00
   endloop
 endfacet
 facet normal -8.214208e-01 -5.703226e-01  0.000000e+00
   outer loop
     vertex -1.601082e+00 -1.198555e+00  6.000000e+00
     vertex -1.682507e+00 -1.081282e+00  6.000000e+00
     vertex -1.601082e+00 -1.198555e+00  4.000000e+00
   endloop
 endfacet
 facet normal -7.786415e-01 -6.274690e-01 -0.000000e+00
   outer loop
     vertex -1.511499e+00 -1.309721e+00  6.000000e+00
     vertex -1.601082e+00 -1.198555e+00  6.000000e+00
     vertex -1.601082e+00 -1.198555e+00  4.000000e+00
   endloop
 endfacet
 facet normal -8.214208e-01 -5.703226e-01 -0.000000e+00
   outer loop
     vertex -1.682507e+00 -1.081282e+00  6.000000e+00
     vertex -1.682507e+00 -1.081282e+00  4.000000e+00
     vertex -1.601082e+00 -1.198555e+00  4.000000e+00
   endloop
 endfacet
 facet normal -7.786415e-01 -6.274690e-01  0.000000e+00
   outer loop
     vertex -1.511499e+00 -1.309721e+00  6.000000e+00
     vertex -1.601082e+00 -1.198555e+00  4.000000e+00
     vertex -1.511499e+00 -1.309721e+00  4.000000e+00
   endloop
 endfacet
 facet normal -7.318945e-01 -6.814179e-01 -0.000000e+00
   outer loop
     vertex -1.511499e+00 -1.309721e+00  6.000000e+00
     vertex -1.511499e+00 -1.309721e+00  4.000000e+00
     vertex -1.414214e+00 -1.414214e+00  4.000000e+00
   endloop
 endfacet
 facet normal -7.318945e-01 -6.814179e-01  0.000000e+00
   outer loop
     vertex -1.414214e+00 -1.414214e+00  6.000000e+00
     vertex -1.511499e+00 -1.309721e+00  6.000000e+00
     vertex -1.414214e+00 -1.414214e+00  4.000000e+00
   endloop
 endfacet
 facet normal -6.814179e-01 -7.318945e-01 -0.000000e+00
   outer loop
     vertex -1.414214e+00 -1.414214e+00  6.000000e+00
     vertex -1.414214e+00 -1.414214e+00  4.000000e+00
     vertex -1.309721e+00 -1.511499e+00  4.000000e+00
   endloop
 endfacet
 facet normal -6.814179e-01 -7.318945e-01  0.000000e+00
   outer loop
     vertex -1.309721e+00 -1.511499e+00  6.000000e+00
     vertex -1.414214e+00 -1.414214e+00  6.000000e+00
     vertex -1.309721e+00 -1.511499e+00  4.000000e+00
   endloop
 endfacet
 facet normal -6.274690e-01 -7.786415e-01 -0.000000e+00
   outer loop
     vertex -1.309721e+00 -1.511499e+00  6.000000e+00
     vertex -1.309721e+00 -1.511499e+00  4.000000e+00
     vertex -1.198555e+00 -1.601082e+00  4.000000e+00
   endloop
 endfacet
 facet normal -6.274690e-01 -7.786415e-01  0.000000e+00
   outer loop
     vertex -1.198555e+00 -1.601082e+00  6.000000e+00
     vertex -1.309721e+00 -1.511499e+00  6.000000e+00
     vertex -1.198555e+00 -1.601082e+00  4.000000e+00
   endloop
 endfacet
 facet normal -5.703226e-01 -8.214208e-01 -0.000000e+00
   outer loop
     vertex -1.081282e+00 -1.682507e+00  6.000000e+00
     vertex -1.198555e+00 -1.601082e+00  6.000000e+00
     vertex -1.198555e+00 -1.601082e+00  4.000000e+00
   endloop
 endfacet
 facet normal -5.703226e-01 -8.214208e-01  0.000000e+00
   outer loop
     vertex -1.081282e+00 -1.682507e+00  6.000000e+00
     vertex -1.198555e+00 -1.601082e+00  4.000000e+00
     vertex -1.081282e+00 -1.682507e+00  4.000000e+00
   endloop
 endfacet
 facet normal -5.102700e-01 -8.600142e-01 -0.000000e+00
   outer loop
     vertex -1.081282e+00 -1.682507e+00  6.000000e+00
     vertex -1.081282e+00 -1.682507e+00  4.000000e+00
     vertex -9.584980e-01 -1.755358e+00  4.000000e+00
   endloop
 endfacet
 facet normal -5.102700e-01 -8.600142e-01  0.000000e+00
   outer loop
     vertex -9.584980e-01 -1.755358e+00  6.000000e+00
     vertex -1.081282e+00 -1.682507e+00  6.000000e+00
     vertex -9.584980e-01 -1.755358e+00  4.000000e+00
   endloop
 endfacet
 facet normal -4.476172e-01 -8.942253e-01 -0.000000e+00
   outer loop
     vertex -9.584980e-01 -1.755358e+00  6.000000e+00
     vertex -9.584980e-01 -1.755358e+00  4.000000e+00
     vertex -8.308300e-01 -1.819264e+00  4.000000e+00
   endloop
 endfacet
 facet normal -4.476172e-01 -8.942253e-01  0.000000e+00
   outer loop
     vertex -8.308300e-01 -1.819264e+00  6.000000e+00
     vertex -9.584980e-01 -1.755358e+00  6.000000e+00
     vertex -8.308300e-01 -1.819264e+00  4.000000e+00
   endloop
 endfacet
 facet normal -3.826834e-01 -9.238795e-01 -0.000000e+00
   outer loop
     vertex -8.308300e-01 -1.819264e+00  6.000000e+00
     vertex -8.308300e-01 -1.819264e+00  4.000000e+00
     vertex -6.989284e-01 -1.873899e+00  4.000000e+00
   endloop
 endfacet
 facet normal -3.826834e-01 -9.238795e-01  0.000000e+00
   outer loop
     vertex -6.989284e-01 -1.873899e+00  6.000000e+00
     vertex -8.308300e-01 -1.819264e+00  6.000000e+00
     vertex -6.989284e-01 -1.873899e+00  4.000000e+00
   endloop
 endfacet
 facet normal -3.157996e-01 -9.488259e-01 -0.000000e+00
   outer loop
     vertex -6.989284e-01 -1.873899e+00  6.000000e+00
     vertex -6.989284e-01 -1.873899e+00  4.000000e+00
     vertex -5.634651e-01 -1.918986e+00  4.000000e+00
   endloop
 endfacet
 facet normal -3.157996e-01 -9.488259e-01  0.000000e+00
   outer loop
     vertex -5.634651e-01 -1.918986e+00  6.000000e+00
     vertex -6.989284e-01 -1.873899e+00  6.000000e+00
     vertex -5.634651e-01 -1.918986e+00  4.000000e+00
   endloop
 endfacet
 facet normal -2.473065e-01 -9.689373e-01 -0.000000e+00
   outer loop
     vertex -5.634651e-01 -1.918986e+00  6.000000e+00
     vertex -5.634651e-01 -1.918986e+00  4.000000e+00
     vertex -4.251306e-01 -1.954294e+00  4.000000e+00
   endloop
 endfacet
 facet normal -2.473065e-01 -9.689373e-01  0.000000e+00
   outer loop
     vertex -4.251306e-01 -1.954294e+00  6.000000e+00
     vertex -5.634651e-01 -1.918986e+00  6.000000e+00
     vertex -4.251306e-01 -1.954294e+00  4.000000e+00
   endloop
 endfacet
 facet normal -1.775532e-01 -9.841112e-01 -0.000000e+00
   outer loop
     vertex -4.251306e-01 -1.954294e+00  6.000000e+00
     vertex -4.251306e-01 -1.954294e+00  4.000000e+00
     vertex -2.846297e-01 -1.979643e+00  4.000000e+00
   endloop
 endfacet
 facet normal -1.775532e-01 -9.841112e-01  0.000000e+00
   outer loop
     vertex -2.846297e-01 -1.979643e+00  6.000000e+00
     vertex -4.251306e-01 -1.954294e+00  6.000000e+00
     vertex -2.846297e-01 -1.979643e+00  4.000000e+00
   endloop
 endfacet
 facet normal -1.068951e-01 -9.942703e-01 -0.000000e+00
   outer loop
     vertex -2.846297e-01 -1.979643e+00  6.000000e+00
     vertex -2.846297e-01 -1.979643e+00  4.000000e+00
     vertex -1.426784e-01 -1.994904e+00  4.000000e+00
   endloop
 endfacet
 facet normal -1.068951e-01 -9.942703e-01  0.000000e+00
   outer loop
     vertex -1.426784e-01 -1.994904e+00  6.000000e+00
     vertex -2.846297e-01 -1.979643e+00  6.000000e+00
     vertex -1.426784e-01 -1.994904e+00  4.000000e+00
   endloop
 endfacet
 facet normal -3.569233e-02 -9.993628e-01 -0.000000e+00
   outer loop
     vertex -1.426784e-01 -1.994904e+00  6.000000e+00
     vertex -1.426784e-01 -1.994904e+00  4.000000e+00
     vertex -3.904495e-15 -2.000000e+00  4.000000e+00
   endloop
 endfacet
 facet normal -3.569233e-02 -9.993628e-01  0.000000e+00
   outer loop
     vertex -3.904495e-15 -2.000000e+00  6.000000e+00
     vertex -1.426784e-01 -1.994904e+00  6.000000e+00
     vertex -3.904495e-15 -2.000000e+00  4.000000e+00
   endloop
 endfacet
 facet normal  3.569233e-02 -9.993628e-01  0.000000e+00
   outer loop
     vertex  1.426784e-01 -1.994904e+00  6.000000e+00
     vertex -3.904495e-15 -2.000000e+00  6.000000e+00
     vertex -3.904495e-15 -2.000000e+00  4.000000e+00
   endloop
 endfacet
 facet normal  3.569233e-02 -9.993628e-01  0.000000e+00
   outer loop
     vertex  1.426784e-01 -1.994904e+00  6.000000e+00
     vertex -3.904495e-15 -2.000000e+00  4.000000e+00
     vertex  1.426784e-01 -1.994904e+00  4.000000e+00
   endloop
 endfacet
 facet normal  1.068951e-01 -9.942703e-01  0.000000e+00
   outer loop
     vertex  1.426784e-01 -1.994904e+00  6.000000e+00
     vertex  1.426784e-01 -1.994904e+00  4.000000e+00
     vertex  2.846297e-01 -1.979643e+00  4.000000e+00
   endloop
 endfacet
 facet normal  1.068951e-01 -9.942703e-01  0.000000e+00
   outer loop
     vertex  2.846297e-01 -1.979643e+00  6.000000e+00
     vertex  1.426784e-01 -1.994904e+00  6.000000e+00
     vertex  2.846297e-01 -1.979643e+00  4.000000e+00
   endloop
 endfacet
 facet normal  1.775532e-01 -9.841112e-01  0.000000e+00
   outer loop
     vertex  2.846297e-01 -1.979643e+00  6.000000e+00
     vertex  2.846297e-01 -1.979643e+00  4.000000e+00
     vertex  4.251306e-01 -1.954294e+00  4.000000e+00
   endloop
 endfacet
 facet normal  1.775532e-01 -9.841112e-01  0.000000e+00
   outer loop
     vertex  4.251306e-01 -1.954294e+00  6.000000e+00
     vertex  2.846297e-01 -1.979643e+00  6.000000e+00
     vertex  4.251306e-01 -1.954294e+00  4.000000e+00
   endloop
 endfacet
 facet normal  2.473065e-01 -9.689373e-01  0.000000e+00
   outer loop
     vertex  4.251306e-01 -1.954294e+00  6.000000e+00
     vertex  4.251306e-01 -1.954294e+00  4.000000e+00
     vertex  5.634651e-01 -1.918986e+00  4.000000e+00
   endloop
 endfacet
 facet normal  2.473065e-01 -9.689373e-01  0.000000e+00
   outer loop
     vertex  5.634651e-01 -1.918986e+00  6.000000e+00
     vertex  4.251306e-01 -1.954294e+00  6.000000e+00
     vertex  5.634651e-01 -1.918986e+00  4.000000e+00
   endloop
 endfacet
 facet normal  3.157996e-01 -9.488259e-01  0.000000e+00
   outer loop
     vertex  6.989284e-01 -1.873899e+00  6.000000e+00
     vertex  5.634651e-01 -1.918986e+00  6.000000e+00
     vertex  5.634651e-01 -1.918986e+00  4.000000e+00
   endloop
 endfacet
 facet normal  3.157996e-01 -9.488259e-01  0.000000e+00
   outer loop
     vertex  6.989284e-01 -1.873899e+00  6.000000e+00
     vertex  5.634651e-01 -1.918986e+00  4.000000e+00
     vertex  6.989284e-01 -1.873899e+00  4.000000e+00
   endloop
 endfacet
 facet normal  3.826834e-01 -9.238795e-01  0.000000e+00
   outer loop
     vertex  8.308300e-01 -1.819264e+00  6.000000e+00
     vertex  6.989284e-01 -1.873899e+00  6.000000e+00
     vertex  8.308300e-01 -1.819264e+00  4.000000e+00
   endloop
 endfacet
 facet normal  3.826834e-01 -9.238795e-01  0.000000e+00
   outer loop
     vertex  6.989284e-01 -1.873899e+00  6.000000e+00
     vertex  6.989284e-01 -1.873899e+00  4.000000e+00
     vertex  8.308300e-01 -1.819264e+00  4.000000e+00
   endloop
 endfacet
 facet normal  4.476172e-01 -8.942253e-01  0.000000e+00
   outer loop
     vertex  9.584980e-01 -1.755358e+00  6.000000e+00
     vertex  8.308300e-01 -1.819264e+00  6.000000e+00
     vertex  9.584980e-01 -1.755358e+00  4.000000e+00
   endloop
 endfacet
 facet normal  4.476172e-01 -8.942253e-01  0.000000e+00
   outer loop
     vertex  8.308300e-01 -1.819264e+00  6.000000e+00
     vertex  8.308300e-01 -1.819264e+00  4.000000e+00
     vertex  9.584980e-01 -1.755358e+00  4.000000e+00
   endloop
 endfacet
 facet normal  5.102700e-01 -8.600142e-01  0.000000e+00
   outer loop
     vertex  1.081282e+00 -1.682507e+00  6.000000e+00
     vertex  9.584980e-01 -1.755358e+00  6.000000e+00
     vertex  1.081282e+00 -1.682507e+00  4.000000e+00
   endloop
 endfacet
 facet normal  5.703226e-01 -8.214208e-01  0.000000e+00
   outer loop
     vertex  1.198555e+00 -1.601082e+00  6.000000e+00
     vertex  1.081282e+00 -1.682507e+00  6.000000e+00
     vertex  1.081282e+00 -1.682507e+00  4.000000e+00
   endloop
 endfacet
 facet normal  5.102700e-01 -8.600142e-01  0.000000e+00
   outer loop
     vertex  9.584980e-01 -1.755358e+00  6.000000e+00
     vertex  9.584980e-01 -1.755358e+00  4.000000e+00
     vertex  1.081282e+00 -1.682507e+00  4.000000e+00
   endloop
 endfacet
 facet normal  5.703226e-01 -8.214208e-01  0.000000e+00
   outer loop
     vertex  1.198555e+00 -1.601082e+00  6.000000e+00
     vertex  1.081282e+00 -1.682507e+00  4.000000e+00
     vertex  1.198555e+00 -1.601082e+00  4.000000e+00
   endloop
 endfacet
 facet normal  6.274690e-01 -7.786415e-01  0.000000e+00
   outer loop
     vertex  1.309721e+00 -1.511499e+00  6.000000e+00
     vertex  1.198555e+00 -1.601082e+00  6.000000e+00
     vertex  1.309721e+00 -1.511499e+00  4.000000e+00
   endloop
 endfacet
 facet normal  6.274690e-01 -7.786415e-01  0.000000e+00
   outer loop
     vertex  1.198555e+00 -1.601082e+00  6.000000e+00
     vertex  1.198555e+00 -1.601082e+00  4.000000e+00
     vertex  1.309721e+00 -1.511499e+00  4.000000e+00
   endloop
 endfacet
 facet normal  6.814179e-01 -7.318945e-01  0.000000e+00
   outer loop
     vertex  1.414214e+00 -1.414214e+00  6.000000e+00
     vertex  1.309721e+00 -1.511499e+00  6.000000e+00
     vertex  1.414214e+00 -1.414214e+00  4.000000e+00
   endloop
 endfacet
 facet normal  6.814179e-01 -7.318945e-01  0.000000e+00
   outer loop
     vertex  1.309721e+00 -1.511499e+00  6.000000e+00
     vertex  1.309721e+00 -1.511499e+00  4.000000e+00
     vertex  1.414214e+00 -1.414214e+00  4.000000e+00
   endloop
 endfacet
 facet normal  7.318945e-01 -6.814179e-01  0.000000e+00
   outer loop
     vertex  1.511499e+00 -1.309721e+00  6.000000e+00
     vertex  1.414214e+00 -1.414214e+00  6.000000e+00
     vertex  1.511499e+00 -1.309721e+00  4.000000e+00
   endloop
 endfacet
 facet normal  7.786415e-01 -6.274690e-01  0.000000e+00
   outer loop
     vertex  1.601082e+00 -1.198555e+00  6.000000e+00
     vertex  1.511499e+00 -1.309721e+00  6.000000e+00
     vertex  1.511499e+00 -1.309721e+00  4.000000e+00
   endloop
 endfacet
 facet normal  7.318945e-01 -6.814179e-01  0.000000e+00
   outer loop
     vertex  1.414214e+00 -1.414214e+00  6.000000e+00
     vertex  1.414214e+00 -1.414214e+00  4.000000e+00
     vertex  1.511499e+00 -1.309721e+00  4.000000e+00
   endloop
 endfacet
 facet normal  7.786415e-01 -6.274690e-01  0.000000e+00
   outer loop
     vertex  1.601082e+00 -1.198555e+00  6.000000e+00
     vertex  1.511499e+00 -1.309721e+00  4.000000e+00
     vertex  1.601082e+00 -1.198555e+00  4.000000e+00
   endloop
 endfacet
 facet normal  8.214208e-01 -5.703226e-01  0.000000e+00
   outer loop
     vertex  1.682507e+00 -1.081282e+00  6.000000e+00
     vertex  1.601082e+00 -1.198555e+00  6.000000e+00
     vertex  1.682507e+00 -1.081282e+00  4.000000e+00
   endloop
 endfacet
 facet normal  8.214208e-01 -5.703226e-01  0.000000e+00
   outer loop
     vertex  1.601082e+00 -1.198555e+00  6.000000e+00
     vertex  1.601082e+00 -1.198555e+00  4.000000e+00
     vertex  1.682507e+00 -1.081282e+00  4.000000e+00
   endloop
 endfacet
 facet normal  8.600142e-01 -5.102700e-01  0.000000e+00
   outer loop
     vertex  1.682507e+00 -1.081282e+00  6.000000e+00
     vertex  1.682507e+00 -1.081282e+00  4.000000e+00
     vertex  1.755358e+00 -9.584980e-01  4.000000e+00
   endloop
 endfacet
 facet normal  8.600142e-01 -5.102700e-01  0.000000e+00
   outer loop
     vertex  1.755358e+00 -9.584980e-01  6.000000e+00
     vertex  1.682507e+00 -1.081282e+00  6.000000e+00
     vertex  1.755358e+00 -9.584980e-01  4.000000e+00
   endloop
 endfacet
 facet normal  8.942253e-01 -4.476172e-01  0.000000e+00
   outer loop
     vertex  1.755358e+00 -9.584980e-01  6.000000e+00
     vertex  1.755358e+00 -9.584980e-01  4.000000e+00
     vertex  1.819264e+00 -8.308300e-01  4.000000e+00
   endloop
 endfacet
 facet normal  8.942253e-01 -4.476172e-01  0.000000e+00
   outer loop
     vertex  1.819264e+00 -8.308300e-01  6.000000e+00
     vertex  1.755358e+00 -9.584980e-01  6.000000e+00
     vertex  1.819264e+00 -8.308300e-01  4.000000e+00
   endloop
 endfacet
 facet normal  9.238795e-01 -3.826834e-01  0.000000e+00
   outer loop
     vertex  1.873899e+00 -6.989284e-01  6.000000e+00
     vertex  1.819264e+00 -8.308300e-01  6.000000e+00
     vertex  1.819264e+00 -8.308300e-01  4.000000e+00
   endloop
 endfacet
 facet normal  9.238795e-01 -3.826834e-01  0.000000e+00
   outer loop
     vertex  1.873899e+00 -6.989284e-01  6.000000e+00
     vertex  1.819264e+00 -8.308300e-01  4.000000e+00
     vertex  1.873899e+00 -6.989284e-01  4.000000e+00
   endloop
 endfacet
 facet normal  9.488259e-01 -3.157996e-01  0.000000e+00
   outer loop
     vertex  1.873899e+00 -6.989284e-01  6.000000e+00
     vertex  1.873899e+00 -6.989284e-01  4.000000e+00
     vertex  1.918986e+00 -5.634651e-01  4.000000e+00
   endloop
 endfacet
 facet normal  9.488259e-01 -3.157996e-01  0.000000e+00
   outer loop
     vertex  1.918986e+00 -5.634651e-01  6.000000e+00
     vertex  1.873899e+00 -6.989284e-01  6.000000e+00
     vertex  1.918986e+00 -5.634651e-01  4.000000e+00
   endloop
 endfacet
 facet normal  9.689373e-01 -2.473065e-01  0.000000e+00
   outer loop
     vertex  1.954294e+00 -4.251306e-01  6.000000e+00
     vertex  1.918986e+00 -5.634651e-01  6.000000e+00
     vertex  1.918986e+00 -5.634651e-01  4.000000e+00
   endloop
 endfacet
 facet normal  9.689373e-01 -2.473065e-01  0.000000e+00
   outer loop
     vertex  1.954294e+00 -4.251306e-01  6.000000e+00
     vertex  1.918986e+00 -5.634651e-01  4.000000e+00
     vertex  1.954294e+00 -4.251306e-01  4.000000e+00
   endloop
 endfacet
 facet normal  9.841112e-01 -1.775532e-01  0.000000e+00
   outer loop
     vertex  1.979643e+00 -2.846297e-01  6.000000e+00
     vertex  1.954294e+00 -4.251306e-01  6.000000e+00
     vertex  1.954294e+00 -4.251306e-01  4.000000e+00
   endloop
 endfacet
 facet normal  9.841112e-01 -1.775532e-01  0.000000e+00
   outer loop
     vertex  1.979643e+00 -2.846297e-01  6.000000e+00
     vertex  1.954294e+00 -4.251306e-01  4.000000e+00
     vertex  1.979643e+00 -2.846297e-01  4.000000e+00
   endloop
 endfacet
 facet normal  9.942703e-01 -1.068951e-01  0.000000e+00
   outer loop
     vertex  1.994904e+00 -1.426784e-01  6.000000e+00
     vertex  1.979643e+00 -2.846297e-01  6.000000e+00
     vertex  1.979643e+00 -2.846297e-01  4.000000e+00
   endloop
 endfacet
 facet normal  9.942703e-01 -1.068951e-01  0.000000e+00
   outer loop
     vertex  1.994904e+00 -1.426784e-01  6.000000e+00
     vertex  1.979643e+00 -2.846297e-01  4.000000e+00
     vertex  1.994904e+00 -1.426784e-01  4.000000e+00
   endloop
 endfacet
 facet normal  9.993628e-01 -3.569233e-02  0.000000e+00
   outer loop
     vertex  1.994904e+00 -1.426784e-01  6.000000e+00
     vertex  1.994904e+00 -1.426784e-01  4.000000e+00
     vertex  2.000000e+00  0.000000e+00  4.000000e+00
   endloop
 endfacet
 facet normal  9.993628e-01 -3.569233e-02  0.000000e+00
   outer loop
     vertex  2.000000e+00  0.000000e+00  6.000000e+00
     vertex  1.994904e+00 -1.426784e-01  6.000000e+00
     vertex  2.000000e+00  0.000000e+00  4.000000e+00
   endloop
 endfacet
 facet normal -0.000000e+00  0.000000e+00  1.000000e+00
   outer loop
     vertex -1.309721e+00 -1.511499e+00  6.000000e+00
     vertex -9.584980e-01 -1.755358e+00  6.000000e+00
     vertex -1.426784e-01  1.994904e+00  6.000000e+00
   endloop
 endfacet
 facet normal -0.000000e+00 -0.000000e+00  1.000000e+00
   outer loop
     vertex -6.989284e-01 -1.873899e+00  6.000000e+00
     vertex -4.251306e-01 -1.954294e+00  6.000000e+00
     vertex -9.584980e-01 -1.755358e+00  6.000000e+00
   endloop
 endfacet
 facet normal  0.000000e+00 -0.000000e+00  1.000000e+00
   outer loop
     vertex -9.584980e-01 -1.755358e+00  6.000000e+00
     vertex  4.251306e-01  1.954294e+00  6.000000e+00
     vertex -1.426784e-01  1.994904e+00  6.000000e+00
   endloop
 endfacet
 facet normal -0.000000e+00 -0.000000e+00  1.000000e+00
   outer loop
     vertex -8.308300e-01 -1.819264e+00  6.000000e+00
     vertex -6.989284e-01 -1.873899e+00  6.000000e+00
     vertex -9.584980e-01 -1.755358e+00  6.000000e+00
   endloop
 endfacet
 facet normal -0.000000e+00  0.000000e+00  1.000000e+00
   outer loop
     vertex -2.000000e+00  2.021286e-15  6.000000e+00
     vertex -1.979643e+00 -2.846297e-01  6.000000e+00
     vertex -1.979643e+00  2.846297e-01  6.000000e+00
   endloop
 endfacet
 facet normal  0.000000e+00  0.000000e+00  1.000000e+00
   outer loop
     vertex  1.414214e+00 -1.414214e+00  6.000000e+00
     vertex  1.511499e+00 -1.309721e+00  6.000000e+00
     vertex  1.601082e+00 -1.198555e+00  6.000000e+00
   endloop
 endfacet
 facet normal -0.000000e+00  0.000000e+00  1.000000e+00
   outer loop
     vertex -1.994904e+00  1.426784e-01  6.000000e+00
     vertex -2.000000e+00  2.021286e-15  6.000000e+00
     vertex -1.979643e+00  2.846297e-01  6.000000e+00
   endloop
 endfacet
 facet normal  0.000000e+00  0.000000e+00  1.000000e+00
   outer loop
     vertex  1.819264e+00  8.308300e-01  6.000000e+00
     vertex  1.755358e+00  9.584980e-01  6.000000e+00
     vertex  1.601082e+00  1.198555e+00  6.000000e+00
   endloop
 endfacet
 facet normal  0.000000e+00  0.000000e+00  1.000000e+00
   outer loop
     vertex  1.755358e+00  9.584980e-01  6.000000e+00
     vertex  1.682507e+00  1.081282e+00  6.000000e+00
     vertex  1.601082e+00  1.198555e+00  6.000000e+00
   endloop
 endfacet
 facet normal  0.000000e+00 -0.000000e+00  1.000000e+00
   outer loop
     vertex -1.309721e+00 -1.511499e+00  6.000000e+00
     vertex -1.426784e-01  1.994904e+00  6.000000e+00
     vertex -4.251306e-01  1.954294e+00  6.000000e+00
   endloop
 endfacet
 facet normal  0.000000e+00  0.000000e+00  1.000000e+00
   outer loop
     vertex -1.426784e-01  1.994904e+00  6.000000e+00
     vertex -2.846297e-01  1.979643e+00  6.000000e+00
     vertex -4.251306e-01  1.954294e+00  6.000000e+00
   endloop
 endfacet
 facet normal -0.000000e+00 -0.000000e+00  1.000000e+00
   outer loop
     vertex -1.979643e+00 -2.846297e-01  6.000000e+00
     vertex -1.309721e+00 -1.511499e+00  6.000000e+00
     vertex -1.954294e+00  4.251306e-01  6.000000e+00
   endloop
 endfacet
 facet normal  0.000000e+00 -0.000000e+00  1.000000e+00
   outer loop
     vertex -1.309721e+00 -1.511499e+00  6.000000e+00
     vertex -4.251306e-01  1.954294e+00  6.000000e+00
     vertex -1.954294e+00  4.251306e-01  6.000000e+00
   endloop
 endfacet
 facet normal -0.000000e+00  0.000000e+00  1.000000e+00
   outer loop
     vertex -1.979643e+00  2.846297e-01  6.000000e+00
     vertex -1.979643e+00 -2.846297e-01  6.000000e+00
     vertex -1.954294e+00  4.251306e-01  6.000000e+00
   endloop
 endfacet
 facet normal  0.000000e+00 -0.000000e+00  1.000000e+00
   outer loop
     vertex -1.954294e+00  4.251306e-01  6.000000e+00
     vertex -4.251306e-01  1.954294e+00  6.000000e+00
     vertex -1.918986e+00  5.634651e-01  6.000000e+00
   endloop
 endfacet
 facet normal -0.000000e+00 -0.000000e+00  1.000000e+00
   outer loop
     vertex -1.198555e+00 -1.601082e+00  6.000000e+00
     vertex -1.081282e+00 -1.682507e+00  6.000000e+00
     vertex -1.309721e+00 -1.511499e+00  6.000000e+00
   endloop
 endfacet
 facet normal -0.000000e+00 -0.000000e+00  1.000000e+00
   outer loop
     vertex -1.081282e+00 -1.682507e+00  6.000000e+00
     vertex -9.584980e-01 -1.755358e+00  6.000000e+00
     vertex -1.309721e+00 -1.511499e+00  6.000000e+00
   endloop
 endfacet
 facet normal  0.000000e+00  0.000000e+00  1.000000e+00
   outer loop
     vertex  1.309721e+00 -1.511499e+00  6.000000e+00
     vertex  1.414214e+00 -1.414214e+00  6.000000e+00
     vertex  1.755358e+00 -9.584980e-01  6.000000e+00
   endloop
 endfacet
 facet normal  0.000000e+00  0.000000e+00  1.000000e+00
   outer loop
     vertex  1.601082e+00 -1.198555e+00  6.000000e+00
     vertex  1.682507e+00 -1.081282e+00  6.000000e+00
     vertex  1.755358e+00 -9.584980e-01  6.000000e+00
   endloop
 endfacet
 facet normal  0.000000e+00  0.000000e+00  1.000000e+00
   outer loop
     vertex -4.251306e-01  1.954294e+00  6.000000e+00
     vertex -5.634651e-01  1.918986e+00  6.000000e+00
     vertex -6.989284e-01  1.873899e+00  6.000000e+00
   endloop
 endfacet
 facet normal  0.000000e+00  0.000000e+00  1.000000e+00
   outer loop
     vertex  1.414214e+00 -1.414214e+00  6.000000e+00
     vertex  1.601082e+00 -1.198555e+00  6.000000e+00
     vertex  1.755358e+00 -9.584980e-01  6.000000e+00
   endloop
 endfacet
 facet normal  0.000000e+00 -0.000000e+00  1.000000e+00
   outer loop
     vertex  1.081282e+00 -1.682507e+00  6.000000e+00
     vertex  1.198555e+00 -1.601082e+00  6.000000e+00
     vertex  9.584980e-01 -1.755358e+00  6.000000e+00
   endloop
 endfacet
 facet normal  0.000000e+00 -0.000000e+00  1.000000e+00
   outer loop
     vertex -1.918986e+00  5.634651e-01  6.000000e+00
     vertex -4.251306e-01  1.954294e+00  6.000000e+00
     vertex -8.308300e-01  1.819264e+00  6.000000e+00
   endloop
 endfacet
 facet normal  0.000000e+00  0.000000e+00  1.000000e+00
   outer loop
     vertex -4.251306e-01  1.954294e+00  6.000000e+00
     vertex -6.989284e-01  1.873899e+00  6.000000e+00
     vertex -8.308300e-01  1.819264e+00  6.000000e+00
   endloop
 endfacet
 facet normal  0.000000e+00  0.000000e+00  1.000000e+00
   outer loop
     vertex  1.918986e+00  5.634651e-01  6.000000e+00
     vertex  1.873899e+00  6.989284e-01  6.000000e+00
     vertex  1.309721e+00  1.511499e+00  6.000000e+00
   endloop
 endfacet
 facet normal  0.000000e+00  0.000000e+00  1.000000e+00
   outer loop
     vertex  1.309721e+00 -1.511499e+00  6.000000e+00
     vertex  1.755358e+00 -9.584980e-01  6.000000e+00
     vertex  1.819264e+00 -8.308300e-01  6.000000e+00
   endloop
 endfacet
 facet normal -0.000000e+00  0.000000e+00  1.000000e+00
   outer loop
     vertex -1.873899e+00  6.989284e-01  6.000000e+00
     vertex -1.918986e+00  5.634651e-01  6.000000e+00
     vertex -1.819264e+00  8.308300e-01  6.000000e+00
   endloop
 endfacet
 facet normal  0.000000e+00  0.000000e+00  1.000000e+00
   outer loop
     vertex  1.873899e+00  6.989284e-01  6.000000e+00
     vertex  1.819264e+00  8.308300e-01  6.000000e+00
     vertex  1.309721e+00  1.511499e+00  6.000000e+00
   endloop
 endfacet
 facet normal  0.000000e+00  0.000000e+00  1.000000e+00
   outer loop
     vertex  1.601082e+00  1.198555e+00  6.000000e+00
     vertex  1.511499e+00  1.309721e+00  6.000000e+00
     vertex  1.309721e+00  1.511499e+00  6.000000e+00
   endloop
 endfacet
 facet normal  0.000000e+00 -0.000000e+00  1.000000e+00
   outer loop
     vertex  9.584980e-01 -1.755358e+00  6.000000e+00
     vertex  1.198555e+00 -1.601082e+00  6.000000e+00
     vertex  8.308300e-01 -1.819264e+00  6.000000e+00
   endloop
 endfacet
 facet normal  0.000000e+00  0.000000e+00  1.000000e+00
   outer loop
     vertex  1.511499e+00  1.309721e+00  6.000000e+00
     vertex  1.414214e+00  1.414214e+00  6.000000e+00
     vertex  1.309721e+00  1.511499e+00  6.000000e+00
   endloop
 endfacet
 facet normal  0.000000e+00  0.000000e+00  1.000000e+00
   outer loop
     vertex  8.308300e-01 -1.819264e+00  6.000000e+00
     vertex  1.309721e+00 -1.511499e+00  6.000000e+00
     vertex  1.309721e+00  1.511499e+00  6.000000e+00
   endloop
 endfacet
 facet normal  0.000000e+00 -0.000000e+00  1.000000e+00
   outer loop
     vertex  1.819264e+00 -8.308300e-01  6.000000e+00
     vertex  1.994904e+00 -1.426784e-01  6.000000e+00
     vertex  1.309721e+00  1.511499e+00  6.000000e+00
   endloop
 endfacet
 facet normal  0.000000e+00 -0.000000e+00  1.000000e+00
   outer loop
     vertex  1.198555e+00 -1.601082e+00  6.000000e+00
     vertex  1.309721e+00 -1.511499e+00  6.000000e+00
     vertex  8.308300e-01 -1.819264e+00  6.000000e+00
   endloop
 endfacet
 facet normal  0.000000e+00 -0.000000e+00  1.000000e+00
   outer loop
     vertex -1.918986e+00  5.634651e-01  6.000000e+00
     vertex -8.308300e-01  1.819264e+00  6.000000e+00
     vertex -9.584980e-01  1.755358e+00  6.000000e+00
   endloop
 endfacet
 facet normal  0.000000e+00  0.000000e+00  1.000000e+00
   outer loop
     vertex  2.846297e-01 -1.979643e+00  6.000000e+00
     vertex  6.989284e-01 -1.873899e+00  6.000000e+00
     vertex  1.309721e+00  1.511499e+00  6.000000e+00
   endloop
 endfacet
 facet normal  0.000000e+00  0.000000e+00  1.000000e+00
   outer loop
     vertex  2.000000e+00  0.000000e+00  6.000000e+00
     vertex  1.979643e+00  2.846297e-01  6.000000e+00
     vertex  1.309721e+00  1.511499e+00  6.000000e+00
   endloop
 endfacet
 facet normal -0.000000e+00  0.000000e+00  1.000000e+00
   outer loop
     vertex -4.251306e-01 -1.954294e+00  6.000000e+00
     vertex  1.426784e-01 -1.994904e+00  6.000000e+00
     vertex  1.309721e+00  1.511499e+00  6.000000e+00
   endloop
 endfacet
 facet normal  0.000000e+00  0.000000e+00  1.000000e+00
   outer loop
     vertex  1.979643e+00  2.846297e-01  6.000000e+00
     vertex  1.918986e+00  5.634651e-01  6.000000e+00
     vertex  1.309721e+00  1.511499e+00  6.000000e+00
   endloop
 endfacet
 facet normal  0.000000e+00  0.000000e+00  1.000000e+00
   outer loop
     vertex  1.819264e+00  8.308300e-01  6.000000e+00
     vertex  1.601082e+00  1.198555e+00  6.000000e+00
     vertex  1.309721e+00  1.511499e+00  6.000000e+00
   endloop
 endfacet
 facet normal -0.000000e+00  0.000000e+00  1.000000e+00
   outer loop
     vertex -9.584980e-01 -1.755358e+00  6.000000e+00
     vertex -4.251306e-01 -1.954294e+00  6.000000e+00
     vertex  1.309721e+00  1.511499e+00  6.000000e+00
   endloop
 endfacet
 facet normal  0.000000e+00  0.000000e+00  1.000000e+00
   outer loop
     vertex  1.426784e-01 -1.994904e+00  6.000000e+00
     vertex  2.846297e-01 -1.979643e+00  6.000000e+00
     vertex  1.309721e+00  1.511499e+00  6.000000e+00
   endloop
 endfacet
 facet normal  0.000000e+00  0.000000e+00  1.000000e+00
   outer loop
     vertex  6.989284e-01 -1.873899e+00  6.000000e+00
     vertex  8.308300e-01 -1.819264e+00  6.000000e+00
     vertex  1.309721e+00  1.511499e+00  6.000000e+00
   endloop
 endfacet
 facet normal  0.000000e+00 -0.000000e+00  1.000000e+00
   outer loop
     vertex  1.994904e+00 -1.426784e-01  6.000000e+00
     vertex  2.000000e+00  0.000000e+00  6.000000e+00
     vertex  1.309721e+00  1.511499e+00  6.000000e+00
   endloop
 endfacet
 facet normal  0.000000e+00 -0.000000e+00  1.000000e+00
   outer loop
     vertex  1.309721e+00 -1.511499e+00  6.000000e+00
     vertex  1.819264e+00 -8.308300e-01  6.000000e+00
     vertex  1.309721e+00  1.511499e+00  6.000000e+00
   endloop
 endfacet
 facet normal  0.000000e+00  0.000000e+00  1.000000e+00
   outer loop
     vertex -9.584980e-01  1.755358e+00  6.000000e+00
     vertex -1.081282e+00  1.682507e+00  6.000000e+00
     vertex -1.198555e+00  1.601082e+00  6.000000e+00
   endloop
 endfacet
 facet normal -0.000000e+00  0.000000e+00  1.000000e+00
   outer loop
     vertex -1.682507e+00  1.081282e+00  6.000000e+00
     vertex -1.755358e+00  9.584980e-01  6.000000e+00
     vertex -1.601082e+00  1.198555e+00  6.000000e+00
   endloop
 endfacet
 facet normal -0.000000e+00 -0.000000e+00  1.000000e+00
   outer loop
     vertex -1.511499e+00 -1.309721e+00  6.000000e+00
     vertex -1.414214e+00 -1.414214e+00  6.000000e+00
     vertex -1.601082e+00 -1.198555e+00  6.000000e+00
   endloop
 endfacet
 facet normal  0.000000e+00  0.000000e+00  1.000000e+00
   outer loop
     vertex  1.309721e+00  1.511499e+00  6.000000e+00
     vertex  1.198555e+00  1.601082e+00  6.000000e+00
     vertex  1.081282e+00  1.682507e+00  6.000000e+00
   endloop
 endfacet
 facet normal  0.000000e+00 -0.000000e+00  1.000000e+00
   outer loop
     vertex  5.634651e-01 -1.918986e+00  6.000000e+00
     vertex  6.989284e-01 -1.873899e+00  6.000000e+00
     vertex  4.251306e-01 -1.954294e+00  6.000000e+00
   endloop
 endfacet
 facet normal  0.000000e+00  0.000000e+00  1.000000e+00
   outer loop
     vertex -1.198555e+00  1.601082e+00  6.000000e+00
     vertex -1.309721e+00  1.511499e+00  6.000000e+00
     vertex -1.414214e+00  1.414214e+00  6.000000e+00
   endloop
 endfacet
 facet normal -0.000000e+00  0.000000e+00  1.000000e+00
   outer loop
     vertex -1.511499e+00  1.309721e+00  6.000000e+00
     vertex -1.601082e+00  1.198555e+00  6.000000e+00
     vertex -1.414214e+00  1.414214e+00  6.000000e+00
   endloop
 endfacet
 facet normal -0.000000e+00  0.000000e+00  1.000000e+00
   outer loop
     vertex -1.755358e+00  9.584980e-01  6.000000e+00
     vertex -1.819264e+00  8.308300e-01  6.000000e+00
     vertex -1.414214e+00  1.414214e+00  6.000000e+00
   endloop
 endfacet
 facet normal  0.000000e+00 -0.000000e+00  1.000000e+00
   outer loop
     vertex -1.918986e+00  5.634651e-01  6.000000e+00
     vertex -9.584980e-01  1.755358e+00  6.000000e+00
     vertex -1.414214e+00  1.414214e+00  6.000000e+00
   endloop
 endfacet
 facet normal -0.000000e+00  0.000000e+00  1.000000e+00
   outer loop
     vertex -1.819264e+00  8.308300e-01  6.000000e+00
     vertex -1.918986e+00  5.634651e-01  6.000000e+00
     vertex -1.414214e+00  1.414214e+00  6.000000e+00
   endloop
 endfacet
 facet normal -0.000000e+00 -0.000000e+00  1.000000e+00
   outer loop
     vertex -1.601082e+00 -1.198555e+00  6.000000e+00
     vertex -1.414214e+00 -1.414214e+00  6.000000e+00
     vertex -1.682507e+00 -1.081282e+00  6.000000e+00
   endloop
 endfacet
 facet normal  0.000000e+00  0.000000e+00  1.000000e+00
   outer loop
     vertex -9.584980e-01  1.755358e+00  6.000000e+00
     vertex -1.198555e+00  1.601082e+00  6.000000e+00
     vertex -1.414214e+00  1.414214e+00  6.000000e+00
   endloop
 endfacet
 facet normal -0.000000e+00  0.000000e+00  1.000000e+00
   outer loop
     vertex -1.601082e+00  1.198555e+00  6.000000e+00
     vertex -1.755358e+00  9.584980e-01  6.000000e+00
     vertex -1.414214e+00  1.414214e+00  6.000000e+00
   endloop
 endfacet
 facet normal  0.000000e+00 -0.000000e+00  1.000000e+00
   outer loop
     vertex  4.251306e-01 -1.954294e+00  6.000000e+00
     vertex  6.989284e-01 -1.873899e+00  6.000000e+00
     vertex  2.846297e-01 -1.979643e+00  6.000000e+00
   endloop
 endfacet
 facet normal -0.000000e+00 -0.000000e+00  1.000000e+00
   outer loop
     vertex -1.414214e+00 -1.414214e+00  6.000000e+00
     vertex -1.309721e+00 -1.511499e+00  6.000000e+00
     vertex -1.755358e+00 -9.584980e-01  6.000000e+00
   endloop
 endfacet
 facet normal -0.000000e+00 -0.000000e+00  1.000000e+00
   outer loop
     vertex -1.682507e+00 -1.081282e+00  6.000000e+00
     vertex -1.414214e+00 -1.414214e+00  6.000000e+00
     vertex -1.755358e+00 -9.584980e-01  6.000000e+00
   endloop
 endfacet
 facet normal  0.000000e+00  0.000000e+00  1.000000e+00
   outer loop
     vertex  1.819264e+00 -8.308300e-01  6.000000e+00
     vertex  1.873899e+00 -6.989284e-01  6.000000e+00
     vertex  1.994904e+00 -1.426784e-01  6.000000e+00
   endloop
 endfacet
 facet normal  0.000000e+00  0.000000e+00  1.000000e+00
   outer loop
     vertex  1.873899e+00 -6.989284e-01  6.000000e+00
     vertex  1.918986e+00 -5.634651e-01  6.000000e+00
     vertex  1.994904e+00 -1.426784e-01  6.000000e+00
   endloop
 endfacet
 facet normal  0.000000e+00  0.000000e+00  1.000000e+00
   outer loop
     vertex  1.918986e+00 -5.634651e-01  6.000000e+00
     vertex  1.954294e+00 -4.251306e-01  6.000000e+00
     vertex  1.994904e+00 -1.426784e-01  6.000000e+00
   endloop
 endfacet
 facet normal  0.000000e+00  0.000000e+00  1.000000e+00
   outer loop
     vertex  1.954294e+00 -4.251306e-01  6.000000e+00
     vertex  1.979643e+00 -2.846297e-01  6.000000e+00
     vertex  1.994904e+00 -1.426784e-01  6.000000e+00
   endloop
 endfacet
 facet normal  0.000000e+00  0.000000e+00  1.000000e+00
   outer loop
     vertex  1.081282e+00  1.682507e+00  6.000000e+00
     vertex  9.584980e-01  1.755358e+00  6.000000e+00
     vertex  8.308300e-01  1.819264e+00  6.000000e+00
   endloop
 endfacet
 facet normal  0.000000e+00  0.000000e+00  1.000000e+00
   outer loop
     vertex  8.308300e-01  1.819264e+00  6.000000e+00
     vertex  6.989284e-01  1.873899e+00  6.000000e+00
     vertex  5.634651e-01  1.918986e+00  6.000000e+00
   endloop
 endfacet
 facet normal  0.000000e+00  0.000000e+00  1.000000e+00
   outer loop
     vertex  2.000000e+00  0.000000e+00  6.000000e+00
     vertex  1.994904e+00  1.426784e-01  6.000000e+00
     vertex  1.979643e+00  2.846297e-01  6.000000e+00
   endloop
 endfacet
 facet normal -0.000000e+00 -0.000000e+00  1.000000e+00
   outer loop
     vertex -1.873899e+00 -6.989284e-01  6.000000e+00
     vertex -1.819264e+00 -8.308300e-01  6.000000e+00
     vertex -1.918986e+00 -5.634651e-01  6.000000e+00
   endloop
 endfacet
 facet normal -0.000000e+00 -0.000000e+00  1.000000e+00
   outer loop
     vertex -1.819264e+00 -8.308300e-01  6.000000e+00
     vertex -1.755358e+00 -9.584980e-01  6.000000e+00
     vertex -1.918986e+00 -5.634651e-01  6.000000e+00
   endloop
 endfacet
 facet normal  0.000000e+00  0.000000e+00  1.000000e+00
   outer loop
     vertex  8.308300e-01  1.819264e+00  6.000000e+00
     vertex  5.634651e-01  1.918986e+00  6.000000e+00
     vertex  4.251306e-01  1.954294e+00  6.000000e+00
   endloop
 endfacet
 facet normal  0.000000e+00 -0.000000e+00  1.000000e+00
   outer loop
     vertex -9.584980e-01 -1.755358e+00  6.000000e+00
     vertex  1.309721e+00  1.511499e+00  6.000000e+00
     vertex  4.251306e-01  1.954294e+00  6.000000e+00
   endloop
 endfacet
 facet normal -0.000000e+00 -0.000000e+00  1.000000e+00
   outer loop
     vertex -1.426784e-01 -1.994904e+00  6.000000e+00
     vertex -3.904495e-15 -2.000000e+00  6.000000e+00
     vertex -2.846297e-01 -1.979643e+00  6.000000e+00
   endloop
 endfacet
 facet normal  0.000000e+00  0.000000e+00  1.000000e+00
   outer loop
     vertex  1.309721e+00  1.511499e+00  6.000000e+00
     vertex  1.081282e+00  1.682507e+00  6.000000e+00
     vertex  4.251306e-01  1.954294e+00  6.000000e+00
   endloop
 endfacet
 facet normal  0.000000e+00  0.000000e+00  1.000000e+00
   outer loop
     vertex  1.081282e+00  1.682507e+00  6.000000e+00
     vertex  8.308300e-01  1.819264e+00  6.000000e+00
     vertex  4.251306e-01  1.954294e+00  6.000000e+00
   endloop
 endfacet
 facet normal -0.000000e+00 -0.000000e+00  1.000000e+00
   outer loop
     vertex -2.846297e-01 -1.979643e+00  6.000000e+00
     vertex -3.904495e-15 -2.000000e+00  6.000000e+00
     vertex -4.251306e-01 -1.954294e+00  6.000000e+00
   endloop
 endfacet
 facet normal  0.000000e+00 -0.000000e+00  1.000000e+00
   outer loop
     vertex -3.904495e-15 -2.000000e+00  6.000000e+00
     vertex  1.426784e-01 -1.994904e+00  6.000000e+00
     vertex -4.251306e-01 -1.954294e+00  6.000000e+00
   endloop
 endfacet
 facet normal  0.000000e+00  0.000000e+00  1.000000e+00
   outer loop
     vertex  1.979643e+00  2.846297e-01  6.000000e+00
     vertex  1.954294e+00  4.251306e-01  6.000000e+00
     vertex  1.918986e+00  5.634651e-01  6.000000e+00
   endloop
 endfacet
 facet normal -0.000000e+00 -0.000000e+00  1.000000e+00
   outer loop
     vertex -1.918986e+00 -5.634651e-01  6.000000e+00
     vertex -1.755358e+00 -9.584980e-01  6.000000e+00
     vertex -1.979643e+00 -2.846297e-01  6.000000e+00
   endloop
 endfacet
 facet normal -0.000000e+00 -0.000000e+00  1.000000e+00
   outer loop
     vertex -1.954294e+00 -4.251306e-01  6.000000e+00
     vertex -1.918986e+00 -5.634651e-01  6.000000e+00
     vertex -1.979643e+00 -2.846297e-01  6.000000e+00
   endloop
 endfacet
 facet normal -0.000000e+00 -0.000000e+00  1.000000e+00
   outer loop
     vertex -1.755358e+00 -9.584980e-01  6.000000e+00
     vertex -1.309721e+00 -1.511499e+00  6.000000e+00
     vertex -1.979643e+00 -2.846297e-01  6.000000e+00
   endloop
 endfacet
 facet normal  0.000000e+00  0.000000e+00  1.000000e+00
   outer loop
     vertex  4.251306e-01  1.954294e+00  6.000000e+00
     vertex  2.846297e-01  1.979643e+00  6.000000e+00
     vertex  1.426784e-01  1.994904e+00  6.000000e+00
   endloop
 endfacet
 facet normal -0.000000e+00 -0.000000e+00  1.000000e+00
   outer loop
     vertex -5.634651e-01 -1.918986e+00  6.000000e+00
     vertex -4.251306e-01 -1.954294e+00  6.000000e+00
     vertex -6.989284e-01 -1.873899e+00  6.000000e+00
   endloop
 endfacet
 facet normal -0.000000e+00 -0.000000e+00  1.000000e+00
   outer loop
     vertex -1.994904e+00 -1.426784e-01  6.000000e+00
     vertex -1.979643e+00 -2.846297e-01  6.000000e+00
     vertex -2.000000e+00  2.021286e-15  6.000000e+00
   endloop
 endfacet
 facet normal  0.000000e+00  0.000000e+00  1.000000e+00
   outer loop
     vertex  4.251306e-01  1.954294e+00  6.000000e+00
     vertex  1.426784e-01  1.994904e+00  6.000000e+00
     vertex -1.426784e-01  1.994904e+00  6.000000e+00
   endloop
 endfacet
 facet normal  0.000000e+00  0.000000e+00  1.000000e+00
   outer loop
     vertex  1.426784e-01  1.994904e+00  6.000000e+00
     vertex  5.821664e-16  2.000000e+00  6.000000e+00
     vertex -1.426784e-01  1.994904e+00  6.000000e+00
   endloop
 endfacet
endsolid
